<svg width="19" height="19" viewBox="0 0 19 19" fill="none" xmlns="http://www.w3.org/2000/svg">
<path fill-rule="evenodd" clip-rule="evenodd" d="M3.6697 0.922363H8.33494C10.3604 0.922363 12.0023 2.56431 12.0023 4.58975V8.73473L6.00232 8.73473C5.62255 8.73473 5.31468 9.04259 5.31468 9.42236C5.31468 9.80213 5.62255 10.11 6.00232 10.11L12.0023 10.11V15.255C12.0023 17.2804 10.3604 18.9224 8.33494 18.9224H3.6697C1.64426 18.9224 0.00231934 17.2804 0.00231934 15.255V13.5224V6.32236V4.58975C0.00231934 2.56431 1.64426 0.922363 3.6697 0.922363ZM12.0023 10.11H16.5656L15.0844 11.4046C14.7984 11.6545 14.7692 12.0889 15.0191 12.3749C15.2691 12.6608 15.7035 12.69 15.9894 12.4401L18.1756 10.5294C18.8614 9.92994 18.8614 8.91478 18.1756 8.31536L15.9894 6.40461C15.7035 6.15469 15.2691 6.1839 15.0191 6.46984C14.7692 6.75579 14.7984 7.19019 15.0844 7.44011L16.5656 8.73473H12.0023V10.11Z" fill="white" fill-opacity="0.6"/>
</svg>
