<svg width="81" height="80" viewBox="0 0 81 80" fill="none" xmlns="http://www.w3.org/2000/svg">
<circle cx="40.5" cy="40" r="40" fill="white" fill-opacity="0.05"/>
<path d="M44.803 21.5495C41.8181 19.8724 38.1819 19.8724 35.197 21.5495L24.1299 27.7673C21.4567 29.2692 21.4567 33.1329 24.1299 34.6347L35.197 40.8526C38.1819 42.5296 41.8181 42.5296 44.803 40.8526L55.8701 34.6347C58.5433 33.1329 58.5433 29.2692 55.8701 27.7673L44.803 21.5495Z" fill="white"/>
<path d="M23.4545 46.1179C21.4798 47.8412 21.7049 51.1473 24.1299 52.5097L35.197 58.7276C38.1819 60.4046 41.8181 60.4046 44.803 58.7276L55.8701 52.5097C58.2951 51.1473 58.5203 47.8412 56.5455 46.1179L46.15 51.9585C42.3285 54.1055 37.6714 54.1055 33.85 51.9585L23.4545 46.1179Z" fill="white"/>
<path d="M23.1557 37.2417C21.5102 39.0237 21.835 42.0537 24.1299 43.3431L35.197 49.5609C38.1819 51.238 41.8181 51.238 44.803 49.5609L55.8701 43.3431C58.165 42.0537 58.4898 39.0237 56.8443 37.2417L46.15 43.2501C42.3285 45.3971 37.6714 45.3971 33.85 43.2501L23.1557 37.2417Z" fill="white"/>
</svg>
