<svg width="37" height="36" viewBox="0 0 37 36" fill="none" xmlns="http://www.w3.org/2000/svg">
<g id="Frame" clip-path="url(#clip0_45_737)">
<g id="Group">
<path id="Vector" fill-rule="evenodd" clip-rule="evenodd" d="M18.3333 0C28.2751 0 36.3333 8.05817 36.3333 18C36.3333 27.9418 28.2751 36 18.3333 36C8.39143 36 0.333252 27.9418 0.333252 18C0.333252 8.05817 8.39143 0 18.3333 0Z" fill="#F0B90B"/>
<path id="Vector_2" d="M10.226 18L10.239 22.7596L14.2832 25.1394V27.926L7.87217 24.1659V16.6082L10.226 18ZM10.226 13.2404V16.014L7.87073 14.6207V11.8471L10.226 10.4539L12.5928 11.8471L10.226 13.2404ZM15.9722 11.8471L18.3275 10.4539L20.6943 11.8471L18.3275 13.2404L15.9722 11.8471Z" fill="white"/>
<path id="Vector_3" d="M11.928 21.7731V18.9866L14.2833 20.3798V23.1534L11.928 21.7731ZM15.9722 26.1375L18.3275 27.5308L20.6943 26.1375V28.9111L18.3275 30.3043L15.9722 28.9111V26.1375ZM24.0722 11.8471L26.4275 10.4539L28.7943 11.8471V14.6207L26.4275 16.014V13.2404L24.0722 11.8471ZM26.4275 22.7596L26.4405 18L28.7958 16.6067V24.1644L22.3847 27.9245V25.138L26.4275 22.7596Z" fill="white"/>
<path id="Vector_4" d="M24.7385 21.773L22.3832 23.1533V20.3798L24.7385 18.9865V21.773Z" fill="white"/>
<path id="Vector_5" d="M24.7386 14.2269L24.7515 17.0135L20.6958 19.3933V24.1644L18.3405 25.5447L15.9852 24.1644V19.3933L11.9294 17.0135V14.2269L14.2948 12.8337L18.3261 15.225L22.3818 12.8337L24.7487 14.2269H24.7386ZM11.928 9.46876L18.3275 5.69568L24.7386 9.46876L22.3833 10.862L18.3275 8.47068L14.2833 10.862L11.928 9.46876Z" fill="white"/>
</g>
</g>
<defs>
<clipPath id="clip0_45_737">
<rect width="36" height="36" fill="white" transform="translate(0.333252)"/>
</clipPath>
</defs>
</svg>
