<svg width="18" height="20" viewBox="0 0 18 20" fill="none" xmlns="http://www.w3.org/2000/svg">
<g id="Gift">
<path id="Rectangle 85" d="M15.8771 5.14551H2.12714C1.36774 5.14551 0.752136 5.76112 0.752136 6.52051V8.35384C0.752136 9.11323 1.36774 9.72884 2.12714 9.72884H4.87714H13.1271H15.8771C16.6365 9.72884 17.2521 9.11323 17.2521 8.35384V6.52051C17.2521 5.76112 16.6365 5.14551 15.8771 5.14551Z" fill="white" fill-opacity="0.6"/>
<path id="Rectangle 74" d="M9.00195 3.77067C9.00195 2.50502 10.028 1.479 11.2936 1.479H11.752C12.7645 1.479 13.5853 2.29982 13.5853 3.31234V3.31234C13.5853 4.32486 12.7645 5.14567 11.752 5.14567H9.00195V3.77067Z" stroke="white" stroke-opacity="0.6" stroke-width="1.375"/>
<path id="Rectangle 87" d="M9.00195 3.77067C9.00195 2.50502 7.97594 1.479 6.71029 1.479H6.25195C5.23943 1.479 4.41862 2.29982 4.41862 3.31234V3.31234C4.41862 4.32486 5.23943 5.14567 6.25195 5.14567H9.00195V3.77067Z" stroke="white" stroke-opacity="0.6" stroke-width="1.375"/>
<path id="Subtract" fill-rule="evenodd" clip-rule="evenodd" d="M1.66913 11.104V16.1457C1.66913 18.1707 3.31075 19.8123 5.3358 19.8123H8.26971L8.26971 11.104H1.66913ZM9.64471 11.104L9.64471 19.8123H12.6691C14.6942 19.8123 16.3358 18.1707 16.3358 16.1457V11.104H9.64471Z" fill="white" fill-opacity="0.6"/>
</g>
</svg>
