<svg width="21" height="21" viewBox="0 0 21 21" fill="none" xmlns="http://www.w3.org/2000/svg">
<path fill-rule="evenodd" clip-rule="evenodd" d="M18.0023 7.01589C16.1382 7.01589 14.6271 5.50473 14.6271 3.64062C14.6271 2.47601 15.2169 1.44915 16.1141 0.842501C15.6499 0.711 15.1599 0.640625 14.6535 0.640625H5.35116C2.39708 0.640625 0.00231934 3.03538 0.00231934 5.98946V15.2918C0.00231934 18.2459 2.39708 20.6406 5.35116 20.6406H5.75232H14.6535H15.2523C17.8757 20.6406 20.0023 18.514 20.0023 15.8906V15.2918V8.29063V6.39062V6.35981C19.4426 6.7722 18.7509 7.01589 18.0023 7.01589ZM17.7846 1.65234C18.7449 2.34687 19.4655 3.35254 19.7984 4.52152C19.4726 5.18439 18.7908 5.64062 18.0023 5.64062C16.8978 5.64062 16.0023 4.74519 16.0023 3.64062C16.0023 2.60964 16.7824 1.76086 17.7846 1.65234ZM5.55209 14.1604C5.26504 13.9117 5.23392 13.4774 5.48257 13.1904L8.63257 9.55403C8.87874 9.26986 9.30751 9.23607 9.59514 9.47819L11.7765 11.3143L14.4826 8.1904C14.7312 7.90335 15.1655 7.87223 15.4525 8.12088C15.7396 8.36953 15.7707 8.80381 15.5221 9.09085L12.3721 12.7272C12.1259 13.0114 11.6971 13.0452 11.4095 12.8031L9.22817 10.9669L6.52206 14.0909C6.27341 14.3779 5.83914 14.409 5.55209 14.1604Z" fill="white"/>
<circle cx="2" cy="2" r="2" transform="matrix(-1 0 0 1 20.0023 1.64062)" fill="white"/>
</svg>
