<svg width="23" height="23" viewBox="0 0 23 23" fill="none" xmlns="http://www.w3.org/2000/svg">
<path fill-rule="evenodd" clip-rule="evenodd" d="M21.0024 11.3096L21.0024 15.9748C21.0024 18.0003 19.3605 19.6422 17.3351 19.6422L6.66982 19.6422C4.64438 19.6422 3.00244 18.0003 3.00244 15.9748L3.00244 11.3096C3.00244 9.28417 4.64438 7.64222 6.66982 7.64222L8.40244 7.64222L11.8148 7.64222L11.8148 13.2866L10.5001 11.9077C10.238 11.6329 9.80278 11.6225 9.52793 11.8846C9.25307 12.1466 9.2427 12.5819 9.50477 12.8568L11.4155 14.8607C12.0119 15.4862 12.993 15.4862 13.5894 14.8607L15.5001 12.8568C15.7622 12.5819 15.7518 12.1466 15.477 11.8846C15.2021 11.6225 14.7668 11.6329 14.5048 11.9077L13.1901 13.2866L13.1901 7.64222L15.6024 7.64222L17.3351 7.64222C19.3605 7.64222 21.0024 9.28417 21.0024 11.3096ZM13.1901 7.64222L13.1901 3.64222C13.1901 3.26245 12.8822 2.95459 12.5024 2.95459C12.1227 2.95459 11.8148 3.26245 11.8148 3.64222L11.8148 7.64222L13.1901 7.64222Z" fill="white" fill-opacity="0.6"/>
</svg>
