<svg width="26" height="26" viewBox="0 0 26 26" fill="none" xmlns="http://www.w3.org/2000/svg">
<path fill-rule="evenodd" clip-rule="evenodd" d="M24.917 12.7288L24.917 18.1454C24.917 20.5387 22.9769 22.4788 20.5837 22.4788L7.58366 22.4788C5.19042 22.4788 3.25033 20.5387 3.25033 18.1454L3.25033 12.7288C3.25033 10.3355 5.19043 8.39543 7.58366 8.39543L9.75033 8.39543L13.271 8.39543L13.271 15.1008L11.408 13.2378C11.0907 12.9205 10.5763 12.9205 10.259 13.2378C9.94167 13.5551 9.94167 14.0696 10.259 14.3869L12.7429 16.8708C13.4833 17.6112 14.6837 17.6112 15.4241 16.8708L17.908 14.3869C18.2253 14.0696 18.2253 13.5551 17.908 13.2378C17.5907 12.9205 17.0763 12.9205 16.759 13.2378L14.896 15.1008L14.896 8.39543L18.417 8.39543L20.5837 8.39543C22.9769 8.39543 24.917 10.3355 24.917 12.7288ZM14.896 8.39543L14.896 2.979C14.896 2.53027 14.5322 2.1665 14.0835 2.1665C13.6348 2.1665 13.271 2.53027 13.271 2.979L13.271 8.39543L14.896 8.39543Z" fill="#111517"/>
</svg>
