<svg width="81" height="80" viewBox="0 0 81 80" fill="none" xmlns="http://www.w3.org/2000/svg">
<circle cx="40.2803" cy="40" r="40" fill="white" fill-opacity="0.05"/>
<path fill-rule="evenodd" clip-rule="evenodd" d="M44.5729 20.3032C44.4594 20.2955 44.3452 20.2916 44.2305 20.2916H33.1146C28.3051 20.2916 24.4062 24.1905 24.4062 29V51C24.4062 55.8094 28.3051 59.7083 33.1146 59.7083H47.7812C52.5907 59.7083 56.4896 55.8094 56.4896 51V34.0416H49.6146C46.8301 34.0416 44.5729 31.7844 44.5729 29V20.3032ZM31.7396 40C31.7396 39.2406 32.3552 38.625 33.1146 38.625H47.7812C48.5406 38.625 49.1562 39.2406 49.1562 40C49.1562 40.7593 48.5406 41.375 47.7812 41.375H33.1146C32.3552 41.375 31.7396 40.7593 31.7396 40ZM33.1146 47.7916C32.3552 47.7916 31.7396 48.4072 31.7396 49.1666C31.7396 49.926 32.3552 50.5416 33.1146 50.5416H40.4479C41.2073 50.5416 41.8229 49.926 41.8229 49.1666C41.8229 48.4072 41.2073 47.7916 40.4479 47.7916H33.1146Z" fill="white"/>
<path d="M55.7041 31.2916C55.5884 31.1094 55.4605 30.9339 55.321 30.7665L48.1037 22.1057C47.8692 21.8243 47.607 21.572 47.3229 21.3513V29C47.3229 30.2656 48.3489 31.2916 49.6146 31.2916H55.7041Z" fill="white"/>
</svg>
