<svg width="37" height="36" viewBox="0 0 37 36" fill="none" xmlns="http://www.w3.org/2000/svg">
<g clip-path="url(#clip0_45_760)">
<path d="M18.3333 36C28.2744 36 36.3333 27.9411 36.3333 18C36.3333 8.05887 28.2744 0 18.3333 0C8.39213 0 0.333252 8.05887 0.333252 18C0.333252 27.9411 8.39213 36 18.3333 36Z" fill="#988430"/>
<path d="M18.3332 35.4234C27.9559 35.4234 35.7566 27.6227 35.7566 18C35.7566 8.3773 27.9559 0.576569 18.3332 0.576569C8.71052 0.576569 0.90979 8.3773 0.90979 18C0.90979 27.6227 8.71052 35.4234 18.3332 35.4234Z" fill="#7A6A2A"/>
<path d="M18.3333 35.0563C27.7532 35.0563 35.3896 27.42 35.3896 18C35.3896 8.58007 27.7532 0.943695 18.3333 0.943695C8.91335 0.943695 1.27698 8.58007 1.27698 18C1.27698 27.42 8.91335 35.0563 18.3333 35.0563Z" fill="#BA9F33"/>
<path fill-rule="evenodd" clip-rule="evenodd" d="M8.20313 16.0777C8.10118 15.9846 7.99347 15.8913 7.89439 15.7982C7.79532 15.705 7.69356 15.6117 7.59161 15.5186L7.28863 15.2306C7.2391 15.1811 7.18668 15.1375 7.13715 15.0878C7.08761 15.0442 7.02943 14.9946 6.9799 14.9509C6.57785 14.5694 6.1735 14.1878 5.77702 13.8062C6.18771 14.1819 6.58975 14.555 7.00044 14.9363L7.1431 15.0791C7.19263 15.1285 7.24505 15.1722 7.29459 15.2218L7.59737 15.5013C7.69932 15.5944 7.79839 15.6878 7.90035 15.7893C8.0023 15.8909 8.10137 15.9844 8.20332 16.0773L8.20313 16.0777ZM2.86726 16.0201C2.86726 16.0201 4.32934 16.1714 5.043 16.2734C5.70406 16.3667 7.77209 16.684 7.77209 16.684L2.86726 16.0201ZM2.86726 16.0201C3.27795 16.055 3.68863 16.0986 4.09932 16.1424C4.30899 16.1628 4.51001 16.186 4.71103 16.2063L5.01958 16.2415C5.12153 16.2559 5.2206 16.2705 5.32255 16.2851L6.54598 16.4801L7.1575 16.5821C7.35852 16.617 7.55955 16.655 7.76921 16.69C7.56819 16.6696 7.35852 16.6405 7.1575 16.6113L6.54598 16.5239L5.32255 16.3434C5.2206 16.3288 5.12153 16.3083 5.01958 16.2939L4.71084 16.2584C4.50982 16.238 4.30015 16.2088 4.09913 16.1854C3.68844 16.1361 3.27775 16.0835 2.86707 16.0195L2.86726 16.0201ZM7.62655 17.065C7.62655 17.065 6.0654 17.4613 5.53817 17.6127C5.01977 17.7554 3.44979 18.2331 3.44979 18.2331L7.62636 17.0652L7.62655 17.065Z" fill="#CFB66C"/>
<path fill-rule="evenodd" clip-rule="evenodd" d="M7.62641 17.0649C7.27985 17.1669 6.93521 17.266 6.58366 17.3593L5.54091 17.6388C5.19435 17.7408 4.84971 17.8399 4.50411 17.9418L3.98571 18.0845C3.81387 18.134 3.63915 18.1776 3.46155 18.2273C3.6332 18.1697 3.80811 18.1108 3.97995 18.0612L4.49835 17.8953C4.84491 17.7874 5.18955 17.6855 5.53515 17.5778C5.88747 17.4904 6.23422 17.3971 6.58654 17.3126C6.92139 17.2281 7.2739 17.1439 7.62641 17.0651V17.0649ZM3.66833 19.1942C3.83998 19.1301 5.82065 18.207 6.28088 17.9913C6.51128 17.8834 7.18097 17.6457 7.18097 17.6457L3.66833 19.1942Z" fill="#CFB66C"/>
<path fill-rule="evenodd" clip-rule="evenodd" d="M3.66828 19.1943C3.81958 19.1367 3.96243 19.0662 4.10796 18.9992L4.539 18.7982L5.40415 18.3817C5.69215 18.2448 5.97209 18.0937 6.26911 17.9651C6.4206 17.9011 6.57209 17.8487 6.72339 17.7992L6.95379 17.7264C7.03232 17.7061 7.10528 17.6826 7.18419 17.6623C6.89619 17.7992 6.59302 17.9157 6.30464 18.0496C6.01664 18.1924 5.72211 18.3089 5.42489 18.437L4.54534 18.8243C4.25004 18.9439 3.96204 19.072 3.66809 19.1943H3.66828ZM3.86028 20.0007C3.86028 20.0007 5.65433 18.9493 6.2718 18.6113C6.59513 18.4309 7.64076 17.9123 7.64076 17.9123L3.86028 20.0007Z" fill="#CFB66C"/>
<path fill-rule="evenodd" clip-rule="evenodd" d="M3.86047 20.001C4.16326 19.8146 4.47199 19.6253 4.78073 19.4331L5.24153 19.1533C5.39878 19.0602 5.55027 18.9728 5.71059 18.8797C5.86783 18.7864 6.01932 18.6933 6.17945 18.6059C6.25568 18.5589 6.33555 18.518 6.4183 18.4836L6.66291 18.3613C6.98623 18.2041 7.30956 18.0438 7.65036 17.9069C7.34163 18.1021 7.02406 18.2682 6.70668 18.4399C6.54943 18.5272 6.38911 18.6059 6.23187 18.6933C6.07462 18.7807 5.92313 18.874 5.76281 18.9584C5.60556 19.0516 5.45407 19.1389 5.29395 19.2234L4.81913 19.4826L3.86086 20.001H3.86047ZM7.62636 18.1426C7.62636 18.1426 6.51084 18.999 6.14969 19.2727C5.78854 19.5465 4.72543 20.3155 4.72543 20.3155L7.62636 18.1426Z" fill="#CFB66C"/>
<path fill-rule="evenodd" clip-rule="evenodd" d="M14.0285 25.0485L13.4576 23.968L13.7896 22.6165L16.1575 21.702L15.1497 19.6341L15.6478 17.5458L16.5828 15.6757L19.4722 15.2214L21.5954 13.1971L26.1799 13.5437L27.0799 18.4457L25.3469 24.6175L24.3596 27.8128L20.3575 27.9642L18.4994 26.6769L16.3236 25.768L14.0285 25.0485Z" fill="#E2CC85"/>
<path fill-rule="evenodd" clip-rule="evenodd" d="M21.0479 25.0135C21.0479 25.0135 20.4944 25.267 19.5503 25.2086C19.2771 24.8417 17.3636 24.6699 17.3636 24.6699C17.3636 24.6699 17.1248 24.5971 16.7024 24.7718C16.2773 24.9446 15.8752 24.9233 15.4995 25.0164C15.1237 25.1095 14.7507 24.6203 14.4627 24.5184C14.1747 24.4107 13.7928 24.1515 13.7928 24.1515L12.9864 24.0727L11.3671 23.3883L8.79445 20.8253L8.09538 21.9197L7.87976 23.274L8.65755 24.879L10.7517 26.7867L14.8352 27.8235L17.2555 27.1104L20.2876 25.8288L21.0479 25.0134V25.0135Z" fill="#F1D789"/>
<path fill-rule="evenodd" clip-rule="evenodd" d="M6.54001 15.9554L7.05841 14.3856L7.67607 13.3718L9.66519 13.2057L9.06807 14.9476L7.40516 17.9069L8.0954 20.5486L6.87217 21.1601L6.49623 20.5835L6.19345 19.2612L6.1731 17.7757L6.54001 15.9554Z" fill="#F4ECB4"/>
<path fill-rule="evenodd" clip-rule="evenodd" d="M8.77107 24.9059L8.38956 24.3729C8.38956 24.3729 8.28761 24.1194 8.34598 23.8981C8.40358 23.6738 8.39532 23.6592 8.36633 23.5747C8.33734 23.4902 8.09254 23.199 8.10713 22.9484C8.12153 22.695 8.08678 22.6105 8.27302 22.4097C8.46809 22.2146 8.40991 21.8767 8.40991 21.8767L8.66335 22.0339L8.72095 21.9466C8.72095 21.9466 8.81407 22.0193 8.81407 22.133C8.83442 21.9758 8.74995 21.2475 8.94214 21.0816C9.13433 20.9157 9.47513 21.8592 9.47513 21.8592L9.26547 20.4902L8.72652 19.0865L7.76825 17.8049L7.71065 16.3922V16.2699C7.71065 16.2699 7.27078 16.9457 7.14847 17.4795C7.06111 17.8464 7.27078 18.292 7.22719 18.8193C7.19206 19.3436 7.14847 19.3027 7.27654 19.5105C7.4046 19.7182 7.71641 20.1454 7.59411 20.4542C7.48639 20.7193 7.11929 20.5329 7.11929 20.5329C7.11929 20.5329 7.04652 20.7483 6.94745 20.827C6.9125 20.699 6.87468 20.6174 6.80479 20.539C6.79884 20.5886 6.78444 20.6556 6.78444 20.6556C6.78444 20.6556 6.72031 20.4545 6.65619 20.2011C6.56902 19.8634 6.4757 19.4177 6.39122 19.1789C6.35628 19.3158 6.26892 19.7322 6.26892 19.7322L6.31846 20.3731L6.55731 21.2527L6.78771 21.8287L7.01196 22.5335L7.20684 23.007L7.36409 23.3681L7.50099 24.1809L8.16204 24.8798L8.51455 25.0372L8.77068 24.9061L8.77107 24.9059Z" fill="#F3E19D"/>
<path fill-rule="evenodd" clip-rule="evenodd" d="M6.88664 14.6738C6.88664 14.6738 6.41182 15.4802 6.27512 16.2931C6.13842 17.1061 6.01592 17.9651 6.10232 19.0718C6.18968 20.1875 6.35576 20.8718 6.48978 21.3612C6.72018 22.1739 7.31691 23.304 7.31691 23.304L7.33727 23.2602C7.23696 23.0701 7.15691 22.87 7.09842 22.6631C7.0197 22.3544 6.99051 21.9875 6.91774 21.8214C6.85362 21.6555 6.74591 21.5126 6.69349 21.3087C6.64395 21.1137 6.63589 20.8049 6.48382 20.5749C6.4197 20.4816 6.34098 20.237 6.31775 19.9924C6.28856 19.6253 6.33234 19.2146 6.29739 18.8769C6.23327 18.3147 6.18968 17.9332 6.24786 17.6389C6.30603 17.3445 6.6092 16.5089 6.79563 15.8448C6.91794 15.4195 6.84498 15.0613 7.06923 14.6913C7.29349 14.3244 7.43058 14.001 7.47992 13.7768C7.53752 13.5729 6.88587 14.6738 6.88587 14.6738H6.88664Z" fill="#F2E8B0"/>
<path fill-rule="evenodd" clip-rule="evenodd" d="M9.1382 14.3505C9.1382 14.3505 8.89359 14.4234 8.77705 14.5515C8.6605 14.6738 8.61097 14.7757 8.45372 14.9825C8.29647 15.1893 8.28764 15.3583 8.15938 15.6175C8.03132 15.8709 7.74869 16.2524 7.71375 16.3893C7.67881 16.5262 7.62063 17.1669 7.54786 17.4699C7.48373 17.7729 7.62063 18.1457 7.62063 18.1457L7.78652 18.1106C7.78652 18.1106 7.78652 18.3262 7.9526 18.4719C8.11849 18.6146 8.14767 17.9883 8.14767 17.9883L8.76802 15.8941L9.70287 15.2592L9.80482 14.7466L9.13781 14.3505H9.1382Z" fill="#F5EEC0"/>
<path fill-rule="evenodd" clip-rule="evenodd" d="M9.59248 15.3001C9.59248 15.3001 9.15261 15.3291 8.93718 15.4865C8.84982 15.5504 8.81488 15.6029 8.72176 15.6816C8.54992 15.8242 8.37501 15.9554 8.29072 16.1424C8.19741 16.3286 8.09545 16.6112 8.02557 17.1442C7.99638 17.3685 7.99638 17.5753 7.97603 17.7559C7.94685 18.0006 7.90326 18.1956 7.92649 18.3319C7.95568 18.6115 8.24406 18.7572 8.27209 19.0746L8.86921 18.7718L9.43139 16.5552L10.6256 15.8064L9.94979 15.0491L9.59171 15.2987L9.59248 15.3001Z" fill="#E6DB9D"/>
<path fill-rule="evenodd" clip-rule="evenodd" d="M6.44233 30.2264C6.44483 30.2045 6.44732 30.1826 6.44982 30.1602C6.53699 29.4114 6.55177 28.8438 6.61571 28.4884C6.70883 27.9846 6.77295 27.7972 6.75836 27.6087C6.73801 27.3059 6.71478 27.0845 6.74396 26.8514C6.78755 26.5427 7.09052 26.1758 7.08188 25.9223C7.07593 25.7213 6.97398 25.5904 6.88662 25.4681C6.79926 25.3458 6.72937 25.2438 6.72937 25.2438C6.72937 25.2438 7.32649 24.8331 7.32073 23.1786C7.33292 23.1821 7.34466 23.187 7.35567 23.1932L7.64982 24.029L7.85084 24.2736L8.62268 25.7125L9.6159 26.6767L11.0837 27.664L12.0042 28.6656L12.0973 31.3365L10.8944 32.8977L10.6974 33.2544C9.13239 32.4687 7.69724 31.4474 6.44214 30.2262L6.44233 30.2264Z" fill="#E5CB7A"/>
<path fill-rule="evenodd" clip-rule="evenodd" d="M10.1168 32.7815C10.1168 32.7815 10.1372 32.4495 10.411 32.2339C10.4547 32.3067 10.4837 32.3768 10.4751 32.429C10.5246 32.3418 10.8712 31.7825 11.6547 31.6368C12.4383 31.4941 12.6276 30.9233 12.6276 30.9233L14.2905 29.4117L16.1925 27.6612L18.5051 26.8485L19.5859 26.5834C19.5859 26.5834 19.6062 26.6621 19.5655 26.8368C19.7664 26.8224 20.212 26.7204 20.6751 26.5572C20.8615 26.4845 21.0364 26.4553 21.1296 26.5515C21.2665 26.6795 21.2868 26.9825 21.2954 27.163C21.5197 27.1135 21.7789 26.898 21.9866 26.9184C22.3188 26.9533 22.6129 27.3437 22.9509 27.3437C23.3965 27.3437 23.5973 27.0699 23.9091 26.8543C24.0956 26.7262 24.3634 26.5663 24.5149 26.4582C24.8761 26.193 28.6974 25.0251 28.6974 25.0251L30.0372 25.1124L30.2528 26.5513L30.1376 30.3126C30.1234 30.3262 30.1092 30.3404 30.0948 30.354L24.003 33.5357L15.5589 34.8301C13.6673 34.5211 11.842 33.8932 10.1606 32.9733L10.1174 32.7813L10.1168 32.7815Z" fill="#D8C173"/>
<path fill-rule="evenodd" clip-rule="evenodd" d="M6.95435 30.7048C7.07435 30.4539 7.18225 30.244 7.20126 30.1689C7.21623 30.3202 7.24369 30.6522 7.29899 31.0051C7.18289 30.9064 7.06801 30.8063 6.95435 30.7046V30.7048Z" fill="#F1D789"/>
<path fill-rule="evenodd" clip-rule="evenodd" d="M13.1228 34.2446L14.2149 33.9408L14.308 33.97C14.308 33.97 14.3576 33.9992 14.3576 34.0981C14.4945 34.0195 14.611 34.0339 14.6955 33.9817C14.7391 34.0748 14.7826 34.3836 14.975 34.4214C15.1759 34.4652 15.3915 34.334 15.61 34.1681C15.8254 33.9963 16.0708 33.7807 16.2564 33.6933C16.3246 33.8186 16.3849 33.9479 16.4371 34.0806C16.6817 33.8855 17.107 33.0933 17.7128 33.1077C17.8878 32.694 18.1803 32.3406 18.5541 32.0913C19.1163 31.7098 19.4686 31.6806 19.9085 31.7155C20.0832 31.4886 20.2985 31.296 20.5434 31.1476C20.6162 31.1768 20.8172 31.2991 21.0678 31.1825C21.3212 31.0662 21.6065 30.6146 21.9823 30.5564C22.1847 30.5286 22.3906 30.5718 22.5648 30.6787C22.5648 30.6787 23.6592 29.5922 24.4143 29.2311C24.3851 29.1437 24.327 28.8146 25.2123 28.0864C25.2618 28.1301 25.2269 28.2524 25.2618 28.2592C25.2762 28.2592 25.4922 28.166 25.7656 27.9562C26.1035 27.7029 26.5083 27.4378 26.7529 27.365C27.2137 27.2281 27.7025 27.5077 27.7025 27.5077C27.7441 27.4785 27.7904 27.4568 27.8394 27.4435C27.9558 27.4232 28.0402 27.4086 28.1044 27.3859C28.0986 27.5374 28.1831 27.7966 28.1044 28.0209C28.1956 28.0722 28.2921 28.1132 28.3924 28.1432C28.343 28.2509 28.2351 28.5247 28.0546 28.6558C28.2059 28.7286 28.2263 28.8131 28.4419 28.8862C28.3545 29.0085 28.2115 29.2184 28.1478 29.347C28.0836 29.4839 27.8534 30.0519 27.7515 30.2673C27.6438 30.4829 27.4982 30.879 27.4281 30.9585C27.3581 31.038 27.1048 31.3749 26.9097 31.5408C27.0825 31.4767 27.7895 31.2613 28.0894 31.1797C28.0001 31.3106 27.5476 31.982 27.1125 32.6277C25.0294 33.8763 22.7041 34.6665 20.2916 34.9458C17.8791 35.2251 15.4347 34.987 13.1215 34.2474L13.1228 34.2446Z" fill="#E0CD81"/>
<path fill-rule="evenodd" clip-rule="evenodd" d="M9.66442 15.2214C9.66442 15.2214 9.41117 15.2213 9.36164 15.2563C9.3121 15.2912 9.61508 15.3642 9.7082 15.3991C9.80132 15.4341 10.0023 15.5942 10.0548 15.7225C10.1043 15.8448 11.8751 16.5582 11.8751 16.5582L13.1275 16.4941L13.5593 15.8976L12.738 15.1782L13.314 13.4801L12.5509 13.6024L10.716 14.6968L9.79555 15.0493L9.66442 15.2214Z" fill="#DFC57C"/>
<path fill-rule="evenodd" clip-rule="evenodd" d="M12.4149 15.7836C12.433 15.8129 12.4585 15.8369 12.4888 15.8533C12.5191 15.8696 12.5532 15.8777 12.5877 15.8767C12.8469 15.8767 13.0855 15.9408 13.1846 16.0718C13.3507 16.2816 13.8109 16.9515 13.8109 16.9515L14.9118 17.3476L14.9829 16.0512L13.78 15.2155L12.411 15.7193V15.7834H12.4141L12.4149 15.7836Z" fill="#E5CC7C"/>
<path fill-rule="evenodd" clip-rule="evenodd" d="M12.1988 16.2641C12.1988 16.2641 12.3996 16.2787 12.6531 16.1854C12.9065 16.0921 13.323 15.8913 13.5036 15.97C13.7569 16.0777 13.7045 16.4156 13.9784 16.7188C14.1443 16.9052 14.4473 16.8995 14.6191 17.1005C14.791 17.3015 15.3822 17.2082 15.3822 17.2082L15.6064 18.4178L14.7065 19.5713L14.4122 21.0042H13.1953L12.0836 20.5632L11.536 19.2384L11.8098 17.8986L12.1988 16.2641Z" fill="#D2C281"/>
<path fill-rule="evenodd" clip-rule="evenodd" d="M14.5527 16.3223C14.5829 16.3316 14.6143 16.3365 14.6459 16.3369C14.6109 16.3661 14.538 16.43 14.5671 16.5961C14.5963 16.7622 14.6895 16.9719 14.6109 17.0999C14.6736 17.1685 14.7204 17.25 14.7478 17.3388C14.7974 17.4816 14.8119 17.6126 15.1351 17.6331C15.0884 17.6618 15.0454 17.696 15.007 17.7351C15.007 17.7351 15.2313 17.9301 15.3449 18.1106C15.4613 18.1056 15.77 18.0096 15.77 18.0096L15.8342 18.0534L15.971 17.9958C15.971 17.9958 15.843 17.9463 15.9361 17.6346C16.0235 17.3608 16.1022 17.3754 16.1089 17.3551C16.1156 17.3347 16.173 17.0464 16.173 16.9298C16.2166 16.7785 16.2516 16.3183 16.2516 16.3183L16.1584 15.3018L15.6343 14.9843L15.208 14.5728L14.806 15.3301L14.5412 15.5941L14.5209 16.2494L14.5527 16.3223Z" fill="#E2C270"/>
<path fill-rule="evenodd" clip-rule="evenodd" d="M15.8138 15.4719C15.8138 15.4719 15.907 15.7369 15.9421 15.9408C15.9545 15.9012 15.9613 15.86 15.9625 15.8185C15.9625 15.8185 16.0352 16.2205 16.0496 16.3866C16.0788 16.3807 16.1072 16.372 16.1137 16.401C16.1203 16.43 16.1867 16.7535 16.1713 16.934C16.2926 16.7339 16.4605 16.5661 16.6606 16.4448C16.7771 16.3718 16.914 16.2933 17.0569 16.2874C17.2811 16.2816 17.4441 16.4302 17.7121 16.4302C18.3586 16.4302 18.9442 15.9554 19.3753 15.8099C19.6926 15.7019 19.9664 15.6234 20.1586 15.4485C20.2519 15.37 20.418 15.1953 20.5693 14.9359C20.7703 14.5903 20.98 14.2894 21.1898 14.2516C21.0949 14.269 20.9983 14.2758 20.9018 14.2719C20.9018 14.2719 20.966 14.2078 21.0746 14.1204C21.1833 14.0331 21.3135 13.9254 21.4997 13.9254C21.8319 13.9254 21.9978 13.9747 22.1842 13.9747C22.3706 13.969 22.4784 13.9254 22.4784 13.9254C22.4784 13.9254 22.6736 14.0623 23.1133 14.0623C23.5532 14.068 23.8473 14.1059 24.0775 14.1264C24.3077 14.1469 25.0794 14.0623 25.3008 14.0688C25.4451 14.0744 25.5868 14.109 25.7174 14.1707L25.0037 12.0971L22.4401 9.85651L20.9139 10.9371L18.5662 13.2847L16.2944 14.1264L15.8196 14.6594V15.4719H15.8138Z" fill="#CCB360"/>
<path fill-rule="evenodd" clip-rule="evenodd" d="M20.911 14.2835C20.911 14.2835 20.9751 14.2195 21.0827 14.1322C21.1902 14.0448 21.3217 13.9369 21.5079 13.9369C21.8399 13.9369 22.006 13.9864 22.1924 13.9864C22.3789 13.9807 22.4866 13.9369 22.4866 13.9369C22.4866 13.9369 22.682 14.0736 23.1215 14.0736C23.5614 14.0794 23.8555 14.1172 24.0857 14.1375C24.3159 14.1579 25.0876 14.0736 25.309 14.0799C25.4533 14.0854 25.5949 14.1201 25.7254 14.1819L25.4021 13.2469L25.0265 12.5334L23.9546 11.3595C23.9546 11.3595 22.6682 10.6022 22.6584 10.5965C22.6526 10.5907 22.2128 10.4742 22.2128 10.4742L21.0477 11.179L19.9906 13.9141L19.9702 14.4901L20.6545 14.8134C20.8263 14.5254 21.0158 14.295 21.1934 14.2658C21.0331 14.2833 20.9108 14.2833 20.9108 14.2833L20.911 14.2835Z" fill="#D5B457"/>
<path fill-rule="evenodd" clip-rule="evenodd" d="M20.8964 14.4787C20.7945 14.4845 20.7102 14.4641 20.6868 14.3914C20.5994 14.1468 20.5295 14.1118 20.4564 14.1118C20.3832 14.1118 20.2845 14.2691 20.226 14.2835C20.1674 14.2979 20.0979 14.103 20.0979 14.103L20.0338 14.0738C20.0338 14.0738 19.658 14.3184 19.3931 14.6068C19.1281 14.8952 18.694 15.3846 18.4989 15.4717C18.3039 15.5589 17.6338 15.5883 17.4045 15.6378C17.1753 15.6874 16.9211 15.8534 16.8861 15.8913C16.8512 15.9291 16.9883 15.9698 17.0086 16.0076C17.029 16.0426 16.7842 16.028 16.7638 16.0652C16.7494 16.0944 16.8214 16.2603 16.8572 16.3448C16.9196 16.3137 16.9882 16.2968 17.058 16.2952C17.2822 16.2895 17.4454 16.4381 17.7133 16.4381C18.3599 16.4381 18.9453 15.9633 19.3764 15.8175C19.694 15.7098 19.9677 15.6311 20.1599 15.4564C20.2531 15.3779 20.4191 15.2029 20.5706 14.9437C20.6812 14.7661 20.7891 14.6001 20.897 14.4778L20.8964 14.4787Z" fill="#D2B257"/>
<path fill-rule="evenodd" clip-rule="evenodd" d="M11.6228 28.8933C11.6228 28.8933 11.5652 28.6777 11.0314 28.1215C10.8799 27.9642 10.7868 27.8335 10.6849 27.74C10.4314 27.5009 10.2828 27.437 10.1023 27.3001C9.70625 27.006 9.27521 27.0059 8.94324 26.6448C8.61128 26.2836 8.2244 25.5936 7.9556 24.8884C7.69064 24.1836 7.61768 23.9593 7.61768 23.9389C7.61768 23.9186 7.69064 23.7817 7.78376 23.802C7.87688 23.8224 7.87688 24.0029 7.9003 24.0467C7.94669 24.1181 7.99932 24.1853 8.05755 24.2475C8.19444 24.4049 8.38952 24.5931 8.48859 24.8738C8.46824 24.6349 8.38664 24.37 8.38664 24.37C8.38664 24.37 8.89928 24.6933 9.33608 25.031C9.77595 25.369 9.95643 25.4855 10.0849 25.7009C10.2133 25.9163 10.5159 26.4845 10.6609 26.6506C10.8058 26.8166 12.7921 27.4428 12.7921 27.4428L13.7369 28.1472L14.206 29.1754L13.8389 29.7514L13.134 29.9028L11.9893 29.3902L11.6228 28.8931V28.8933Z" fill="#D2B159"/>
<path fill-rule="evenodd" clip-rule="evenodd" d="M9.07983 25.3515C9.07983 25.3515 9.31868 25.733 9.90121 26.0941C10.4256 26.4117 11.2556 26.7001 11.9955 26.8719C12.4206 26.9739 12.8459 27.0524 13.2274 27.0584C14.2556 27.0728 14.9633 26.7788 15.8402 26.6826C16.315 26.6331 16.8975 26.5953 17.5033 26.4522C18.2809 26.2658 18.7411 26.0559 19.3674 25.761C19.8217 25.5513 20.2383 25.3941 20.576 25.1931C21.0508 24.9135 21.3974 24.6019 21.7994 24.5088C21.7499 24.6457 21.6975 24.8903 21.3014 25.1437C21.5111 25.1378 21.7994 25.1234 21.7994 25.1234C21.7994 25.1234 21.5199 25.2893 21.0276 25.6621C20.7246 25.8925 20.3228 26.2825 19.9121 26.5417C19.6469 26.7078 19.3586 26.8297 19.1692 26.9291C18.7084 27.1826 18.5226 27.3106 18.2198 27.6203C18.3275 27.6146 18.3363 27.6203 18.3363 27.6203C18.3363 27.6203 17.9546 27.6699 17.6811 27.8154C17.6235 27.8154 17.5236 27.7951 17.3489 27.8446C17.212 27.8882 17.0313 27.9874 16.8451 28.0397C16.5799 28.1184 16.4928 28.0834 16.4928 28.0834L16.5363 28.1708C16.5363 28.1708 16.1907 28.1649 16.0755 28.1766C16.0959 28.1823 16.0901 28.1912 16.0901 28.1912C16.0699 28.1945 16.0504 28.2014 16.0325 28.2115C15.9771 28.2474 15.9161 28.274 15.8521 28.29C15.8171 28.2958 15.7879 28.2958 15.7442 28.3046C15.7587 28.3396 15.8724 28.535 15.9248 28.6502C15.8812 28.6794 15.2258 29.1746 15.2258 29.1746C15.2461 29.2066 15.2627 29.2408 15.2753 29.2765C15.2956 29.3405 15.3045 29.4338 15.3248 29.4774C15.3742 29.5647 15.4034 29.5793 15.4034 29.5793C15.4034 29.5793 15.3248 29.5939 15.1877 29.6289C15.0714 29.658 14.9285 29.7074 14.7269 29.7366C14.6651 29.7446 14.6029 29.7495 14.5405 29.7512C14.5697 29.8153 14.6978 30.0599 14.4618 30.3423C14.2258 30.6248 14.153 30.6658 14.0803 30.8463C14.0437 30.8186 14.0047 30.7942 13.9637 30.7734C13.8852 30.7384 13.7773 30.6862 13.7395 30.6161C13.7174 30.7095 13.6882 30.801 13.6521 30.8899C13.5794 31.085 13.4716 31.2774 13.4513 31.4229C13.3726 31.3355 13.227 31.1637 13.026 31.1986C12.825 31.2336 12.6649 31.5074 12.6299 31.5861C12.6299 31.5366 12.595 31.4987 12.5863 31.5569C12.5804 31.621 12.4698 32.2907 11.8523 32.8326C11.8466 32.6957 11.8466 32.3927 11.832 32.2938C11.7744 32.3514 11.7039 32.4365 11.2844 32.6171C10.8737 32.7976 10.9388 32.9783 10.9388 32.9783C10.9388 32.9783 10.9038 32.6903 11.1252 32.3869C11.3495 32.0841 11.4864 31.9413 11.4864 31.9181C11.4827 31.8944 11.4726 31.8722 11.4572 31.8539C11.428 31.8248 11.3698 31.7898 11.3698 31.7666C11.4048 31.7522 11.7513 31.5861 11.731 31.2422C11.7106 30.9337 11.5797 30.7734 11.4864 30.6599C11.472 30.6453 11.6235 30.5376 11.6029 30.5026C11.5883 30.4823 11.4021 30.3452 11.3787 30.2722C11.3842 30.2287 11.3939 30.1858 11.4078 30.1442C11.4282 30.0801 11.4428 30.0363 11.437 29.9927C11.4224 29.9199 11.3437 29.7189 11.3205 29.6985C11.3408 29.7043 11.4864 29.6985 11.4864 29.6985C11.4864 29.6985 11.37 29.5121 11.3495 29.4248C11.3289 29.3374 11.2853 29.1072 11.2621 29.0636C11.3116 29.0694 11.4339 29.078 11.4339 29.0636C11.4399 29.0198 11.3262 28.9471 11.3763 28.8908C11.4113 28.8966 11.4783 28.9257 11.5422 29.0073C11.5073 28.914 11.4491 28.7336 11.3266 28.6608C11.3842 28.6404 11.5801 28.5878 11.7519 28.6898C11.9237 28.7917 11.9823 28.9344 11.9823 28.9344C11.9823 28.9344 12.0842 29.0131 12.2417 29.1297C12.4222 29.2723 12.6522 29.4753 13.0193 29.6189C13.098 29.6626 13.2988 29.6626 13.4446 29.6335C13.508 29.6183 13.5689 29.5938 13.6251 29.5607C13.6453 29.5487 13.6668 29.539 13.6892 29.5315C13.6579 29.4687 13.6219 29.4083 13.5815 29.3508C13.631 29.3508 13.6892 29.3568 13.6892 29.3568C13.6892 29.3568 13.7241 29.2781 13.5669 29.1264C13.6018 29.0914 13.6456 29.0688 13.6456 29.0098C13.5961 29.0041 13.5087 28.9313 13.4883 28.9021C13.5173 28.8818 13.5611 28.8148 13.6107 28.7944C13.5669 28.7595 13.4592 28.6137 13.4096 28.5993C13.4569 28.5818 13.5027 28.5603 13.5465 28.5352C13.5465 28.5352 13.3019 28.4711 13.2232 28.4187C13.1445 28.3611 13.0281 28.2614 12.9582 28.2322C12.8853 28.2031 12.7572 28.1887 12.7048 28.1303C12.7541 28.1449 12.8329 28.1303 12.8912 28.1303C12.9348 28.1303 12.9554 28.1361 12.9698 28.1361C12.964 28.1157 12.964 28.0719 13.0777 28.0575C13.1323 28.0493 13.1854 28.0326 13.2349 28.008C13.2349 28.008 13.127 28.0022 13.0045 27.8857C12.882 27.7691 12.7803 27.676 12.7104 27.6614C12.6376 27.6468 12.5007 27.711 12.4162 27.705C12.2997 27.6906 12.2501 27.6322 12.2501 27.6322C12.2501 27.6322 11.8629 27.6672 11.0037 27.143C10.2608 26.6886 9.9375 26.2867 9.9375 26.2867C9.86798 26.2615 9.80078 26.2303 9.73667 26.1934C9.45711 26.0479 9.06966 25.7449 9.08137 25.3486L9.07983 25.3515Z" fill="#C2A44D"/>
<path fill-rule="evenodd" clip-rule="evenodd" d="M19.7954 7.86989C19.8627 7.89178 19.9226 7.93216 19.9682 7.98644C20.1051 8.14369 20.1924 8.44071 19.8808 8.75828C20.0031 8.80186 20.0536 8.81588 20.1604 8.80186C20.0526 8.93012 19.808 9.20391 19.7934 9.44276C19.7788 9.63783 19.9012 9.6962 19.9012 9.6962C19.9012 9.6962 19.7147 9.91162 19.7061 10.2722C19.7941 10.1729 19.8905 10.0813 19.9941 9.99841C20.2097 9.82657 20.5067 9.63149 20.7077 9.50919C20.705 9.56045 20.7119 9.61177 20.7281 9.66049C20.7281 9.66049 21.1036 9.35175 21.4193 9.48884C21.562 9.55297 21.4978 9.7538 21.4978 9.7538C21.4978 9.7538 21.6931 9.68103 21.83 9.81793C21.9669 9.95482 22.1604 10.3079 22.2597 10.4448C22.3033 10.5089 22.4169 10.6312 22.5333 10.8205C22.6922 11.0856 22.825 11.3655 22.9296 11.6563C22.9353 11.5048 22.9732 11.2691 23.4044 11.4175C23.8354 11.569 24.3246 11.8865 24.7353 12.5119C25.146 13.1372 25.2478 13.8432 25.4546 14.112C25.6642 14.3712 25.8798 14.8022 25.8944 14.9829C25.909 15.1636 25.8303 15.7459 26.2613 17.3217C26.3836 16.8325 26.5701 15.7459 26.5701 15.7459L26.672 14.7877L26.7886 11.8226L23.6924 9.25037L21.272 7.49396L19.6963 7.64545L19.7952 7.8697L19.7954 7.86989Z" fill="#CAA13E"/>
<path fill-rule="evenodd" clip-rule="evenodd" d="M25.5478 12.2824C25.5478 12.2824 25.504 11.9944 24.776 11.5048C24.0477 11.0214 23.4798 11.0214 22.9556 10.6107C22.5536 10.2874 22.1342 9.54452 21.8612 9.29991C21.5961 9.05819 21.5525 8.35911 21.5525 8.35911L22.4466 7.61031L23.7764 5.6882L24.9006 4.45038L25.4393 5.19918L26.1881 6.07873L26.6046 7.84379L26.7561 10.4273L25.5465 12.2826L25.5478 12.2824Z" fill="#B59544"/>
<path fill-rule="evenodd" clip-rule="evenodd" d="M26.4479 15.3792C26.47 14.9874 26.4216 14.5948 26.3051 14.2201C26.1131 13.623 25.6936 12.5627 25.4987 12.1657C25.42 11.7258 25.4783 11.6909 25.5628 11.6413C25.6473 11.5918 25.9649 11.4109 26.1388 10.7764C26.3128 10.1418 26.8525 10.1211 26.8525 10.1211L27.1844 9.87646L27.6884 11.1375L28.1281 12.2765L28.265 13.1474L28.367 13.89L28.1281 15.46L26.9487 16.526L26.4477 15.3792H26.4479Z" fill="#C89D3A"/>
<path fill-rule="evenodd" clip-rule="evenodd" d="M9.98877 32.8779V32.8456C10.0133 32.8303 10.0349 32.8108 10.0527 32.788C10.0731 32.7588 10.0878 32.7239 10.1022 32.7153C10.1314 32.7007 10.2683 32.6577 10.3411 32.6715C10.4139 32.6853 10.6062 32.7646 10.7082 32.7588C10.9179 32.7531 11.1625 32.5928 11.5499 32.6657C12.1324 32.7734 12.2693 33.1695 12.6073 33.3938C12.8377 33.5512 13.0761 33.4812 13.1111 33.4812H13.1896C13.2042 33.4812 13.3119 33.3588 13.3703 33.3648C13.4868 33.3706 13.4983 33.4667 13.5711 33.4725C13.7429 33.4929 14.0751 33.3851 14.2412 33.4289C14.2904 33.4444 14.3352 33.4715 14.3717 33.5079C14.4082 33.5444 14.4354 33.5892 14.4508 33.6384C14.4858 33.7461 14.4566 33.883 14.3721 33.9617C14.1916 34.1276 14.0198 34.2851 13.9849 34.4225C14.0293 34.4564 14.072 34.4926 14.1127 34.5308C12.6716 34.1636 11.2851 33.6085 9.98877 32.8796V32.8779Z" fill="#CEB052"/>
<path fill-rule="evenodd" clip-rule="evenodd" d="M25.4983 27.0584C25.4983 27.0584 25.9526 26.4526 26.11 26.1525C26.2673 25.8432 25.612 21.9264 25.612 21.9264L26.9285 17.6129L26.8934 16.209C26.8934 16.209 26.9575 14.9128 27.109 14.3506C27.2896 14.674 27.8518 15.0643 27.9741 15.2711C28.0317 14.8748 28.2274 14.039 28.1984 13.1478C28.3061 13.3137 28.5653 14.9827 28.5653 14.9827L28.8245 16.1069L29.1624 17.3011L29.5382 18.5624L29.7624 19.4333L29.8905 19.6429L29.9984 20.0098L30.1003 20.4061L30.3945 21.3352L30.5673 22.0982L30.7042 23.4818C30.734 23.5877 30.7554 23.6958 30.7683 23.8051C30.7741 23.9566 30.748 24.044 30.748 24.0703C30.748 24.0966 30.7975 24.4022 30.7771 24.6324C30.748 24.8628 30.748 25.0431 30.5673 25.2084C30.3866 25.3737 30.2731 26.3618 30.2731 26.3618L29.9498 26.1464C29.9498 26.1464 30.0139 25.852 29.8624 25.5842C29.711 25.3163 29.4168 25.2609 29.2507 25.3046C29.0848 25.3396 28.7529 25.3918 28.645 25.4851C28.543 25.5782 28.2927 25.8666 28.0624 25.9978C27.7744 26.1705 27.3052 26.1842 27.0548 26.2424C26.8014 26.3 26.5218 26.4728 26.2275 26.6734C25.9967 26.8228 25.7531 26.9513 25.4994 27.0574L25.4983 27.0584Z" fill="#CCA847"/>
<path fill-rule="evenodd" clip-rule="evenodd" d="M25.4983 33.4224C25.4983 33.4224 25.5175 33.4349 25.5545 33.4552C27.6238 32.4858 29.4779 31.1115 31.0073 29.4136C30.9906 28.8242 30.9689 28.22 30.9451 27.9961C30.8958 27.5213 30.9307 27.0378 30.9161 26.7583C30.9016 26.4787 30.7443 25.3398 30.6715 25.0456C30.5928 24.7515 30.4411 24.6058 30.4181 24.6058C30.3977 24.6117 30.2752 25.1593 30.2752 25.297C30.2752 25.4346 30.2461 25.766 30.2461 25.8505C30.2257 25.8446 30.2171 25.7929 30.2171 25.7718C30.1879 25.8446 30.1529 25.9728 30.1384 25.9874C30.1238 26.002 30.1587 25.8651 30.1384 25.8359C30.118 25.8067 30.0808 25.8213 30.0888 25.7486C30.0923 25.7054 30.0991 25.6626 30.1092 25.6205C30.1092 25.6205 30.0218 25.7486 29.9579 26.0748C29.8937 26.3981 29.8937 26.4069 29.8705 26.4359C29.8502 26.4711 29.7336 26.5874 29.7277 26.6312C29.7219 26.7097 29.8356 26.7884 29.8442 26.832C29.85 26.905 29.7423 27.2427 29.7073 27.408C29.6724 27.5733 29.687 27.8972 29.6497 28.0633C29.6205 28.2148 29.5921 28.3022 29.4925 28.3661C29.5652 28.3807 29.6351 28.401 29.6351 28.401C29.6351 28.401 29.7371 28.8321 29.4779 29.1992C29.3848 29.3272 29.3615 29.3856 29.2624 29.5022C29.0672 29.7176 28.9157 29.963 28.9011 30.1225C28.891 30.0754 28.8842 30.0277 28.8808 29.9797C28.8808 29.9797 28.578 30.3322 28.4497 30.5332C28.2838 30.7924 28.0536 30.7778 27.9889 30.8419C27.9242 30.9061 27.9102 31.0224 27.9313 31.1157C27.8737 31.1301 27.7654 31.1507 27.6925 31.3749C27.6575 31.4913 27.5702 31.6053 27.4333 31.6837C27.2964 31.762 27.1303 31.7856 27.0458 31.806C27.1186 31.8263 27.1478 31.8263 27.1827 31.8495C27.1391 31.9223 26.9381 32.036 26.7138 32.1817C26.4896 32.3186 26.3817 32.5194 26.3264 32.6506C26.2688 32.7729 26.1837 32.8516 26.0468 32.8662C26.1044 32.9011 26.1897 32.9825 26.2333 33.0088C26.1691 33.0234 26.0605 33.0234 25.8664 33.1895C25.6624 33.3585 25.5926 33.408 25.4992 33.4226L25.4983 33.4224Z" fill="#C39D3C"/>
<path fill-rule="evenodd" clip-rule="evenodd" d="M21.4455 34.7721C21.5571 34.694 21.6779 34.6299 21.8052 34.5815C22.2594 34.401 22.74 34.366 22.9293 34.3079C23.11 34.2503 23.2526 34.1708 23.4769 34.1272C23.4709 34.1783 23.466 34.2263 23.4606 34.2716C22.7994 34.4794 22.1262 34.6466 21.4446 34.7721H21.4455Z" fill="#D2BA6B"/>
<path fill-rule="evenodd" clip-rule="evenodd" d="M29.8245 22.8234C29.8245 22.8234 29.7314 23.3272 29.5653 23.6448C29.3992 23.9623 29.2197 24.402 29.2197 24.402C29.2208 24.3029 29.2325 24.2043 29.2546 24.1077C29.045 24.23 28.5352 24.5243 28.3906 24.6553C28.2537 24.7776 28.0235 24.9932 27.9654 25.0951C28.1023 24.6933 28.2449 24.3321 28.2683 24.1661C28.0587 24.3175 27.0799 25.1243 26.5703 25.6573L24.9828 26.9418C24.7996 27.0406 24.611 27.129 24.4178 27.2064C24.1442 27.3227 23.8208 27.4218 23.582 27.5151C23.6461 27.3433 23.7479 27.1916 23.8907 27.0461C24.0422 26.9034 24.4965 26.4111 24.5664 26.1821C24.6305 25.9432 24.6451 25.8006 24.5606 25.5995C24.4819 25.6199 24.3014 25.6287 24.1791 25.6637C24.0568 25.6986 23.9257 25.8295 23.9257 25.8295C23.9257 25.8295 24.0188 25.2966 24.2198 24.7927C24.0683 24.7985 23.8091 24.8421 23.8091 24.8421C23.8091 24.8421 24.1703 24.2363 24.7883 23.8141C24.599 23.8544 24.4138 23.9119 24.235 23.9858C23.8738 24.1373 23.4777 24.3615 23.1836 24.4838C23.3495 24.2534 24.5145 22.5907 25.2079 21.0411C25.8991 19.4945 26.1573 19.0984 26.3088 18.2684C26.3873 17.8577 26.3664 17.2508 26.3873 16.7072C26.4077 16.1683 26.4747 15.6848 26.4311 15.3615C26.6116 15.5858 27.2874 16.2178 27.3106 17.6306C27.331 19.0431 26.6642 20.951 25.9563 21.979C26.1291 22.0285 26.5768 22.0869 27.0368 21.2878C27.4969 20.4887 27.4913 20.2656 27.6574 19.9334C27.6777 20.0995 27.6718 20.1577 27.6718 20.1577C27.6718 20.1577 28.3419 19.3451 28.6592 18.3227C28.7234 18.7626 28.9127 19.1501 28.6155 19.9568C28.3505 20.6849 28.0039 20.8627 28.0039 20.8627C28.0039 20.8627 28.1758 20.8335 28.429 20.682C28.4728 20.7897 28.4642 20.9124 28.5369 20.9558C28.6097 20.9992 28.7088 21.0724 28.7234 21.1422C28.8019 21.0257 28.9242 20.8771 28.9622 20.7665C28.933 20.9969 28.9127 22.0043 29.0198 22.517C29.2443 22.4966 29.4743 22.482 29.6315 22.0771C29.5238 22.4734 29.5238 22.712 29.5966 23.05C29.716 22.9686 29.8237 22.8228 29.8237 22.8228L29.8245 22.8234Z" fill="#C0993A"/>
<path fill-rule="evenodd" clip-rule="evenodd" d="M22.2566 6.76895C22.2566 6.76895 22.0324 6.86207 21.6509 6.86207C21.3189 6.86207 21.412 6.73401 20.8936 6.73401C20.0957 6.73401 17.3082 7.19481 16.8188 7.18828C16.5012 7.18252 17.8905 7.32518 17.8905 7.32518L21.4412 7.37471L22.1547 7.31711L22.4198 6.77759L22.2566 6.76895Z" fill="#A88F33"/>
<path fill-rule="evenodd" clip-rule="evenodd" d="M13.0498 13.7098C13.0498 13.7098 12.5953 14.0563 12.4031 14.3215C12.211 14.5866 12.109 14.7612 11.8905 14.9768C11.9418 14.9787 11.993 14.9718 12.042 14.9564C12.042 14.9564 12.042 15.014 12.007 15.0292C12.0372 15.0258 12.0678 15.0292 12.0965 15.0392C12.1252 15.0492 12.1513 15.0654 12.1729 15.0868C12.1088 15.1217 11.9341 15.2966 12.071 15.5034C12.1729 15.6607 12.3886 15.6751 12.3886 15.6751C12.3886 15.6751 12.339 15.8179 12.5458 15.8033C12.9914 15.783 13.4895 15.5877 13.7195 15.6372C13.9499 15.6948 14.0808 15.716 14.2438 15.9986C14.4166 16.2781 14.5672 16.3219 14.5672 16.3219C14.5672 16.3219 14.6691 16.0625 14.6459 15.6753C14.7295 15.4665 14.7758 15.2447 14.7828 15.02L14.6313 13.9044L13.9702 13.0685L13.1139 13.5433L13.0498 13.7092V13.7098Z" fill="#E3C571"/>
<path fill-rule="evenodd" clip-rule="evenodd" d="M13.8623 13.5437C13.8623 13.5437 13.9264 13.6952 14.1945 13.7096C14.1653 13.7737 14.1653 13.7825 14.1741 13.8319C14.1799 13.8814 14.1885 13.9542 14.1885 13.9542C14.218 13.9399 14.2447 13.9204 14.2672 13.8966C14.2818 13.9607 14.2526 14.0625 14.2672 14.1354C14.2762 14.1798 14.2909 14.2228 14.3108 14.2635C14.3151 14.2535 14.3199 14.2439 14.3254 14.2345C14.3312 14.2199 14.383 14.3918 14.5264 14.5225C14.5263 14.5024 14.5313 14.4826 14.5408 14.4649C14.543 14.5014 14.5551 14.5367 14.5758 14.5669C14.565 14.5617 14.5552 14.5549 14.5468 14.5465C14.5468 14.5465 14.5612 15.0073 14.6399 15.2456C14.6531 15.2302 14.6648 15.2136 14.6748 15.196C14.6748 15.1816 14.6691 15.3243 14.6545 15.4264C14.6341 15.5284 14.6487 15.671 14.6487 15.671C14.7012 15.6297 14.759 15.5954 14.8204 15.5691C14.9077 15.534 15.0508 15.4262 15.138 15.1874C15.1885 15.0521 15.2275 14.9128 15.2545 14.771C15.2827 14.8252 15.3021 14.8835 15.3121 14.9438C15.318 15.0165 15.4549 14.9787 15.4549 14.9787L15.4841 14.6611L15.6569 13.9417L15.8142 13.4961L16.5714 12.3166L17.9396 11.2629L19.1339 11.5367L20.1415 10.1678L18.4056 9.125L16.7628 9.29684L15.272 11.3618L14.0779 13.2348L13.8623 13.5435V13.5437Z" fill="#D8B65B"/>
<path fill-rule="evenodd" clip-rule="evenodd" d="M22.4662 10.5554C22.4662 10.5554 22.3643 10.5757 22.0701 10.7282C21.776 10.8806 21.5721 10.929 21.4584 11.1533C21.3447 11.3775 21.3361 11.5553 21.3361 11.5553C21.3361 11.5553 21.5371 11.468 21.6537 11.4388C21.776 11.4098 21.9129 11.4184 21.8983 11.468C21.8843 11.5019 21.8648 11.5334 21.8407 11.5611C21.8407 11.5611 22.0711 11.5553 22.0649 11.669C22.0588 11.7827 22.0213 11.9078 21.9778 11.9631C21.934 12.0207 21.7535 12.106 21.7332 12.173C21.6836 12.3099 21.7535 12.3156 21.7272 12.4262C21.7069 12.5341 21.6109 12.7438 21.2962 13.1107C20.9728 13.4778 20.8354 13.737 20.8354 13.737C20.8354 13.737 20.6781 13.4429 20.5965 13.1894C20.5389 13.2184 20.2296 13.3903 20.2296 13.3903L19.5131 10.8943L19.5275 10.7282C19.5275 10.7282 19.5916 10.6497 19.6062 10.5039C19.4985 10.469 19.4839 10.4398 19.341 10.3031C19.1982 10.1664 19.0818 10.0001 18.8432 9.88646C18.8082 9.82234 18.7645 9.73517 18.5897 9.70003C18.415 9.6649 18.3102 9.6361 18.3102 9.6361C18.3102 9.6361 18.4033 9.60096 18.4471 9.52819C18.3392 9.54278 18.252 9.57773 18.016 9.57197C17.7772 9.56602 17.7509 9.55738 17.6199 9.57773C17.489 9.59808 17.3319 9.65645 17.2734 9.45542C17.2093 9.40589 17.0724 9.44966 16.9558 9.62131C16.8393 9.79296 16.7986 9.93005 16.5743 9.99706C16.5585 10.0959 16.5239 10.1908 16.4724 10.2766C16.4082 10.3845 16.3063 10.4922 16.1694 10.6524C15.9538 10.9058 15.9887 11.3222 15.645 11.6398C15.2985 11.9572 15.7026 10.7601 15.7026 10.7601L16.256 9.43527L17.8317 7.89446L20.2784 7.72858L20.5172 8.99578L21.7115 9.40647L22.4658 10.5569L22.4662 10.5554Z" fill="#D3AE4D"/>
<path fill-rule="evenodd" clip-rule="evenodd" d="M22.8537 10.8349L21.8255 9.35248L21.1061 8.79895C21.1061 8.79895 20.5934 7.85546 20.5585 7.82627C20.5293 7.80592 20.0459 7.75351 19.7371 7.73315L19.7947 7.87581C19.8621 7.8977 19.922 7.93808 19.9675 7.99235C20.1044 8.1496 20.1918 8.44663 19.8802 8.76419C20.0025 8.80778 20.053 8.82179 20.1597 8.80778C20.052 8.93603 19.8074 9.20983 19.7928 9.44867C19.7782 9.64375 19.9005 9.70192 19.9005 9.70192C19.9005 9.70192 19.7141 9.91754 19.7054 10.2779C19.7935 10.1786 19.8898 10.087 19.9934 10.0041C20.2091 9.83133 20.5061 9.63703 20.7071 9.51472C20.7044 9.56605 20.7113 9.61743 20.7275 9.66621C20.7275 9.66621 21.103 9.35747 21.4187 9.49437C21.5613 9.5585 21.4972 9.75952 21.4972 9.75952C21.4972 9.75952 21.6925 9.68675 21.8293 9.82365C21.9662 9.96055 22.1613 10.3129 22.2604 10.45C22.304 10.5141 22.4176 10.6364 22.534 10.8255C22.693 11.0906 22.8257 11.3706 22.9303 11.6615C22.936 11.5449 22.9595 11.3819 23.1607 11.3819L22.8548 10.8343L22.8537 10.8349Z" fill="#CAA13E"/>
<path fill-rule="evenodd" clip-rule="evenodd" d="M7.44018 15.0467C7.44018 15.0467 7.36741 14.866 7.44018 14.5137C7.51295 14.1613 7.62661 13.9953 7.66443 13.4769C7.70226 12.9585 8.04018 12.3118 8.04018 12.3118L8.97503 11.8867L9.63627 12.0672L9.83135 12.9527L8.99538 13.4135C8.99538 13.4135 8.95179 13.6086 8.71583 13.7658C8.47986 13.9231 8.15365 14.0454 8.07512 14.2057C8.02818 14.3039 7.99392 14.4076 7.97317 14.5144C7.97317 14.5144 7.73432 14.4649 7.59167 14.6221C7.44018 14.7825 7.44594 14.9251 7.44018 15.0474V15.0467Z" fill="#F4EFC8"/>
<path fill-rule="evenodd" clip-rule="evenodd" d="M9.32755 14.8107C9.32755 14.8107 9.24883 14.8602 9.19065 14.9835C9.13305 14.8904 8.99539 14.3368 8.98963 13.8388C8.98387 13.3407 8.95411 13.2173 9.06931 13.0456C9.18451 12.874 9.63629 12.6931 9.57216 12.384C9.50803 12.0898 9.24 11.9675 8.91091 12.052C8.68051 12.1096 8.50905 12.5996 8.27021 12.8442C8.08953 13.0306 7.87411 13.0015 7.81593 13.1034C7.73721 13.2403 7.80998 13.3772 7.78675 13.4646C7.7808 13.4937 7.70803 13.651 7.57689 13.8403C7.31193 14.2218 6.86342 14.7608 6.80505 15.2442C6.82541 14.9704 6.81101 14.9647 6.88377 14.6617L6.84 14.5889L7.128 13.6452L7.31443 12.8676L7.73107 11.5655L8.46489 10.2345L9.17856 9.4364L9.92121 9.48594L10.0086 10.6015L10.4339 12.6958L11.328 13.7967L9.89491 14.7611L9.32697 14.8107H9.32755Z" fill="#EBCC73"/>
<path fill-rule="evenodd" clip-rule="evenodd" d="M9.77308 15.2064C9.77308 15.2064 9.65078 15.2356 9.607 15.2124C9.56322 15.1891 9.51983 15.1628 9.53423 15.1336C9.54863 15.1045 9.62735 15.0551 9.62735 15.0317C9.62897 15.0105 9.62227 14.9896 9.60869 14.9732C9.5951 14.9569 9.57569 14.9466 9.55458 14.9443C9.48758 14.9357 9.46722 14.9793 9.46722 14.9793C9.46722 14.9793 9.4031 14.9299 9.35087 14.9217C9.38177 14.9179 9.41286 14.9159 9.44399 14.9157C9.3635 14.8793 9.27812 14.8547 9.19055 14.843C9.26332 14.7994 9.40617 14.6711 9.49929 14.6711C9.59241 14.6711 9.65078 14.6567 9.63618 14.6072C9.62159 14.5576 9.54882 14.4849 9.4703 14.4557C9.49929 14.4207 9.51983 14.3683 9.44994 14.2253C9.37698 14.0826 9.40617 13.9864 9.42959 13.9517C9.44994 13.9079 9.52271 13.8294 9.55766 13.7798C9.5926 13.7303 9.62178 13.6633 9.67996 13.6284C9.70914 13.608 9.80226 13.5708 9.89558 13.5352C9.99753 13.5003 10.082 13.4565 10.1402 13.5003C10.2043 13.5439 10.1751 13.6022 10.1751 13.6022C10.1751 13.6022 10.3762 13.5293 10.5566 13.6226C10.7373 13.7098 11.1772 13.7653 11.1772 13.7653L11.3348 14.0828L10.2921 14.977L9.86102 15.1926L9.77366 15.207L9.77308 15.2064Z" fill="#E5C66B"/>
<path fill-rule="evenodd" clip-rule="evenodd" d="M11.2206 13.7447C11.2206 13.7447 10.8973 13.9603 10.8245 14.0389C10.8681 14.0448 10.9408 14.074 10.9117 14.1176C10.8767 14.1612 10.6671 14.3127 10.5505 14.4555C10.4282 14.5982 10.3117 14.7788 10.271 14.8662C10.2274 14.9447 9.89521 15.1749 9.78174 15.2039C10.0206 15.2039 10.5012 14.9098 10.6816 14.9098C10.6759 14.9971 10.7312 15.0962 10.8331 15.1049C10.9351 15.1135 11.2292 15.169 11.6253 14.9244C12.0214 14.6855 11.8905 14.5077 12.0564 14.3914C12.3739 14.1815 12.502 13.9951 12.6767 13.8787C12.8514 13.7624 12.9419 13.7359 12.9419 13.7359C12.9419 13.7359 12.9476 13.6485 12.9995 13.6574C13.0137 13.659 13.0271 13.6645 13.0384 13.6732C13.0497 13.6819 13.0584 13.6936 13.0636 13.7069C13.0636 13.7069 13.3666 13.4913 13.7548 13.4331C13.7457 13.4291 13.7385 13.4218 13.7344 13.4128C13.7344 13.4128 13.7634 13.3982 13.7694 13.3836C13.7694 13.3836 13.7897 13.3544 13.8043 13.369C13.8189 13.3836 13.8393 13.4913 13.8685 13.5351C13.9326 13.5059 14.0549 13.2321 14.0549 13.2321L14.3492 12.3904V11.6214L14.1188 11.6652L12.3908 12.399L11.3421 13.4855L11.2198 13.7447H11.2206Z" fill="#E6BD62"/>
<path fill-rule="evenodd" clip-rule="evenodd" d="M16.1954 9.97286C16.2888 9.95018 16.3784 9.91382 16.4613 9.86495C16.4263 9.95826 16.4263 10.0602 16.2748 10.2816C16.1234 10.503 16.1176 10.535 15.9953 10.765C15.873 11.0039 15.8584 11.3476 15.7419 11.4989C15.7941 11.4735 15.8501 11.4568 15.9077 11.4495C15.9077 11.4495 15.7914 11.5515 15.7419 11.6592C15.6923 11.7669 15.605 11.9912 15.3895 12.1282C15.1741 12.2653 14.9001 12.3525 14.606 12.6758C14.3116 12.9932 14.0089 13.3953 13.8572 13.5398C13.9359 13.4029 14.0436 13.1291 14.0728 12.9487C14.102 12.7682 14.0668 12.5524 14.1164 12.3137C14.1659 12.0751 14.1659 11.903 14.4044 11.4864C14.6428 11.0698 15.051 9.62226 15.051 9.62226L15.9306 9.34271L16.1957 9.9719L16.1954 9.97286Z" fill="#B6933F"/>
<path fill-rule="evenodd" clip-rule="evenodd" d="M15.5604 9.43987C15.5604 9.43987 15.2954 9.82137 15.2227 10.1593C15.1499 10.4972 15.2167 10.468 15.1731 10.6341C15.147 10.7354 15.147 10.8416 15.1731 10.9428C15.2649 10.795 15.3905 10.6712 15.5396 10.5815C15.7902 10.4302 15.9941 10.3223 16.1156 10.1942C16.2379 10.0573 16.3399 9.83308 16.6049 9.66124C16.4971 9.64665 16.3457 9.59712 16.3169 9.60364C16.4248 9.48134 16.7479 9.29491 17.0741 9.07065C17.3974 8.84025 17.3771 8.74732 17.9014 8.51731C17.7296 8.54649 17.648 8.50272 17.5051 8.51731C17.5627 8.395 17.7643 8.33664 17.9659 8.1358C18.1675 7.93497 17.8379 7.63776 17.8379 7.63776L16.3019 8.56684L15.5592 9.44064L15.5604 9.43987Z" fill="#C49937"/>
<path fill-rule="evenodd" clip-rule="evenodd" d="M11.3925 8.74656L11.4274 8.46701L11.8673 7.76218L12.3275 6.52435V4.83207L12.2926 3.85344L12.3653 3.21255L12.4206 3.00883L12.479 2.93011L12.8545 3.12519L13.3731 3.83002L13.4227 5.19034L12.9187 7.3369L11.4798 8.90688L11.3925 8.74656Z" fill="#DFC068"/>
<path fill-rule="evenodd" clip-rule="evenodd" d="M12.5372 2.8514C12.5372 2.8514 12.3068 2.85735 12.2577 3.81562C12.2085 4.77389 12.1847 5.2777 12.1497 5.75252C12.1148 6.22733 12.0334 6.51552 11.9925 6.79527C11.9516 7.07501 11.9284 7.45632 11.7974 7.68941C11.7398 7.79712 11.6168 8.13504 11.3284 8.38848C11.005 8.66804 10.522 8.8633 10.4488 8.87789C10.3206 8.90688 9.67103 8.97101 9.40607 9.11674C9.31295 9.16628 9.15263 9.22445 8.97503 9.39053C8.62251 9.70791 8.15365 10.2758 7.81573 10.9603C7.29733 11.9827 6.77893 14.8691 6.77893 14.8691L6.89547 14.674C6.89547 14.674 6.91007 14.4148 7.16927 13.9603C7.42271 13.5061 7.34994 12.9963 7.70226 12.1254C7.83915 11.7934 8.01099 11.3624 8.22066 10.9953C8.55282 10.3981 8.95467 9.88551 9.3596 9.60596C10.0207 9.15168 10.7489 9.05261 10.7489 9.05261L11.5325 8.53421C11.5325 8.53421 11.6694 8.26925 11.85 7.96628C12.1033 7.54119 12.426 7.06637 12.4965 6.37613C12.6044 5.35373 12.345 4.68384 12.3596 4.07808C12.3742 3.47232 12.38 3.02669 12.5025 2.91879C12.6249 2.81088 12.5374 2.85178 12.5374 2.85178L12.5372 2.8514Z" fill="#A88F33"/>
<path fill-rule="evenodd" clip-rule="evenodd" d="M12.5371 7.42424C12.5371 7.42424 12.8827 6.57368 13.0409 5.81932C13.0701 5.66783 13.1283 5.51653 13.1429 5.39423C13.2157 4.68056 13.236 4.38642 13.1429 3.99608C13.0701 3.70808 12.7906 3.4485 12.6448 3.24728C12.5022 3.03743 12.4352 2.95928 12.4644 2.91512C12.4935 2.87096 12.607 2.79877 12.7176 2.80741C12.8352 2.81083 12.9508 2.83813 13.0575 2.88764C13.1642 2.93715 13.2596 3.00784 13.3381 3.09541C13.5624 3.35461 13.74 4.23436 13.74 4.23436L13.9268 5.39519L14.4016 6.85727L12.5375 7.4254L12.5371 7.42424Z" fill="#C99E3D"/>
<path fill-rule="evenodd" clip-rule="evenodd" d="M15.7846 6.53897C15.7846 6.53897 15.7205 6.56797 15.6041 6.53897C15.6091 6.58652 15.6008 6.63452 15.5803 6.67768C15.5597 6.72083 15.5276 6.75748 15.4876 6.78358C15.3653 6.73405 14.2204 6.83312 14.2204 6.83312C14.2204 6.83312 13.6874 6.73981 13.5213 6.03497C13.4049 5.56592 13.6087 4.91945 13.5416 4.49417C13.4397 3.86787 13.297 3.74537 13.2824 3.55049C13.2679 3.35561 13.2533 3.30589 13.2533 3.18358C13.1891 3.16899 13.1513 3.14864 13.0874 3.14864C13.0728 3.09104 13.1018 3.04073 13.0378 2.93878C13.0728 2.95337 13.3116 2.98256 13.5912 3.24752C13.8216 3.46313 13.8216 3.54166 13.8563 3.58544C13.8999 3.62902 14.2524 3.93104 14.4039 4.23209C14.5554 4.53315 14.8496 5.49315 14.9166 5.6504C14.9369 5.71453 14.9807 5.77865 15.0894 5.92419C15.2583 6.13405 15.5058 6.48099 15.7854 6.53859L15.7846 6.53897Z" fill="#B58634"/>
<path fill-rule="evenodd" clip-rule="evenodd" d="M13.8975 3.59998C14.0739 3.885 14.2324 4.18074 14.3721 4.48548C14.5439 4.87274 14.6459 5.19031 14.8615 5.44951C14.7449 5.11178 14.5382 4.44766 14.4159 4.21169C14.279 3.96209 13.9994 3.69329 13.8975 3.60017V3.59998Z" fill="#A88F33"/>
<path fill-rule="evenodd" clip-rule="evenodd" d="M11.9168 8.3885C11.9168 8.3885 11.6226 8.46127 11.0751 8.74965C10.8944 8.84277 10.7227 8.9213 10.5567 8.99426C10.1252 9.18933 9.66251 9.36962 9.29541 9.46907C9.32459 9.50402 9.33899 9.51842 9.33899 9.51842C9.33899 9.51842 9.33899 9.66127 9.41771 9.74267C9.37413 9.78645 8.79141 10.1825 8.96344 11.5077C9.07979 11.4641 9.21669 11.4058 9.23704 11.4058C9.27217 11.4117 9.28082 11.5077 9.3244 11.5077C9.36798 11.5077 9.51083 11.4501 9.66232 11.2543C9.65656 11.333 9.5692 12.1252 10.0381 12.6582C10.1254 12.5562 10.3468 12.2183 10.3468 12.2183L10.3526 12.1106C10.3526 12.1106 10.3729 11.7349 10.4954 11.3912C10.6179 11.0475 10.8566 10.7941 10.8566 10.7941L12.1028 9.01442L11.9164 8.38831L11.9168 8.3885Z" fill="#E6C367"/>
<path fill-rule="evenodd" clip-rule="evenodd" d="M10.7517 11.0016C10.6947 11.0419 10.6318 11.0733 10.5653 11.0947C10.545 11.022 10.5158 10.7714 10.6876 10.5268C10.8886 10.2325 11.3283 9.85096 11.4506 9.5476C11.5293 9.35233 11.4944 8.86312 12.1935 8.23681C12.8925 7.61051 13.1661 7.39508 13.1661 7.39508L14.2963 6.82715L15.6856 7.37473L14.9953 10.08L14.4595 11.3472L12.3283 10.9454L10.7515 11.0016H10.7517Z" fill="#DCBA5A"/>
<path fill-rule="evenodd" clip-rule="evenodd" d="M11.5653 10.267L11.8305 9.93505V9.69908C11.8305 9.69908 12.1246 9.62036 12.442 9.29704C12.7594 8.97371 13.1992 8.35336 13.5867 8.39118C13.9741 8.43496 14.012 9.23291 14.0266 9.45736C14.0411 9.6818 14.0907 10.1912 14.1692 10.4652C14.2566 10.739 13.2255 11.7758 13.2255 11.7758L12.5253 12.3087L11.5653 10.267Z" fill="#E9CE77"/>
<path fill-rule="evenodd" clip-rule="evenodd" d="M12.3856 13.0311C12.3856 13.0311 12.6012 12.6931 12.4432 12.6204C12.5363 12.4107 12.7082 12.1893 12.7082 12.1893C12.7082 12.1893 12.8305 11.8865 13.2266 11.5137C13.6227 11.1408 13.8675 10.8931 13.9316 10.6428C13.9711 10.4796 13.9926 10.3126 13.9957 10.1447C14.0386 10.1797 14.0844 10.2109 14.1326 10.2378C14.1968 10.267 14.4995 10.5174 14.456 11.0214C14.4124 11.5254 14.2256 11.7351 14.2256 11.7351C14.2256 11.7351 14.0451 11.9155 13.917 12.0088C13.7799 12.102 13.7306 12.2097 13.5004 12.2185C13.524 12.1997 13.5506 12.1849 13.5791 12.1747C13.5791 12.1747 13.3402 12.1457 13.212 12.2621C13.0837 12.3784 12.8111 12.7369 12.6742 12.8448C12.5373 12.9322 12.3862 13.0312 12.3862 13.0312L12.3856 13.0311Z" fill="#CDAE50"/>
<path fill-rule="evenodd" clip-rule="evenodd" d="M22.0701 7.3659C21.726 7.24048 21.3644 7.16974 20.9984 7.15623C20.3867 7.13588 19.4925 7.17083 18.6159 7.17659C17.6722 7.18235 16.8159 6.85326 15.6276 6.79508C15.4325 6.67854 14.9364 6.16878 13.3877 7.24935C13.4808 7.24359 14.512 7.01051 14.8701 7.45921C15.2313 7.90484 15.1293 8.66209 15.08 8.84257C14.9867 9.24462 14.6837 9.83002 14.5616 10.2407C14.4395 10.6514 14.4683 10.8672 14.3809 11.1552C14.2936 11.4432 14.1014 11.5862 14.2148 11.9182C14.3663 11.8251 14.4452 11.8251 14.6983 11.2572C14.9513 10.6892 14.8993 10.2843 15.3188 9.80372C15.7295 9.32026 16.4132 8.65902 16.6732 8.49294C16.9332 8.32686 18.9974 7.25511 21.1587 8.27751C21.68 8.22222 22.0703 7.36571 22.0703 7.36571L22.0701 7.3659Z" fill="#D2A83E"/>
<path fill-rule="evenodd" clip-rule="evenodd" d="M14.2584 6.96957C14.2563 6.94768 14.2515 6.92615 14.244 6.90544C14.2238 6.86285 14.1973 6.82356 14.1653 6.7889C14.1653 6.7889 13.6527 6.69578 13.3935 6.72477C12.939 6.77431 12.5283 7.33648 12.3361 7.62487C12.1439 7.91325 11.9051 8.35869 11.6459 8.5889C11.6487 8.56647 11.6436 8.54376 11.6313 8.52477C11.6313 8.52477 11.6459 8.54512 11.6169 8.57431C11.5879 8.60349 11.5877 8.61789 11.6023 8.63191L11.6461 8.67549C11.6605 8.67549 12.0625 8.49482 12.6101 7.98429C13.1926 7.4513 13.6383 7.17789 13.8714 7.0842C13.9957 7.03137 14.1256 6.99291 14.2586 6.96957H14.2584Z" fill="#C29637"/>
<path fill-rule="evenodd" clip-rule="evenodd" d="M24.2023 4.77966C24.2023 4.77966 24.109 4.89601 23.9925 5.02427C23.7333 5.29806 23.3953 5.60661 23.107 5.92417C22.8334 6.22715 22.5246 6.46312 22.1779 6.85922C21.8311 7.25531 21.4291 7.69499 21.3273 7.82325C21.2342 7.9515 21.1614 8.16117 21.1614 8.26888C21.1119 8.23394 21.0537 8.19611 21.0537 8.19611C21.0782 8.24184 21.1075 8.28483 21.1411 8.32437C21.2138 8.42632 21.3273 8.55477 21.3857 8.6331C21.4573 8.73283 21.5087 8.8456 21.537 8.96507C21.5719 8.97083 21.7962 9.01461 22.0759 8.55438C22.3557 8.09416 22.7224 7.59035 22.7224 7.59035L23.3049 6.7252L23.672 5.99137L24.1328 5.17L24.2029 4.77966H24.2023Z" fill="#AC8132"/>
<path fill-rule="evenodd" clip-rule="evenodd" d="M24.7995 4.19135C24.7995 4.19135 24.4469 4.47935 24.31 4.65215C24.1731 4.82495 23.8492 5.27845 23.8492 5.27845L23.9658 5.26386L24.5571 4.7397L24.7875 4.32901L24.7993 4.19211L24.7995 4.19135Z" fill="#A88F33"/>
<path fill-rule="evenodd" clip-rule="evenodd" d="M24.6915 27.3379C24.6915 27.3379 24.6857 27.099 24.8197 26.9564C24.9566 26.8135 25.3032 26.6039 25.6411 25.8174C25.979 25.031 26.0167 24.8534 26.0167 24.8534C26.0167 24.8534 25.4109 25.3718 25.0375 25.4941C25.1248 25.3134 25.1744 25.1854 25.2181 25.0921C25.1686 25.0485 24.9589 24.999 24.9386 24.9757C25.0549 24.8592 25.1191 24.5737 25.355 24.3844C25.658 24.154 26.2113 23.7581 26.6414 23.4052C27.0715 23.0523 27.9171 22.2315 28.025 21.9926C28.0891 22.0857 28.1035 22.1439 28.1035 22.1439C28.1035 22.1439 27.6784 22.6974 27.457 23.0498C27.2618 23.3527 27.2764 23.5246 27.2764 23.5246L27.6784 23.3518C27.6784 23.3518 27.7948 23.7828 27.2677 24.4383C27.4981 24.351 27.5911 24.4034 27.722 24.3304C27.5064 24.4675 27.2094 24.6539 26.9298 25.1664C26.656 25.679 26.2832 26.2761 25.6542 26.6488C25.0425 27.042 24.6899 27.3362 24.6899 27.3362L24.6915 27.3379Z" fill="#A67A2E"/>
<path fill-rule="evenodd" clip-rule="evenodd" d="M23.1129 7.66905C23.1129 7.66905 22.8741 8.16691 22.8391 8.55436C22.8333 8.64767 22.8099 8.72044 22.8099 8.82815C22.8042 9.17471 22.8303 9.56217 22.7523 9.74265C22.7231 9.66988 22.7085 9.62035 22.6794 9.59135C22.6358 9.71366 22.5571 10.0952 22.4929 10.2378C22.4639 10.1447 22.3998 9.82137 22.4058 9.43987C22.4117 9.05836 22.4202 8.9854 22.4202 8.90687C22.4058 9.02323 22.327 9.18067 22.2979 9.27379C22.2543 9.19526 22.2047 9.09331 22.1464 9.00883C22.1114 9.06643 22.0678 9.15148 22.03 9.19526C22.0241 9.16031 22.0097 9.067 22.0008 8.93606C21.9951 8.78457 21.9862 8.5895 21.9951 8.5486C22.0095 8.47007 22.132 8.16134 22.3912 7.87871C22.6999 7.54079 23.0175 6.89145 23.1106 6.69043C23.2037 6.4894 23.5998 5.65363 23.5998 5.65363H23.9028L23.4629 6.65548C23.4629 6.65548 23.198 7.20307 23.0611 7.40428C22.9242 7.6055 22.6358 8.18207 22.5075 8.40633C22.6006 8.28403 22.6794 8.2199 22.7727 8.10335C22.8629 8.02175 23.1133 7.66943 23.1133 7.66943L23.1129 7.66905Z" fill="#8C6228"/>
<path fill-rule="evenodd" clip-rule="evenodd" d="M24.8052 4.15332C24.7557 4.30564 24.6775 4.44707 24.5748 4.56996C24.3941 4.78558 24.0066 5.07377 23.8175 5.30378C23.6447 5.52804 23.2991 6.13975 23.4562 6.86494C23.5138 6.70769 23.6222 6.39607 23.9106 6.04356C24.199 5.69105 24.5077 5.28631 24.6594 4.97182C24.8107 4.65425 24.8311 4.40388 24.8311 4.40388L24.8887 4.33111L24.8537 4.16503L24.8042 4.15332H24.8052Z" fill="#CBA94C"/>
<path fill-rule="evenodd" clip-rule="evenodd" d="M30.7032 23.4728C30.7032 23.4728 30.5867 23.1554 30.5518 22.867C30.5168 22.5786 30.6094 22.5214 30.5022 22.1914C30.4381 21.9903 30.3217 22.0186 30.2926 21.9903C30.2634 21.9621 30.243 21.6584 30.2488 21.4923C30.2545 21.3262 30.243 21.1108 30.2138 21.0175C30.1703 20.9825 30.1411 20.9534 30.0769 20.7379C30.0042 20.5223 29.9692 20.4146 29.9343 20.3507C29.8993 20.2867 29.7972 20.2284 29.7972 20.1642C29.7972 20.036 29.9137 19.9692 29.9137 19.9338C29.908 19.8611 29.8206 19.9194 29.7972 19.8989C29.7682 19.8639 29.8702 19.6543 29.8323 19.6251C29.8177 19.6107 29.7158 19.733 29.6895 19.6981C29.6603 19.6629 29.6254 19.3164 29.5729 19.0863C29.5236 18.8621 29.471 18.6991 29.4652 18.6321C29.4595 18.5679 29.0632 17.4378 28.9672 17.164C28.8898 16.9327 28.8247 16.6974 28.7721 16.4592C28.7429 16.3223 28.7226 16.0426 28.708 16.0718C28.6934 16.1009 28.7022 16.2436 28.6788 16.2378C28.6584 16.2319 28.5857 15.734 28.5624 15.6553C28.5421 15.5766 28.4196 15.3097 28.3896 15.1166C28.3605 14.9213 28.2965 14.4115 28.2528 14.065C28.209 13.7184 28.1886 13.5758 28.1886 13.489C28.1958 13.2767 28.1841 13.0642 28.1537 12.854C28.0961 12.4869 27.9809 12.0413 27.8799 11.7823C27.6848 11.2929 27.1662 10.0405 27.0735 9.72884C27.0735 9.65012 27.1754 9.6939 27.1754 9.6939C27.1754 9.6939 27.4287 10.3288 27.6151 10.8181C27.7958 11.3075 27.9676 11.7385 28.0114 11.7823C28.0463 11.8259 28.3201 12.3064 28.4424 13.0929C28.5648 13.8793 28.6083 14.6045 28.6813 15.0879C28.7162 15.3183 28.7454 15.5628 28.8182 15.8074C28.8967 16.0725 29.019 16.3463 29.1793 16.7656C29.3162 17.1182 29.4182 17.4123 29.4735 17.6657C29.5376 17.9891 29.5376 18.2337 29.5754 18.394C29.6106 18.5309 29.6628 18.8045 29.7853 19.2004C29.9078 19.5963 30.0881 20.1063 30.2104 20.4236C30.4494 21.0586 30.556 21.5887 30.5921 21.8713C30.624 22.1626 30.7319 23.1704 30.7027 23.4732L30.7032 23.4728Z" fill="#A88F33"/>
<path fill-rule="evenodd" clip-rule="evenodd" d="M24.8198 4.1184L24.8052 4.15334C24.8052 4.15334 24.8488 4.16794 24.8401 4.2263C24.8407 4.30616 24.8359 4.38596 24.8255 4.46515C24.8111 4.5671 24.7819 4.64563 24.7762 4.70976C24.7762 4.84666 24.7965 5.0039 24.6034 5.39424C24.5458 5.50195 24.5103 5.59507 24.4811 5.6592C24.4083 5.81645 24.3937 5.83987 24.3296 5.91264C24.4315 5.85504 24.7986 5.62464 24.9849 5.6592C24.8568 5.73197 24.6616 5.87482 24.5393 6.06125C24.5684 6.06701 24.6907 6.09043 24.8849 6.06125C25.2082 6.01171 25.5693 5.89517 25.8867 5.9184C26.2335 5.93875 26.0966 5.50195 26.0966 5.50195L25.6964 4.6224L24.9392 4.0896L24.8198 4.11859V4.1184Z" fill="#BE9C44"/>
<path fill-rule="evenodd" clip-rule="evenodd" d="M26.7945 10.7069C26.7945 10.7069 26.4566 10.3689 26.3197 9.20926C26.1828 8.0442 26.2119 6.32926 26.2119 6.32926L25.9382 5.65937C25.9382 5.65937 25.8806 5.21374 25.7371 5.04785C25.5937 4.88196 25.312 4.60222 25.1838 4.46532C25.0555 4.32843 24.91 4.14199 24.8226 4.11281C24.8662 4.04004 25.0615 3.62935 25.8099 3.62359C26.5583 3.61783 26.7891 4.03428 26.8672 4.18577C26.9454 4.33726 27.2983 4.99217 27.4292 6.24017C27.5515 7.48663 27.5575 7.57995 27.5371 8.01099C27.5225 8.24983 27.4438 8.80318 27.3067 9.39435C27.1815 9.89547 27.0446 10.4548 26.7941 10.708L26.7945 10.7069Z" fill="#A17C34"/>
<path fill-rule="evenodd" clip-rule="evenodd" d="M25.7349 11.7001C25.8475 11.7082 25.96 11.6829 26.0582 11.6272C26.1659 11.6214 26.5563 11.6709 26.8562 11.2894C26.8765 11.3766 26.9291 11.6128 26.792 11.8224C26.865 11.7495 26.9727 11.7205 26.9873 11.7001C26.9931 11.8078 27.095 12.1398 26.664 12.9466C26.7803 12.8185 26.9172 12.8243 27.0395 12.8097C27.0455 12.9612 27.1269 13.4707 26.9115 13.7447C26.7688 13.9312 26.5357 13.8728 26.5357 13.8728C26.5391 13.8321 26.5391 13.7912 26.5357 13.7505C26.53 13.6718 26.5008 13.5932 26.5213 13.5408C26.4087 13.4894 26.3061 13.4183 26.2183 13.331C25.9649 13.0921 25.6358 12.6845 25.6126 12.3815C25.5834 12.0436 25.8864 11.9708 25.8864 11.9708C25.861 11.9481 25.8393 11.9216 25.8222 11.8921C25.8076 11.8428 25.7931 11.7641 25.7349 11.7001Z" fill="#8C6228"/>
<path fill-rule="evenodd" clip-rule="evenodd" d="M23.4885 8.03599C23.4885 8.03599 23.4739 8.01563 23.3954 8.10875C23.41 8.01563 23.4246 7.92808 23.4303 7.8436C23.4675 7.76539 23.5156 7.69286 23.5732 7.62818C23.5294 7.71535 23.5002 7.79407 23.5002 7.79407C23.5002 7.79407 23.6081 7.59304 23.7654 7.47074C23.8731 7.38338 24.01 7.34267 24.0682 7.26107C24.1323 7.17371 24.1177 7.15912 24.1323 7.14453C24.1323 7.14453 24.2751 7.05141 24.4936 6.77743C24.5226 6.74248 24.5664 6.70466 24.5956 6.66971C24.6449 6.64936 24.7615 6.59695 24.8984 6.52687C25.0412 6.44834 25.2013 6.34063 25.3004 6.29647C25.4955 6.20911 25.7025 6.21794 25.7985 6.08085C25.8712 6.0605 25.9498 5.842 25.9354 5.65576C26.0431 5.69935 26.5964 6.04303 26.7859 6.79451C26.9228 7.32751 26.678 8.14888 26.5761 8.54517C26.4741 8.94146 26.4597 9.23541 26.3169 9.41589C26.1362 9.65493 25.5538 9.99189 25.411 10.1587C25.2887 10.2956 24.9218 10.6422 24.9362 10.8926C24.9508 11.079 25.1808 11.1806 25.2305 11.2159C25.2802 11.2512 25.2799 11.2946 25.3732 11.2735C25.4665 11.2524 25.5012 11.2094 25.5393 11.2094C25.5828 11.2151 25.5828 11.224 25.6032 11.224C25.618 11.2235 25.6326 11.2215 25.647 11.218C25.647 11.218 25.6324 11.4832 25.012 11.5636C24.9682 11.5696 24.9247 11.584 24.8692 11.5928C24.9421 11.5578 24.9857 11.5578 25.0644 11.4501C24.9771 11.4355 24.7265 11.4209 24.6624 11.4006C24.6827 11.3657 24.7498 11.2723 24.805 11.2288C24.8546 11.1852 24.7993 11.1712 24.7557 11.1938C24.6807 11.2449 24.6087 11.3003 24.5401 11.3597C24.4673 11.4238 24.4032 11.5112 24.2866 11.5901C24.2517 11.4736 24.2575 11.2522 24.3946 11.0921C24.3594 11.0978 24.2924 11.1998 24.2285 11.1794C24.2169 11.0732 24.2238 10.9657 24.2488 10.8618C24.2838 10.7307 24.4731 10.5007 24.4731 10.5007L25.3876 8.86658L25.5826 7.62875L23.4885 8.0356V8.03599Z" fill="#92723A"/>
<path fill-rule="evenodd" clip-rule="evenodd" d="M23.4391 8.10583C23.4391 8.10583 23.3896 8.14077 23.4886 8.20778C23.4741 8.22813 23.4391 8.3009 23.3953 8.35044C23.346 8.40804 23.2934 8.44375 23.273 8.49329C23.2294 8.59524 23.1945 8.66513 23.1945 8.7089C23.1945 8.75268 23.1799 9.03223 23.0576 9.21271C23.0138 9.27684 22.9643 9.38455 22.9293 9.45732C22.8566 9.58538 22.7925 9.68772 22.7779 9.74532C22.7489 9.84727 22.7285 10.1268 22.7285 10.1268C22.7285 10.1268 22.7926 10.0481 22.8159 10.0191C22.7807 10.0919 22.7429 10.1704 22.6876 10.2288C22.7226 10.1996 22.8245 10.1268 22.9964 9.97533C23.2352 9.7745 23.6081 9.43658 24.0625 9.16893C23.9254 9.21847 23.8091 9.21847 23.716 9.23306C23.7887 9.16029 24.444 8.39133 24.7877 8.31857C24.8086 8.29211 24.819 8.25889 24.8169 8.22525L24.5226 8.19626L23.9254 8.32433L23.8383 7.86353L23.4391 8.10525V8.10583Z" fill="#B18E3E"/>
<path fill-rule="evenodd" clip-rule="evenodd" d="M24.3887 10.7273C24.3887 10.7273 24.31 10.8058 24.2372 11.001C24.1812 10.9425 24.1332 10.8769 24.0944 10.8058C23.9867 10.6253 23.8208 10.3951 23.4333 10.5262C23.4276 10.4039 23.4187 10.3398 23.4333 10.2524C23.4975 10.238 23.6925 10.0808 23.8876 9.85058C24.0247 9.69334 24.1528 9.51266 24.2401 9.28265C24.2977 9.23887 24.3974 9.1661 24.5281 9.08162C24.7146 8.95356 24.9388 8.77865 24.9738 8.58358C24.8864 8.61852 24.7 8.70588 24.4202 8.69148C24.5281 8.64194 24.694 8.58953 24.6737 8.37391C24.7174 8.34473 24.7524 8.32438 24.7524 8.32438C24.7195 8.31343 24.685 8.30848 24.6504 8.30978C24.6445 8.28943 24.6358 8.26044 24.5863 8.27484C24.5368 8.28924 24.5287 8.28943 24.5222 8.30978C24.5018 8.31574 24.4348 8.30978 24.3853 8.34492C24.3357 8.38006 24.1988 8.49622 24.1464 8.51657C24.1668 8.48162 24.1958 8.4294 24.1958 8.4294C24.1958 8.4294 24.0531 8.4438 23.9512 8.487C23.7647 8.55113 23.5493 8.66767 23.3308 8.78114C23.3512 8.7462 23.36 8.72354 23.3744 8.71702C23.3888 8.71049 23.4239 8.70262 23.4239 8.69666C23.4239 8.69071 23.4095 8.63906 23.4182 8.61814C23.4835 8.47975 23.5606 8.34723 23.6486 8.22204C23.7505 8.08495 23.7709 7.88988 23.7709 7.88988L24.2165 7.66562L25.4689 7.37762L26.2817 7.42716L26.1797 7.98934L25.6997 8.97084L25.289 9.86498L24.82 10.4128L24.3889 10.7273H24.3887Z" fill="#543E26"/>
<path fill-rule="evenodd" clip-rule="evenodd" d="M26.4187 8.29442C26.4187 8.29442 25.9293 8.90018 25.7924 8.99349C25.8798 8.80706 26.4187 7.6973 26.6138 7.38856C26.5702 7.35362 26.5119 7.35362 26.6487 6.81256C26.5324 7.08616 26.4915 7.22901 26.3955 7.30178C26.2995 7.37454 26.2876 7.35131 26.2227 7.35131C26.235 7.32915 26.24 7.30371 26.2371 7.27854C26.2371 7.27854 25.8264 7.22901 25.5459 7.22901C25.2654 7.22901 24.7101 7.3805 24.4012 7.5028C24.1566 7.60475 24.0197 7.60475 23.9323 7.66869C23.845 7.74146 23.7954 7.82018 23.7517 7.84053C23.7167 7.86088 23.5508 7.9133 23.5128 7.96859C23.4779 8.02619 23.4197 8.0909 23.4197 8.10549C23.4197 8.12008 23.4051 8.14062 23.4489 8.12584C23.4633 8.12008 23.5712 8.06171 23.6935 7.98894C23.8594 7.89582 24.0604 7.78811 24.2061 7.72399C24.6226 7.55791 24.7537 7.58709 24.9399 7.55214C25.135 7.5172 25.4148 7.4356 25.601 7.4356C25.7874 7.42984 26.1399 7.4356 26.2215 7.45019C26.1866 7.47938 26.1574 7.51432 26.172 7.63662C26.172 7.67157 26.1428 7.70939 26.1144 7.79387C26.0272 8.03272 25.8612 8.42882 25.7688 8.62984C25.6407 8.90344 25.4952 9.13365 25.4232 9.2763C25.3512 9.41896 25.1928 9.7947 25.0359 9.99573C24.8791 10.1968 24.7971 10.3191 24.7479 10.3628C24.6988 10.4066 24.3459 10.6656 24.3722 10.7589C24.4363 10.7386 24.8413 10.5861 25.1352 10.2551C25.4292 9.92411 25.4877 9.72213 25.7177 9.54146C25.9478 9.36079 26.1284 9.058 26.2361 8.80763C26.3264 8.57455 26.306 8.50178 26.4195 8.29499L26.4187 8.29442Z" fill="#806031"/>
<path fill-rule="evenodd" clip-rule="evenodd" d="M15.8723 12.8156C15.8723 12.8156 15.8081 13.0806 15.6624 13.2117C15.5197 13.34 15.2663 13.4506 15.2373 13.6662C15.2024 13.8816 15.4908 13.9895 15.4908 13.9895C15.4908 13.9895 15.3333 14.2487 15.3333 14.4438C15.3333 14.6448 15.3276 14.6826 15.3479 14.8748C15.3248 14.8897 15.3052 14.9093 15.2903 14.9324C15.2903 14.9324 15.3047 15.1188 15.4476 15.2352C15.5904 15.3515 15.7125 15.4216 15.7853 15.3924C15.7964 15.4162 15.8061 15.4405 15.8145 15.4654C15.8145 15.4654 15.9224 15.1916 15.9951 14.9528C16.0679 14.7082 16.132 14.7429 16.161 14.4138C16.19 14.0847 16.5066 13.5197 16.5066 13.5197L16.7226 13.0368L16.3703 12.763L15.8723 12.8154V12.8156Z" fill="#B6903C"/>
<path fill-rule="evenodd" clip-rule="evenodd" d="M16.5275 13.2902C16.4548 13.3648 16.3878 13.4446 16.3268 13.5291C16.2337 13.6573 16.161 13.7737 16.0241 13.8234C15.8872 13.8731 15.7998 13.8727 15.8084 14.0098C15.8171 14.1469 15.9453 14.2049 16.0181 14.2748C16.0968 14.3476 16.161 14.4699 16.126 14.607C16.1696 14.5866 16.2483 14.5632 16.3211 14.4059C16.3939 14.2487 16.9028 13.2904 16.9028 13.2904H16.5275V13.2902Z" fill="#685026"/>
<path fill-rule="evenodd" clip-rule="evenodd" d="M18.5349 11.0796C18.5349 11.0796 18.5785 10.9632 18.5349 10.8787C18.4911 10.7914 18.2261 10.7622 18.095 10.6631C17.9581 10.5612 17.792 10.4903 17.6551 10.5351C17.6755 10.4855 17.7571 10.3776 17.6901 10.3544C17.6259 10.334 17.3873 10.4418 17.3232 10.4913C17.259 10.5408 17.1133 10.599 17.0843 10.6341C17.0553 10.6693 17.0056 10.7361 16.9764 10.7069C16.9472 10.6866 16.9328 10.6341 16.8833 10.6631C16.8338 10.6921 16.5953 10.8874 16.5513 11.0011C16.5074 11.1147 16.4085 11.3682 16.1115 11.6563C15.8144 11.9445 15.6862 12.1312 15.7735 12.2389C15.8609 12.3466 15.9018 12.2681 15.9164 12.3612C15.9276 12.4526 15.9227 12.5453 15.9018 12.635C15.8668 12.7865 15.8087 12.9291 15.8872 12.9583C16.0882 13.0224 16.2835 12.9007 16.3271 12.9379C16.4144 13.0165 16.2775 13.2991 16.4843 13.3544C16.6942 13.412 16.901 13.3049 16.901 13.3049L17.664 12.8942L18.398 12.5069L18.7735 11.7641L18.5721 11.1437L18.5337 11.0796H18.5349Z" fill="#D4B968"/>
<path fill-rule="evenodd" clip-rule="evenodd" d="M17.8149 12.8534C17.8149 12.8534 17.6866 12.6583 17.8441 12.4863C18.0015 12.3143 18.2256 12.2417 18.3129 12.134C18.2963 12.1135 18.274 12.0983 18.2488 12.0904C18.3068 11.9866 18.3953 11.9032 18.5022 11.8514C18.4586 11.8078 18.4003 11.7728 18.3363 11.7728C18.1935 11.7728 18.1059 11.8602 17.975 11.8602C17.8469 11.8602 17.8323 11.7961 17.8323 11.7961C17.8323 11.7961 18.048 11.7757 18.0274 11.6795C18.0071 11.5776 17.9698 11.5776 17.9698 11.5776C17.9698 11.5776 18.3863 11.4048 18.459 11.3126C18.5318 11.2205 18.5232 11.1116 18.5378 11.068C18.5871 11.068 18.8755 10.9165 18.992 10.9807C19.1086 11.0448 19.027 11.2195 19.027 11.2195C19.027 11.2195 19.3797 10.9543 19.5594 10.6944C19.7166 10.709 19.7898 10.5867 19.905 10.5867C20.0478 10.5867 20.2721 10.7817 20.3157 11.1982C20.3449 11.437 20.3884 11.5739 20.3449 11.9963C20.3245 12.2352 20.3303 12.7451 20.4025 12.9982C20.4518 13.1992 20.5683 13.1789 20.5683 13.1789C20.5505 13.2401 20.515 13.2948 20.4664 13.3361C20.3877 13.4089 20.379 13.6013 20.3877 13.674C20.3993 13.7272 20.4139 13.7797 20.4315 13.8313C20.4315 13.8313 20.3383 13.939 20.3149 14.0119C20.2946 14.0847 20.1986 14.1343 20.1285 14.1343C20.0584 14.1343 20.0935 14.1283 20.0004 14.1343C19.9073 14.1402 19.8781 14.1546 19.8197 14.1343C19.7614 14.1139 19.7178 14.0905 19.7412 13.9039C19.7616 13.7174 19.0218 13.2835 19.0218 13.2835L17.8122 12.8525L17.8149 12.8534Z" fill="#CCA849"/>
<path fill-rule="evenodd" clip-rule="evenodd" d="M16.4255 14.6941C16.4255 14.6941 16.6905 15.0466 17.7799 15.0466C18.2983 15.0466 18.479 14.9971 18.5863 14.9679C18.7028 14.9387 19.1396 14.7671 19.5795 14.2485C19.9756 13.7796 19.8882 13.5874 19.8882 13.5874L19.6578 13.5525L18.909 13.6544L16.6934 14.5981L16.4246 14.6941H16.4255Z" fill="#585136"/>
<path fill-rule="evenodd" clip-rule="evenodd" d="M17.2381 14.7815C17.2381 14.7815 16.2944 14.9913 16.2944 14.3942C16.2944 13.8117 16.877 13.2 17.0227 13.0923C17.1742 12.9844 17.5353 12.8619 17.5353 12.8619H18.4062L18.5721 13.3017L18.4994 14.2512L17.2381 14.7813V14.7815Z" fill="#252211"/>
<path fill-rule="evenodd" clip-rule="evenodd" d="M18.109 13.0399C18.109 13.0399 17.9286 12.8738 17.5179 13.0975C17.1072 13.3212 16.775 13.7887 16.7547 14.2132C16.7343 14.5888 17.0634 14.8685 17.5761 14.8831C17.9576 14.8975 18.1878 14.8539 18.3043 14.8255C18.2751 14.7906 18.1236 14.6012 18.1236 14.6012L18.1092 13.0401L18.109 13.0399Z" fill="#C3B378"/>
<path fill-rule="evenodd" clip-rule="evenodd" d="M17.9313 13.1328C17.9313 13.1328 17.8878 13.0979 17.7585 13.1678C17.6508 13.2254 17.4936 13.3776 17.3713 13.4853C17.2926 13.5495 17.243 13.5785 17.1985 13.628C17.0178 13.8436 16.8663 14.1961 16.9539 14.3708C17.0414 14.5456 17.3296 14.7466 18.0636 14.6097L17.9292 13.133L17.9313 13.1328Z" fill="#E6D89C"/>
<path fill-rule="evenodd" clip-rule="evenodd" d="M17.6925 13.4942C17.6925 13.4942 17.576 13.6748 17.576 13.9632C17.576 14.2574 17.742 14.7262 18.3538 14.7612C18.8226 14.7904 19.1371 14.0855 19.4779 13.8117C19.7371 13.6021 19.8944 13.5961 19.8944 13.5961C19.8944 13.5961 19.6294 13.3081 18.9217 12.9351C18.2226 12.5593 17.4391 12.5098 17.0138 13.0866C17.2148 13.072 17.8644 12.9059 17.8644 12.9059L18.1819 13.0078L17.6925 13.4944V13.4942Z" fill="#252211"/>
<path fill-rule="evenodd" clip-rule="evenodd" d="M18.607 13.8757C18.5866 13.8321 18.572 13.7737 18.6565 13.7593C18.741 13.7449 18.7788 13.7534 18.808 13.8169C18.8372 13.8805 18.8656 13.9334 18.8224 13.9598C18.7788 13.983 18.6652 13.9598 18.6068 13.8753L18.607 13.8757ZM18.4701 13.465C18.4701 13.465 18.4409 13.4853 18.4555 13.4446C18.4613 13.3953 18.4993 13.3077 18.5924 13.3283C18.6855 13.3488 18.6654 13.4506 18.65 13.4798C18.6346 13.5089 18.5569 13.5583 18.4985 13.5374C18.4911 13.5355 18.4843 13.5318 18.4785 13.5268C18.4728 13.5218 18.4683 13.5155 18.4655 13.5084C18.4626 13.5013 18.4615 13.4936 18.4622 13.486C18.4628 13.4784 18.4653 13.4711 18.4693 13.4646L18.4701 13.465Z" fill="#6F674D"/>
<path fill-rule="evenodd" clip-rule="evenodd" d="M10.5861 13.6512C10.5861 13.6512 10.8165 13.824 11.0841 13.8173C11.3491 13.8113 11.6899 13.5377 11.8471 13.3628C11.9402 13.2609 12.0199 13.1531 12.1063 13.0687C12.1793 12.9959 12.2286 12.9609 12.2636 12.9114C12.3131 12.8538 12.3655 12.7455 12.3918 12.7104C12.3277 12.7599 12.2346 12.8475 12.1384 12.9057C12.0453 12.9633 11.8442 13.0715 11.7626 13.1007C11.6841 13.1299 10.8685 13.5615 10.8685 13.5615L10.5861 13.6512Z" fill="#AC924C"/>
<path fill-rule="evenodd" clip-rule="evenodd" d="M10.9382 11.4991C10.9382 11.4991 11.0663 11.4117 11.314 11.3562C11.5528 11.2986 12.0334 11.2543 12.0334 11.2543L12.4295 11.4271L12.5867 12.0242L12.2987 12.6447L11.9318 12.8751L11.5152 12.2052L10.9392 11.5002L10.9382 11.4991Z" fill="#9F8E57"/>
<path fill-rule="evenodd" clip-rule="evenodd" d="M10.4198 12.0321L10.2827 12.1344C10.2827 12.1344 10.3179 12.0703 10.3468 11.8752C10.3758 11.6801 10.5275 11.2053 10.7489 10.9315C10.9703 10.6577 10.9645 10.6723 10.9645 10.6723C10.9441 10.6686 10.9232 10.6693 10.9031 10.6743C10.883 10.6793 10.8642 10.6885 10.848 10.7013C10.8771 10.6368 11.0636 10.4064 11.25 10.2912C11.4364 10.176 11.5092 10.1397 11.7043 10.2336C11.8994 10.3275 11.9489 10.3763 12.0917 10.3705C12.2346 10.3647 12.3567 10.2133 12.3567 10.2133C12.3567 10.2133 12.3859 10.3064 12.2782 10.522C12.1705 10.7376 11.7452 11.1773 11.7452 11.1773L10.8597 11.783L10.4198 12.0326V12.0321Z" fill="#EAC970"/>
<path fill-rule="evenodd" clip-rule="evenodd" d="M11.0749 11.4263C11.0749 11.4263 11.7158 11.5137 11.9108 11.3332C11.9166 11.3535 11.94 11.3535 11.94 11.3681C11.9384 11.3791 11.9333 11.3893 11.9254 11.3971C11.9466 11.3937 11.9681 11.3918 11.9896 11.3913C12.0152 11.399 12.0416 11.4039 12.0683 11.4059C12.0898 11.4055 12.1112 11.4035 12.1324 11.4C12.1304 11.4145 12.1255 11.4284 12.1179 11.4409C12.1104 11.4535 12.1004 11.4643 12.0886 11.4729C12.1178 11.4729 12.1462 11.4787 12.1462 11.5019C12.1462 11.5252 12.152 11.5953 12.117 11.6098C12.0881 11.6178 12.0573 11.6158 12.0297 11.6039C12.032 11.659 12.047 11.7129 12.0735 11.7613C12.1311 11.869 12.2539 11.9917 12.4191 11.9564C12.4191 11.9564 12.5062 12.1661 12.1393 12.6321C12.09 12.6962 12.0374 12.7835 11.9734 12.8563C11.9482 12.9114 11.9289 12.969 11.9158 13.0281C11.9158 13.0281 12.5364 12.7893 12.714 12.2446C12.8946 11.697 12.9296 11.1583 12.8946 10.6545C12.8887 10.5116 12.8655 10.4098 12.8305 10.3369C12.7432 10.1562 12.4984 10.1854 12.3995 10.2873C12.2566 10.4302 12.0178 10.7854 11.6858 11.03C11.3479 11.2746 11.3335 11.318 11.0741 11.4263H11.0749Z" fill="#D7BC6B"/>
<path fill-rule="evenodd" clip-rule="evenodd" d="M10.3061 12.2128C10.3061 12.2128 10.1838 12.2855 10.1196 12.5584C10.0555 12.8379 10.1772 13.1787 10.2477 13.2864C10.3182 13.3941 10.4781 13.6885 10.8099 13.7031C10.892 13.7026 10.9732 13.6858 11.0487 13.6535C11.1645 13.6004 11.2732 13.5329 11.3721 13.4525C11.5149 13.3448 11.6313 13.2517 11.6167 13.2428C11.5817 13.2282 10.7371 12.5292 10.7371 12.5292L10.4195 12.1747L10.3059 12.2131L10.3061 12.2128Z" fill="#585136"/>
<path fill-rule="evenodd" clip-rule="evenodd" d="M11.1045 13.3718C11.1045 13.3718 11.2763 13.3574 11.3782 13.2933C11.4802 13.2292 10.7811 12.5361 10.7811 12.5361L10.8307 13.2849L11.1045 13.3718Z" fill="#453A25"/>
<path fill-rule="evenodd" clip-rule="evenodd" d="M10.3614 12.1601C10.3614 12.1601 10.274 12.3262 10.274 12.37C10.2594 12.5126 10.3032 12.9611 10.3381 13.1038C10.3731 13.2553 10.5624 13.4853 10.8072 13.4853C10.9585 13.4853 11.1683 13.3922 11.1683 13.369C11.1683 13.3398 10.9527 13.3114 10.8945 13.2029C10.8596 13.1453 10.845 13.002 10.8369 12.8573C10.8312 12.7642 10.8312 12.6622 10.8661 12.6269C10.9449 12.5395 10.9593 12.289 10.9593 12.289L11.2388 11.7696H10.8711L10.4313 12.0434L10.3614 12.1601Z" fill="#84754B"/>
<path fill-rule="evenodd" clip-rule="evenodd" d="M10.2537 12.3204C10.2537 12.3204 10.5417 11.9389 10.8012 11.8514C11.0608 11.7638 11.177 11.8164 11.177 11.8164L11.0255 12.2039L10.8099 12.4427L10.8245 12.565C10.8245 12.565 10.7893 12.8884 11.005 13.1126C11.2206 13.3369 11.3807 13.3282 11.474 13.3282C11.5673 13.3282 11.8352 13.2495 11.9721 12.9262C12.0944 12.6234 12.1963 12.235 11.9517 11.8456C11.7127 11.4582 11.2905 11.4432 11.2089 11.4432C11.1273 11.4432 10.4866 11.4752 10.2537 12.3198V12.3204Z" fill="#252211"/>
<path fill-rule="evenodd" clip-rule="evenodd" d="M17.6487 13.6164C17.541 13.5669 17.643 13.2641 17.7507 13.1708C17.8584 13.0775 17.9953 12.97 18.2343 12.9552C18.3215 12.9494 18.406 13.0047 18.3916 13.0631C18.3712 13.1708 18.2198 13.3223 18.0829 13.43C17.8935 13.5786 17.771 13.6717 17.6487 13.6164Z" fill="#F7F7E7"/>
<path fill-rule="evenodd" clip-rule="evenodd" d="M11.8235 11.9651C11.9022 11.9593 12.0042 12.0227 12.0245 12.1079C12.0449 12.2011 11.975 12.3875 11.8235 12.3875C11.7012 12.3875 11.6371 12.236 11.6371 12.1924C11.6385 12.1566 11.6485 12.1216 11.6663 12.0905C11.672 12.0816 11.6866 11.9797 11.8235 11.9651Z" fill="#F8F6DE"/>
<path fill-rule="evenodd" clip-rule="evenodd" d="M10.6876 12.032C10.6876 12.032 10.4865 12.1252 10.3934 12.32C10.3269 12.4639 10.3068 12.625 10.3358 12.7808C10.3504 12.8536 10.4232 13.0341 10.4727 13.0982C10.5223 13.1623 10.5893 13.2061 10.6388 13.2002C10.6883 13.1942 10.7901 13.0633 10.7901 12.9847C10.7901 12.9062 10.7961 12.5741 10.8921 12.3934C10.9765 12.2129 10.6881 12.0322 10.6881 12.0322L10.6876 12.032Z" fill="#D4C38B"/>
<path fill-rule="evenodd" clip-rule="evenodd" d="M10.7168 12.0175C10.6819 12.0378 10.6237 12.067 10.6381 12.1048C10.6527 12.1398 10.775 12.1624 10.8188 12.2477C10.8683 12.335 10.8683 12.4282 10.8537 12.4719C10.8918 12.4539 10.9263 12.4292 10.9557 12.399C11.0198 12.3262 11.0983 12.2273 11.1653 12.2273C11.2091 12.2273 11.2527 12.2477 11.2936 12.2477C11.3577 12.2477 11.4217 12.2273 11.4305 12.1603C11.4449 12.073 11.3082 11.9942 11.2295 12.0088C11.2441 11.9512 11.2644 11.8662 11.2003 11.8078C11.1362 11.7494 10.9353 11.8516 10.8916 11.8808C10.8478 11.91 10.7168 12.0177 10.7168 12.0177V12.0175Z" fill="#E2D59D"/>
<path fill-rule="evenodd" clip-rule="evenodd" d="M15.345 18.1369L15.7761 18.0096L15.8984 18.0969C15.8984 18.0969 15.9855 18.2834 16.1226 18.3066C16.0788 18.3997 15.9652 18.4794 15.9711 18.5455C15.9771 18.6115 16.0353 18.662 16.0353 18.662C16.0353 18.662 15.6478 19.3027 16.411 19.9484C16.2303 20.0212 16.0003 20.1212 15.878 20.1788C15.9652 20.1992 16.1516 20.2364 16.2303 20.3071C16.309 20.3777 16.309 20.4002 16.3818 20.444C16.4546 20.4877 16.4982 20.5459 16.4838 20.572C16.4342 20.5428 16.2682 20.4557 16.2392 20.5371C16.2102 20.6185 15.5197 20.5866 15.5197 20.5866L14.3547 20.8109C14.3547 20.8109 14.3983 20.6943 14.276 20.5866C14.1333 20.4585 13.9586 20.5924 13.7722 20.4497C13.5275 20.2633 13.5187 20.0477 13.4402 19.9663C13.5187 19.9167 13.679 19.844 14.0605 19.7935C14.0459 19.7643 13.9964 19.6769 14.0256 19.5984C14.0605 19.4964 14.2061 19.4323 14.1625 19.3104C14.2266 19.2958 14.2556 19.2958 14.4159 19.0948C14.5674 18.8937 14.6605 18.8502 14.7771 18.8356C14.8936 18.821 14.9635 18.8356 15.1791 18.6345C15.3304 18.4919 15.2811 18.3696 15.2811 18.3696C15.2811 18.3696 15.38 18.3375 15.3452 18.1365L15.345 18.1369Z" fill="#CBAC5A"/>
<path fill-rule="evenodd" clip-rule="evenodd" d="M14.0722 18.2016C14.078 18.1724 14.1014 18.1579 14.2586 18.1724C14.4159 18.187 15.412 18.0793 15.6829 18.0647C15.9567 18.0444 16.9207 18.0588 17.3898 18.1579C17.8588 18.2569 18.3335 18.3735 18.5635 18.4316C18.7939 18.4958 18.8664 18.5188 18.8576 18.548C18.8519 18.5772 18.8 18.6056 18.7703 18.5975C18.7413 18.5918 17.9781 18.3587 17.7423 18.3095C17.5065 18.2604 16.6907 18.1289 16.2447 18.1367C15.8282 18.1427 15.6622 18.131 15.3098 18.1717C14.9573 18.2155 14.3748 18.2736 14.2001 18.2504C14.0273 18.23 14.063 18.23 14.0718 18.2009L14.0722 18.2016Z" fill="#D6BC6F"/>
<path fill-rule="evenodd" clip-rule="evenodd" d="M16.4167 20.4845C16.4167 20.4845 17.0139 20.8078 17.2295 21.2039C17.3867 21.498 17.1364 21.6438 17.1364 21.6438C17.1364 21.6438 17.4743 21.6438 17.4305 21.8302C17.4101 21.9465 16.848 22.261 16.4722 22.4271C16.0907 22.5932 16.1053 22.5846 15.9189 22.6136C15.7382 22.6427 15.243 22.556 15.1411 22.7009C15.0391 22.8459 15.0835 22.9952 15.1119 23.0185C15.1411 23.0388 15.3771 23.068 15.3771 23.068C15.3771 23.068 15.3275 23.2049 14.8383 23.2195C14.3491 23.2341 14.2266 23.2688 14.1974 23.3215C14.1682 23.3708 14.2905 23.3418 14.515 23.3791C14.7392 23.414 15.0537 23.4367 15.0537 23.4367C15.0537 23.4367 14.9518 23.524 14.6868 23.5939C14.3838 23.6724 13.909 23.7454 13.7664 23.8328C13.8391 23.8823 13.947 23.9551 13.9968 23.9608C13.8745 23.99 13.7024 24.0541 13.6734 24.0774C13.717 24.1065 13.7754 24.1415 13.7754 24.1415C13.7754 24.1415 13.5306 24.4356 13.3879 24.5086C13.2453 24.5816 12.4239 24.9629 12.1413 24.8901C11.4365 24.7037 11.3491 23.9318 11.1772 23.8736C10.918 23.7863 10.7957 23.9608 10.5655 23.8385C10.6675 23.7657 10.723 23.7222 10.8307 23.6726C10.7141 23.615 10.1113 23.2328 10.1113 23.2328C10.0482 23.0953 9.97824 22.9612 9.9016 22.8309C9.78506 22.6299 9.6136 22.3618 9.48496 22.1259C9.20541 21.6075 9.19082 21.3686 8.93738 21.0745C8.98115 21.0169 9.13245 21.0249 9.13245 21.0249L11.256 21.724L15.0213 21.8331L16.0005 20.4351L16.4169 20.4847L16.4167 20.4845Z" fill="#DFC677"/>
<path fill-rule="evenodd" clip-rule="evenodd" d="M10.8391 22.6165C10.8618 22.6418 10.8883 22.6634 10.9176 22.6806C10.9906 22.7301 11.0983 22.7885 11.1711 22.8757C11.2003 22.8321 11.273 22.7534 11.4015 22.8757C11.5299 22.998 11.6895 22.9108 11.7887 22.9398C11.8907 22.9749 11.8965 22.9893 11.8965 22.9893C11.8965 22.9893 11.9541 22.9398 12.0829 22.8874C12.1616 22.8582 12.2547 22.8378 12.3567 22.8088C12.4498 22.7885 12.5518 22.7593 12.6218 22.7593C12.686 22.8029 12.916 23.0473 13.8393 22.6865C14.7102 22.3486 14.911 22.3108 15.0568 22.363C15.0714 22.3281 15.086 22.2611 15.3102 22.2699C15.3102 22.1768 15.1238 21.8592 15.1238 21.8592L14.0956 21.5069H13.5333L11.8469 21.8156L10.9125 22.3488L10.8397 22.6176L10.8391 22.6165Z" fill="#C4A859"/>
<path fill-rule="evenodd" clip-rule="evenodd" d="M10.277 22.0253C10.277 22.0253 10.2973 22.1825 10.5304 22.3486C10.7608 22.5145 10.8332 22.6136 10.8332 22.6136C10.8332 22.6136 10.877 22.556 10.9119 22.4972C10.9469 22.4331 10.976 22.3603 11.0342 22.34C11.1508 22.2904 11.4157 22.3836 11.4741 22.369C11.5236 22.3546 11.509 22.2526 11.5615 22.2526C11.6838 22.2467 11.7623 22.3311 11.8061 22.3311C11.8498 22.3311 11.9574 22.3254 11.972 22.3022C11.9865 22.2789 11.9923 22.037 12.1584 21.9205C12.3391 21.7924 12.5604 21.8477 12.6192 21.8769C12.6192 21.9205 12.6249 22.0284 12.7415 22.0341C12.858 22.0399 12.8696 22.0195 12.9719 22.0545C13.0742 22.0894 13.1961 22.0487 13.2514 22.2204C13.301 22.206 13.4175 22.1914 13.3883 22.0253C13.4459 21.9817 13.4962 21.9525 13.6187 21.7807C13.6479 21.7371 13.6973 21.6876 13.7353 21.6234C13.8372 21.6234 13.9595 21.6031 14.1225 21.7457C14.073 21.7807 14.0438 21.8033 14.0294 21.8389C14.0721 21.8811 14.111 21.9269 14.1458 21.9758C14.1896 22.0334 14.2187 22.104 14.274 22.1186C14.3963 22.1535 14.5974 22.104 14.8216 22.1186C15.0372 22.1332 15.2177 22.2117 15.2964 22.2613C15.3256 22.2469 15.3256 22.2409 15.3984 22.2555C15.4712 22.2701 15.5264 22.2759 15.4479 22.1827C15.4915 22.2031 15.541 22.2469 15.5848 22.2031C15.6286 22.1593 15.6633 22.0954 15.7856 22.0808C15.908 22.0662 15.9517 22.0865 16.0013 21.9585C16.0654 21.8012 15.844 21.8012 15.844 21.8012C15.844 21.8012 15.946 21.7079 16.0596 21.5856C16.1965 21.4575 16.3538 21.2915 16.3916 21.0876C16.4557 20.7118 16.0888 20.6625 16.0888 20.6625L14.3092 21.2101L12.1334 21.1022L10.2781 22.0255L10.277 22.0253Z" fill="#927D49"/>
<path fill-rule="evenodd" clip-rule="evenodd" d="M8.67802 16.8845C8.67802 16.8845 8.62042 16.9572 8.5849 17.1291C8.54938 17.3009 8.56455 17.2806 8.53536 17.4029C8.50618 17.5252 8.14771 18.7427 8.28211 19.1533C8.41651 19.564 8.64922 19.7155 8.79475 20.0475C8.82394 20.1203 8.85235 20.164 8.86752 20.2282C8.91706 20.4436 8.87347 20.6097 8.93165 20.8253C8.952 20.898 9.00461 20.9825 9.08314 21.0699C9.25594 21.2504 9.5376 21.4222 9.65914 21.5445C9.83079 21.7252 10.0756 22.0923 10.3872 22.127C10.5533 22.1474 10.7892 22.0775 10.9843 21.9612C11.1571 21.8533 11.2639 21.702 11.4451 21.6156C11.5732 21.5514 11.7101 21.5282 11.8324 21.499C12.0858 21.4495 12.316 21.4414 12.4529 21.4698C12.6626 21.5136 13.1578 21.6651 13.4321 21.6651C13.6465 21.6616 13.8597 21.6323 14.0671 21.5777C14.4835 21.4554 14.9873 21.2456 15.3195 21.1524C15.5146 21.0948 15.6718 21.0797 15.8321 21.0447C16.1059 20.9806 16.3359 20.8932 16.4671 20.7272C16.3797 20.6252 16.272 20.468 15.6893 20.4737C15.0282 20.4883 14.265 20.8552 13.8893 20.9136C13.5135 20.972 13.3505 21.0213 12.931 20.8698C12.5197 20.7168 12.5061 20.6156 12.5061 20.6156C12.5061 20.6156 12.0743 20.3136 11.8936 19.5437C11.713 18.7738 11.8936 18.2127 12.3627 17.6796C12.485 17.5427 12.4558 17.4204 12.4558 17.4204C12.4558 17.4204 12.7645 17.0039 12.6801 16.614C12.5869 16.2265 11.9898 16.3052 11.9898 16.3052L8.67821 16.8845H8.67802Z" fill="#6E6342"/>
<path fill-rule="evenodd" clip-rule="evenodd" d="M9.17597 18.1807C9.15029 18.2289 9.13821 18.2833 9.14102 18.3379C9.14678 18.4164 9.17021 18.5184 9.40598 18.7486C9.60701 18.9494 9.56323 19.1737 9.56323 19.1737C9.56323 19.1737 9.66442 19.194 9.93898 19.0656C10.1546 18.9636 10.227 19.1443 10.227 19.1443C10.2897 19.1114 10.3578 19.0897 10.428 19.0802C10.4916 19.0743 10.5532 19.0547 10.6085 19.0226C10.6085 19.0226 10.8619 19.2818 11.0833 19.4041C11.2843 19.512 11.4009 19.5848 11.4999 19.512C11.5931 19.4479 11.5931 19.3167 11.5871 19.2586C11.564 19.2049 11.5347 19.154 11.4999 19.1071C11.4358 19.0139 11.3339 18.906 11.3271 18.8191C11.3125 18.6182 11.4786 18.3792 11.4435 18.321C11.4084 18.2628 11.2776 18.2482 10.9543 18.3648C10.6194 18.4754 9.17462 18.1812 9.17462 18.1812L9.17597 18.1807Z" fill="#39331F"/>
<path fill-rule="evenodd" clip-rule="evenodd" d="M9.93905 19.4826C9.93905 19.4826 9.77317 19.3254 9.83134 18.5622C9.90177 18.5611 9.97209 18.568 10.041 18.5825C10.041 18.5825 10.1314 19.1739 9.93905 19.4826Z" fill="#292311"/>
<path fill-rule="evenodd" clip-rule="evenodd" d="M8.75666 16.302C8.77981 16.2848 8.80128 16.2656 8.82079 16.2444C8.76319 16.3521 8.49727 16.7831 8.71289 17.4618C8.9285 18.1375 9.47013 18.6413 10.1371 18.6647C10.8042 18.6881 11.1547 18.3617 11.5556 17.8725C11.7129 17.6775 11.8936 17.4327 12.0537 17.2668C12.2925 17.0074 12.479 16.9346 12.479 16.6842C12.479 16.1716 11.9546 15.9414 11.1828 15.7114C10.4109 15.4814 9.71474 15.5098 9.35359 15.6672C9.00127 15.8389 8.84978 16.0195 8.75647 16.3022L8.75666 16.302Z" fill="#252211"/>
<path fill-rule="evenodd" clip-rule="evenodd" d="M11.2352 19.7127L11.2928 19.6835C11.2928 19.6835 11.3072 19.4531 11.4005 19.4592C11.4936 19.4738 11.5374 19.5963 11.5286 19.6399C11.5228 19.6835 11.4996 19.7564 11.4063 19.7476C11.284 19.7505 11.2346 19.7127 11.2346 19.7127H11.2352Z" fill="#3F3824"/>
<path fill-rule="evenodd" clip-rule="evenodd" d="M10.976 18.734C10.976 18.734 11.0336 18.7137 11.104 18.7836C11.1616 18.7836 11.4128 18.7544 11.4915 18.8039C11.5702 18.8534 11.5934 18.897 11.5934 18.897C11.5934 18.897 11.2993 18.9612 11.139 18.897C10.976 18.8417 10.976 18.734 10.976 18.734Z" fill="#2D2815"/>
<path fill-rule="evenodd" clip-rule="evenodd" d="M12.2722 18.7776C12.2722 18.763 12.1149 18.6553 11.9488 18.6201C11.9197 18.6144 11.9137 18.6347 11.8912 18.6347C11.8766 18.629 11.8709 18.5852 11.8709 18.5852L11.7764 18.6349C11.7764 18.6349 11.7618 18.6553 11.8114 18.6925C11.8549 18.7275 11.9279 18.7567 11.9483 18.8148C11.9686 18.873 11.9686 18.8934 11.9774 18.9022C11.9832 18.908 12.0852 18.9022 12.1347 18.873C12.1842 18.8438 12.2775 18.7962 12.2716 18.777L12.2722 18.7776Z" fill="#82764F"/>
<path fill-rule="evenodd" clip-rule="evenodd" d="M10.8013 19.369C10.8013 19.369 10.8303 19.1681 11.0255 19.1593C11.2264 19.1447 11.2644 19.3398 11.2644 19.3398L11.1478 19.4563C11.1478 19.4534 11.0605 19.3311 10.8022 19.369H10.8013Z" fill="#2D2816"/>
<path fill-rule="evenodd" clip-rule="evenodd" d="M12.0683 18.5038C12.0683 18.5038 11.9603 18.6203 11.7217 18.6553C11.7013 18.6261 11.6576 18.5679 11.7217 18.4748C11.7858 18.3817 11.8586 18.3525 11.9314 18.3815C11.9635 18.3867 11.9934 18.401 12.0177 18.4226C12.0419 18.4443 12.0595 18.4725 12.0683 18.5038Z" fill="#574F35"/>
<path fill-rule="evenodd" clip-rule="evenodd" d="M12.508 18.6467C12.5139 18.6175 12.4936 18.6117 12.508 18.5971C12.5224 18.5825 12.6013 18.5535 12.6159 18.5679C12.6216 18.5739 12.6159 18.5971 12.6159 18.6255C12.6159 18.654 12.6159 18.6831 12.6013 18.7041C12.5809 18.7333 12.5227 18.7478 12.4936 18.7392C12.4644 18.7306 12.4586 18.6897 12.4586 18.6816C12.473 18.6758 12.508 18.6613 12.508 18.6467ZM13.0052 18.3322C13.0052 18.3176 13.0548 18.2884 13.084 18.2884C13.1275 18.2884 13.1275 18.3233 13.1335 18.3322C13.1479 18.3379 13.1479 18.3262 13.1625 18.3525C13.1771 18.3788 13.1976 18.4253 13.1828 18.4545C13.1681 18.4837 13.1101 18.5038 13.0957 18.4981C13.0753 18.4835 13.0112 18.3525 13.0052 18.3322Z" fill="#82764F"/>
<path fill-rule="evenodd" clip-rule="evenodd" d="M12.0042 18.7137C12.0042 18.7137 12.0683 18.7281 12.1556 18.8011C12.1265 18.8214 12.0827 18.8446 12.0827 18.8446C12.0827 18.8446 12.0769 18.7776 12.0042 18.7135V18.7137Z" fill="#6E6342"/>
<path fill-rule="evenodd" clip-rule="evenodd" d="M11.8616 18.0728C11.847 18.0584 11.9051 18.0234 11.9401 18.0292C11.975 18.0349 11.9896 18.0584 12.0274 18.0641C12.0653 18.0699 12.0712 18.0495 12.085 18.0349C12.0989 18.0204 12.1492 18.0292 12.1578 18.0349C12.1632 18.0413 12.1681 18.0481 12.1724 18.0553C12.173 18.0442 12.1759 18.0334 12.1809 18.0235C12.1859 18.0136 12.1929 18.0048 12.2014 17.9977C12.2126 17.9895 12.2255 17.9839 12.2391 17.9814C12.2527 17.9789 12.2667 17.9794 12.2801 17.9831C12.2859 18.0035 12.3151 18.0762 12.3093 18.0908C12.3035 18.1054 12.2162 18.126 12.2014 18.1112C12.216 18.1463 12.2801 18.2191 12.2888 18.2335C12.2974 18.2479 12.2246 18.283 12.1956 18.2772C12.1549 18.2744 11.9044 18.1286 11.8608 18.0733L11.8616 18.0728ZM12.2431 17.5893C12.2377 17.5746 12.2274 17.5623 12.2139 17.5544C12.1935 17.5486 12.1265 17.5544 12.1265 17.5893C12.1265 17.6243 12.1841 17.8197 12.2488 17.9215C12.3218 18.0234 12.3711 18.1077 12.4207 18.1311C12.4362 18.1382 12.4539 18.1391 12.4701 18.1337C12.4863 18.1283 12.4998 18.117 12.508 18.102C12.5138 18.0874 12.5284 17.9796 12.5226 17.7262C12.5169 17.4728 12.508 17.2282 12.4934 17.2136C12.4788 17.199 12.4207 17.1992 12.4003 17.2282C12.38 17.2572 12.2488 17.5457 12.2429 17.5893H12.2431Z" fill="#585136"/>
<path fill-rule="evenodd" clip-rule="evenodd" d="M11.9838 19.0806C11.9838 19.0806 11.8818 19.0164 11.7827 19.0602C11.6896 19.104 11.6954 19.2758 11.6954 19.2758C11.7163 19.284 11.739 19.287 11.7613 19.2844C11.7837 19.2819 11.8051 19.2739 11.8236 19.2612C11.8878 19.2177 11.9692 19.1449 11.9838 19.0808V19.0806Z" fill="#574F35"/>
<path fill-rule="evenodd" clip-rule="evenodd" d="M12.176 19.3108C12.1702 19.2532 12.1184 19.2532 12.1184 19.2235C12.122 19.2092 12.1302 19.1966 12.1418 19.1876C12.1534 19.1786 12.1677 19.1738 12.1823 19.1739C12.2115 19.1739 12.2399 19.2089 12.2757 19.2315C12.3106 19.2519 12.363 19.2891 12.3688 19.3335C12.3745 19.3778 12.3112 19.4994 12.2407 19.4994C12.1702 19.4994 12.1912 19.3682 12.1766 19.31L12.176 19.3108ZM12.7382 19.2321C12.7382 19.2321 12.6216 19.267 12.6303 19.2321C12.6389 19.1971 12.6654 19.1885 12.7032 19.1885C12.7225 19.1684 12.7483 19.1559 12.776 19.1534C12.7919 19.1526 12.8074 19.1578 12.8196 19.168C12.8196 19.168 12.8983 19.133 12.9215 19.1534C12.9448 19.1737 12.9275 19.1737 12.9419 19.1971C12.9602 19.2231 12.9723 19.2531 12.977 19.2845C12.977 19.3077 12.8897 19.3573 12.8196 19.3486C12.7382 19.3312 12.7526 19.2467 12.7382 19.2321ZM13.4167 19.101C13.4167 19.101 13.4517 19.1213 13.4227 19.1447C13.4023 19.1651 13.3004 19.2023 13.2128 19.2089C13.1254 19.2089 13.0469 19.2233 13.0469 19.1943C13.0469 19.1653 13.1197 19.1069 13.1633 19.0923C13.172 19.0814 13.1831 19.0725 13.1958 19.0665C13.2084 19.0604 13.2222 19.0573 13.2362 19.0574C13.2712 19.0574 13.4079 19.0428 13.4459 19.037C13.4808 19.0311 13.51 19.0514 13.4895 19.0806C13.4808 19.101 13.4167 19.101 13.4167 19.101ZM13.6177 18.2016C13.6177 18.2016 13.574 18.2947 13.5246 18.2947C13.4751 18.289 13.4751 18.2744 13.4751 18.2598C13.4751 18.2395 13.5246 18.187 13.5187 18.1724C13.5043 18.1724 13.4691 18.1724 13.4751 18.1375C13.4751 18.1083 13.5246 18.0734 13.5682 18.0799C13.6011 18.0528 13.6421 18.0375 13.6847 18.0363C13.7343 18.0363 13.7779 18.0507 13.7779 18.0799C13.7779 18.1091 13.7203 18.173 13.6991 18.1878C13.6759 18.211 13.6467 18.2262 13.6177 18.2022V18.2016ZM12.9536 19.9229C12.9536 19.9229 12.896 19.9289 12.896 19.9579C12.896 19.9724 12.9104 19.9724 12.931 19.9638C12.9428 19.9631 12.9545 19.9611 12.9659 19.9579C12.9717 19.9638 12.9717 19.9928 13.0154 19.9928C13.0514 19.9879 13.086 19.9761 13.1174 19.9579C13.1523 19.9435 13.1815 19.9287 13.1815 19.9003C13.1669 19.8507 13.1377 19.8273 13.0942 19.8273C13.0718 19.8259 13.0495 19.8309 13.03 19.8419C13.03 19.8419 13.0154 19.8127 12.9659 19.8419C12.9164 19.8711 12.9221 19.8711 12.9367 19.8857C12.9628 19.9089 12.9542 19.9241 12.9542 19.9241L12.9536 19.9229ZM12.6245 20.2259C12.6245 20.2113 12.6973 20.1821 12.7176 20.1909C12.738 20.1967 12.7962 20.3073 12.7962 20.319C12.7962 20.3336 12.7234 20.3685 12.6942 20.3685C12.665 20.3685 12.6157 20.319 12.6157 20.3109C12.6157 20.3052 12.6506 20.2965 12.6506 20.2906C12.6593 20.2762 12.6245 20.2411 12.6245 20.2265V20.2259ZM12.3941 19.8006C12.4087 19.7948 12.4087 19.7803 12.4291 19.7657C12.4354 19.7614 12.4427 19.7587 12.4503 19.7577C12.4579 19.7567 12.4656 19.7575 12.4728 19.7599C12.478 19.7507 12.4851 19.7428 12.4937 19.7368C12.5022 19.7307 12.512 19.7266 12.5224 19.7248C12.5573 19.719 12.5865 19.7248 12.58 19.7394C12.58 19.7831 12.6092 19.8121 12.6092 19.8471C12.6092 19.882 12.5888 19.9258 12.516 19.955C12.4433 19.9753 12.3442 19.9753 12.3296 19.9696C12.315 19.9638 12.3004 19.9054 12.315 19.8763C12.3296 19.8471 12.3703 19.8152 12.3937 19.8006H12.3941Z" fill="#82764F"/>
<path fill-rule="evenodd" clip-rule="evenodd" d="M12.4868 19.8204C12.4868 19.8204 12.4373 19.8496 12.4373 19.8641C12.4329 19.8782 12.4309 19.893 12.4315 19.9077C12.4315 19.9164 12.4956 19.902 12.5043 19.8931C12.5071 19.8874 12.4868 19.8355 12.4868 19.8204Z" fill="#6E6342"/>
<path fill-rule="evenodd" clip-rule="evenodd" d="M12.0537 19.6834C12.0827 19.6894 12.1323 19.6834 12.1701 19.698C12.1993 19.7126 12.2196 19.7418 12.1904 19.7768C12.1613 19.8117 12.1328 19.8641 12.0681 19.8553C11.9954 19.8495 11.9255 19.8117 11.9255 19.7825C11.9243 19.7641 11.9267 19.7455 11.9327 19.728C11.9387 19.7105 11.9481 19.6944 11.9604 19.6806C11.9896 19.6573 12.004 19.6719 12.0535 19.6834H12.0537Z" fill="#585136"/>
<path fill-rule="evenodd" clip-rule="evenodd" d="M12.0187 19.7126C12.0187 19.7126 11.9256 19.7854 11.9022 19.8206C11.873 19.8555 11.7303 20.036 11.6867 20.0738C11.7012 20.0483 11.7177 20.0239 11.7361 20.001C11.6785 20.0379 11.6353 20.0934 11.6138 20.1583C11.5788 20.2662 11.8091 20.3244 11.9603 20.3681C12.1116 20.4119 12.1702 20.4257 12.1702 20.4257C12.1145 20.342 12.0667 20.2533 12.0274 20.1608C11.9698 20.0239 11.94 20.0093 11.9778 19.9452C12.007 19.881 12.0508 19.8374 12.0508 19.7879C12.0333 19.7418 12.0187 19.7126 12.0187 19.7126Z" fill="#574F35"/>
<path fill-rule="evenodd" clip-rule="evenodd" d="M8.69826 19.9428C8.71946 19.9467 8.74119 19.9467 8.76239 19.9428C8.80597 19.9369 9.26044 19.77 9.73525 19.8C10.0907 19.8215 10.443 19.8794 10.7866 19.9728C11.3838 20.13 12.1264 20.4416 12.607 20.6194C12.7351 20.6688 12.8604 20.7563 12.9526 20.7911C13.3197 20.9339 13.3341 20.9339 13.5497 20.9718C13.8032 21.0067 14.0624 20.9222 14.3333 20.864C14.6652 20.7911 15.2332 20.7561 15.7312 20.6834C15.8923 20.6611 16.0511 20.625 16.206 20.5757C16.206 20.5757 15.8099 20.9718 14.8603 21.1144C14.4765 21.1727 14.0864 21.1776 13.7012 21.129C13.3982 21.0998 13.1974 21.056 13.0459 21.0125C12.8741 20.9629 12.5216 20.8318 12.0876 20.7245C11.7847 20.6457 11.4467 20.5876 11.0595 20.5148C10.1041 20.3399 9.06728 20.1391 8.69788 19.944L8.69826 19.9428Z" fill="#252211"/>
<path fill-rule="evenodd" clip-rule="evenodd" d="M7.62638 18.1428C7.39598 18.3379 7.15157 18.5243 6.91291 18.7048L6.19349 19.2576C5.94888 19.4381 5.71003 19.6245 5.46523 19.8052C5.22043 19.9858 4.97601 20.1575 4.71643 20.3236C4.94683 20.1285 5.19125 19.9478 5.43585 19.7702C5.68046 19.5926 5.93409 19.4185 6.17006 19.2384L6.88949 18.6848C7.13697 18.5044 7.37582 18.3179 7.62638 18.1432V18.1428ZM6.35361 20.1817C6.35361 20.1817 6.61281 19.9661 6.93614 19.6633C7.338 19.2877 7.83029 18.8069 7.98753 18.7198L6.35342 20.1819L6.35361 20.1817Z" fill="#CFB66C"/>
<path fill-rule="evenodd" clip-rule="evenodd" d="M6.35364 20.1815C6.48189 20.0535 6.61879 19.9283 6.75569 19.8058L6.96535 19.6253C7.02948 19.5677 7.10244 19.503 7.16637 19.4389C7.29444 19.3108 7.41981 19.1737 7.54788 19.0428C7.61135 18.9769 7.67847 18.9147 7.7489 18.8563C7.78412 18.8252 7.82323 18.7987 7.86525 18.7776C7.90039 18.7573 7.93821 18.72 7.98756 18.7135C7.95857 18.7573 7.92362 18.7776 7.89444 18.8155C7.85949 18.8446 7.83031 18.8796 7.80132 18.9086C7.73719 18.9727 7.66442 19.0309 7.60029 19.0892C7.4634 19.2058 7.32074 19.3196 7.18385 19.4416C7.04695 19.5635 6.91889 19.695 6.7818 19.8173C6.63338 19.9427 6.49649 20.065 6.35364 20.1821V20.1815ZM8.09546 19.0165C8.09546 19.0165 7.14602 19.9458 6.95076 20.0971L8.09546 19.0165Z" fill="#CFB66C"/>
<path fill-rule="evenodd" clip-rule="evenodd" d="M8.09539 19.0165C8.00998 19.1153 7.9184 19.2087 7.82121 19.296L7.53321 19.5698C7.44009 19.6629 7.35254 19.7563 7.25366 19.8494C7.15171 19.9367 7.05859 20.0222 6.95068 20.1028L7.23024 19.829C7.32355 19.7359 7.4255 19.6574 7.52457 19.5641L7.80412 19.2903C7.90012 19.1943 7.99344 19.101 8.09539 19.0165ZM8.13897 19.5203C8.05146 19.7645 7.94833 20.0029 7.83024 20.234C7.58563 20.7234 7.21872 21.3349 7.0584 21.6467L8.13897 19.5203Z" fill="#CFB66C"/>
<path fill-rule="evenodd" clip-rule="evenodd" d="M8.13897 19.5204C8.13897 19.6282 8.10979 19.7215 8.07485 19.8146C8.04078 19.9078 8.00195 19.9992 7.95849 20.0884C7.91472 20.1757 7.86518 20.2691 7.81565 20.3535C7.76611 20.438 7.70794 20.5252 7.66416 20.6127L7.37002 21.1311C7.26806 21.3039 7.16899 21.4777 7.06128 21.6438C7.13405 21.4573 7.23312 21.2826 7.32643 21.1108C7.42838 20.938 7.5215 20.7652 7.61443 20.5864C7.6598 20.4974 7.70062 20.406 7.73674 20.3128C7.78032 20.2195 7.8239 20.1322 7.85904 20.0477C7.90262 19.9546 7.93757 19.867 7.98134 19.7827C8.03069 19.6923 8.07158 19.6049 8.13859 19.5204H8.13897Z" fill="#CFB66C"/>
<path fill-rule="evenodd" clip-rule="evenodd" d="M9.17602 21.9088C9.17602 21.9088 8.88802 22.2903 8.91682 22.7737C8.99535 22.5205 9.09442 22.133 9.17602 21.9088ZM9.44981 22.2912C9.44981 22.2912 9.34786 23.328 9.26338 23.8378C9.3828 23.2485 9.40604 23.2981 9.44981 22.2912ZM11.3575 23.899C11.3575 23.899 10.9265 25.1662 10.9177 25.5184C11.011 25.1562 11.1914 24.4165 11.3575 23.8981V23.899Z" fill="#DEC270"/>
<path fill-rule="evenodd" clip-rule="evenodd" d="M12.3654 21.8304C12.3654 21.8304 13.0644 22.9837 13.5888 23.9681C13.4469 23.4728 13.1205 22.5642 12.3654 21.8304Z" fill="#CBAF59"/>
<path fill-rule="evenodd" clip-rule="evenodd" d="M14.244 23.5283C14.6278 24.2067 14.974 24.9058 15.2808 25.6224C15.2226 25.1272 15.0652 24.2797 14.244 23.5283Z" fill="#E3C677"/>
<path fill-rule="evenodd" clip-rule="evenodd" d="M19.7664 25.2288C19.8827 25.156 20.1129 24.7598 20.3139 24.6609C20.5148 24.5589 20.6663 24.5386 20.8469 24.3376C21.0274 24.1277 21.0773 23.9996 21.4731 23.8337C22.0266 23.5947 21.6459 23.286 21.6459 23.286C21.7068 23.2261 21.772 23.1706 21.8409 23.1201C21.9838 23.0124 22.1497 22.8812 22.1353 22.651C22.1149 22.2638 22.0421 21.7016 21.7246 21.3754C22.0333 21.3112 22.6245 21.2677 22.9918 21.1745C23.4169 21.0666 23.6121 20.9152 23.6121 20.9152C23.6121 20.9152 23.3675 20.4987 23.7636 20.0794C24.1597 19.66 24.483 19.4095 24.7219 18.9404C24.4481 18.9055 24.0307 18.76 22.9655 19.1647C23.023 19.1917 23.0785 19.2229 23.1315 19.2578C23.1315 19.2578 22.4762 19.4385 22.2374 19.6395C21.8208 19.9918 21.7683 20.2802 21.317 20.4958C20.8656 20.7114 20.4111 20.6531 20.0355 20.8278C19.66 21.0025 19.6045 21.1511 19.4674 21.2152C19.4966 21.2502 19.4617 21.3084 19.517 21.3579C19.482 21.4074 19.2781 21.7394 19.0713 21.7394C19.0917 21.8181 19.2664 21.8763 19.2664 21.8763C19.2664 21.8763 19.1383 21.9696 18.8121 21.9928C18.978 22.1656 19.1354 22.354 19.5694 22.6278C19.5344 22.7006 19.3887 22.8085 19.4471 22.9454C19.5112 23.0823 19.6775 23.2687 20.3412 23.4202C20.0033 23.4346 19.6074 23.5133 19.074 23.4405C18.541 23.3764 18.4537 23.3386 18.1246 23.4202C18.1595 23.4551 18.2526 23.4551 18.3342 23.5482C18.2469 23.554 17.6993 23.4841 17.5129 23.7289C17.3178 23.9822 17.2333 24.3988 17.2479 24.6784C17.1459 24.7279 17.0469 24.8152 17.0964 24.9959C17.1459 25.1766 17.4051 25.2348 17.5712 25.3482C17.7371 25.4705 17.7517 25.5141 17.9091 25.4851C18.075 25.4502 18.3196 25.2843 18.4625 25.2843C18.6053 25.2843 18.7071 25.392 18.7071 25.392C18.7071 25.392 19.0946 25.2056 19.1324 25.2405C19.1673 25.2755 19.1381 25.4997 19.176 25.5347C19.2144 25.561 19.6508 25.3018 19.7673 25.2288H19.7664Z" fill="#ECD592"/>
</g>
<defs>
<clipPath id="clip0_45_760">
<rect width="36" height="36" fill="white" transform="translate(0.333252)"/>
</clipPath>
</defs>
</svg>
