<svg width="31" height="29" viewBox="0 0 31 29" fill="none" xmlns="http://www.w3.org/2000/svg">
<g id="Download 2">
<g id="Login">
<path id="Exclude" fill-rule="evenodd" clip-rule="evenodd" d="M30.3633 14.456L30.3633 22.09C30.3633 25.4044 27.6765 28.0912 24.3621 28.0912L6.90991 28.0912C3.59556 28.0912 0.90874 25.4044 0.90874 22.09L0.90874 14.456C0.908741 11.1417 3.59556 8.45485 6.90991 8.45485L9.7451 8.45485L15.329 8.45485L15.329 17.6911L13.1777 15.4348C12.7488 14.985 12.0366 14.968 11.5868 15.3969C11.137 15.8257 11.1201 16.538 11.5489 16.9877L14.6756 20.267C15.6515 21.2905 17.2569 21.2905 18.2328 20.267L21.3595 16.9877C21.7883 16.538 21.7713 15.8257 21.3216 15.3969C20.8718 14.968 20.1596 14.985 19.7307 15.4348L17.5794 17.6911L17.5794 8.45485L21.5269 8.45485L24.3621 8.45485C27.6765 8.45485 30.3633 11.1417 30.3633 14.456ZM17.5794 8.45485L17.5794 1.9094C17.5794 1.28796 17.0756 0.784179 16.4542 0.784179C15.8327 0.784179 15.329 1.28796 15.329 1.9094L15.329 8.45485L17.5794 8.45485Z" fill="white"/>
</g>
</g>
</svg>
