<svg width="37" height="36" viewBox="0 0 37 36" fill="none" xmlns="http://www.w3.org/2000/svg">
<g id="ethereum" clip-path="url(#clip0_45_727)">
<path id="Vector" d="M18.6666 35.4727C28.3165 35.4727 36.1393 27.6499 36.1393 18C36.1393 8.35012 28.3165 0.527344 18.6666 0.527344C9.01674 0.527344 1.19397 8.35012 1.19397 18C1.19397 27.6499 9.01674 35.4727 18.6666 35.4727Z" fill="#4956FC"/>
<path id="Vector_2" d="M25.2338 17.1647L24.1411 17.7848L18.5858 19.8816L12.0994 17.1647L18.5858 6.04968L25.2338 17.1647Z" fill="#FEFEFE"/>
<path id="Vector_3" d="M25.2338 17.1647L18.5858 20.9363L12.0994 17.1647L18.5858 14.1364L25.2338 17.1647Z" fill="#C0CBF8"/>
<path id="Vector_4" d="M25.2338 19.8169L18.5858 29.9503L12.0994 19.8169L18.5858 23.5878L25.2338 19.8169Z" fill="#FEFEFE"/>
<path id="Vector_5" d="M25.2338 19.8169L18.5858 29.9503V23.5877L25.2338 19.8169ZM25.2338 17.1647L24.1411 17.7848L18.5858 14.6081V6.04968L25.2338 17.1647Z" fill="#C0CBF8"/>
<path id="Vector_6" d="M25.2338 17.1647L18.5858 20.9363V14.1364L25.2338 17.1647Z" fill="#8095F0"/>
</g>
<defs>
<clipPath id="clip0_45_727">
<rect width="36" height="36" fill="white" transform="translate(0.666626)"/>
</clipPath>
</defs>
</svg>
