<svg width="36" height="37" viewBox="0 0 36 37" fill="none" xmlns="http://www.w3.org/2000/svg">
<path d="M18 35.9727C27.6499 35.9727 35.4727 28.1499 35.4727 18.5C35.4727 8.85012 27.6499 1.02734 18 1.02734C8.35012 1.02734 0.527344 8.85012 0.527344 18.5C0.527344 28.1499 8.35012 35.9727 18 35.9727Z" fill="white"/>
<path d="M18 12C18 11.4477 17.5506 10.9936 17.0026 11.0624C15.7738 11.2168 14.5928 11.6551 13.5554 12.3482C12.2398 13.2273 11.2145 14.4767 10.609 15.9385C10.0035 17.4003 9.84504 19.0089 10.1537 20.5607C10.4624 22.1126 11.2243 23.538 12.3431 24.6569C13.462 25.7757 14.8874 26.5376 16.4393 26.8463C17.9911 27.155 19.5997 26.9965 21.0615 26.391C22.5233 25.7855 23.7727 24.7602 24.6518 23.4446C25.3449 22.4072 25.7832 21.2262 25.9376 19.9974C26.0064 19.4494 25.5523 19 25 19H19.5C18.6716 19 18 18.3284 18 17.5V12Z" fill="#111517" stroke="#111517" stroke-width="1.5"/>
<path d="M21 10C21 9.44772 21.45 8.99268 21.9966 9.07131C22.5731 9.15423 23.1383 9.30896 23.6788 9.53284C24.5281 9.88463 25.2997 10.4002 25.9497 11.0503C26.5998 11.7003 27.1154 12.4719 27.4672 13.3212C27.691 13.8617 27.8458 14.4269 27.9287 15.0034C28.0073 15.55 27.5523 16 27 16L21.2 16C21.0895 16 21 15.9105 21 15.8V10Z" fill="#111517" stroke="#111517" stroke-width="1.5"/>
</svg>
