<svg width="81" height="80" viewBox="0 0 81 80" fill="none" xmlns="http://www.w3.org/2000/svg">
<circle cx="40.5" cy="40" r="40" fill="white" fill-opacity="0.05"/>
<path d="M39.6667 29C39.6667 27.9875 38.8427 27.1549 37.8381 27.2811C35.5852 27.5642 33.42 28.3678 31.5183 29.6385C29.1064 31.2501 27.2265 33.5407 26.1164 36.2207C25.0063 38.9006 24.7159 41.8496 25.2818 44.6947C25.8477 47.5397 27.2446 50.1531 29.2958 52.2043C31.3469 54.2554 33.9603 55.6523 36.8053 56.2182C39.6504 56.7841 42.5994 56.4937 45.2794 55.3836C47.9593 54.2735 50.25 52.3936 51.8616 49.9817C53.1323 48.08 53.9358 45.9148 54.2189 43.662C54.3451 42.6573 53.5125 41.8334 52.5 41.8334H42.4167C40.8979 41.8334 39.6667 40.6021 39.6667 39.0834V29Z" fill="white" stroke="white" stroke-width="2.75"/>
<path d="M45.1667 25.3333C45.1667 24.3208 45.9916 23.4866 46.9938 23.6307C48.0507 23.7828 49.0869 24.0664 50.0778 24.4769C51.6348 25.1218 53.0495 26.0671 54.2412 27.2588C55.4329 28.4505 56.3782 29.8652 57.0231 31.4222C57.4336 32.4131 57.7172 33.4493 57.8693 34.5062C58.0134 35.5084 57.1792 36.3333 56.1667 36.3333L45.5333 36.3333C45.3308 36.3333 45.1667 36.1692 45.1667 35.9667V25.3333Z" fill="white" stroke="white" stroke-width="2.75"/>
</svg>
