<svg width="26" height="18" viewBox="0 0 26 18" fill="none" xmlns="http://www.w3.org/2000/svg">
<g id="Eye">
<path id="Subtract" fill-rule="evenodd" clip-rule="evenodd" d="M13 0C7.55842 0 2.82463 3.02249 0.390077 7.4741C-0.130017 8.4251 -0.130026 9.5747 0.390053 10.5257C2.82457 14.9774 7.55843 18 13 18C18.4416 18 23.1754 14.9775 25.6099 10.5259C26.13 9.57491 26.13 8.42531 25.6099 7.4743C23.1754 3.02258 18.4416 0 13 0ZM13 6C11.3431 6 10 7.34315 10 9C10 10.6569 11.3431 12 13 12C13.9073 12 14.7205 11.5972 15.2706 10.9607C14.3559 10.7768 13.667 9.96887 13.667 9C13.667 8.03113 14.3559 7.22317 15.2706 7.03927C14.7205 6.40277 13.9073 6 13 6ZM8 9C8 6.23858 10.2386 4 13 4C15.7614 4 18 6.23858 18 9C18 11.7614 15.7614 14 13 14C10.2386 14 8 11.7614 8 9Z" fill="white"/>
</g>
</svg>
