<svg width="27" height="23" viewBox="0 0 27 23" fill="none" xmlns="http://www.w3.org/2000/svg">
<g id="Hide">
<path id="Subtract" fill-rule="evenodd" clip-rule="evenodd" d="M6.92726 18.9924C4.44785 17.674 2.40171 15.6512 1.05705 13.1923C0.536966 12.2413 0.536975 11.0917 1.05707 10.1407C3.49162 5.68911 8.22542 2.66663 13.667 2.66663C16.4101 2.66663 18.9733 3.43471 21.1529 4.76677L17.4835 8.43609C16.5664 7.35371 15.197 6.66665 13.6672 6.66665C10.9058 6.66665 8.66719 8.90523 8.66719 11.6667C8.66719 13.1965 9.35424 14.5658 10.4366 15.483L6.92726 18.9924ZM8.89295 19.8551C10.3865 20.3807 11.9933 20.6666 13.667 20.6666C19.1086 20.6666 23.8424 17.6441 26.2769 13.1925C26.797 12.2415 26.797 11.0919 26.2769 10.1409C25.3956 8.52933 24.2129 7.10503 22.8044 5.94363L18.4714 10.2766C18.5989 10.7179 18.6672 11.1843 18.6672 11.6667C18.6672 14.4281 16.4286 16.6667 13.6672 16.6667C13.1848 16.6667 12.7185 16.5984 12.2772 16.4709L8.89295 19.8551ZM13.6672 11.6667L11.5531 13.7952C11.006 13.2518 10.6672 12.4988 10.6672 11.6667C10.6672 10.0098 12.0103 8.66665 13.6672 8.66665C14.3505 8.66665 14.9804 8.89507 15.4847 9.27972L13.6672 11.6667Z" fill="white"/>
<path id="Line" d="M23.334 1.33338L3.33398 21.3334" stroke="white" stroke-width="2" stroke-linecap="round" stroke-linejoin="round"/>
</g>
</svg>
