<svg width="36" height="37" viewBox="0 0 36 37" fill="none" xmlns="http://www.w3.org/2000/svg">
<path d="M18 35.9727C27.6499 35.9727 35.4727 28.1499 35.4727 18.5C35.4727 8.85012 27.6499 1.02734 18 1.02734C8.35012 1.02734 0.527344 8.85012 0.527344 18.5C0.527344 28.1499 8.35012 35.9727 18 35.9727Z" fill="white"/>
<path d="M19.8154 17.4211C19.7049 17.4211 19.6154 17.3316 19.6154 17.2211V9.60383C19.6154 9.41125 19.3699 9.32994 19.2549 9.48445L11.5941 19.7804C11.3487 20.1103 11.5841 20.5789 11.9953 20.5789H16.1846C16.2951 20.5789 16.3846 20.6684 16.3846 20.7789V28.3962C16.3846 28.5888 16.6301 28.6701 16.7451 28.5156L24.4059 18.2196C24.6513 17.8897 24.4159 17.4211 24.0047 17.4211H19.8154Z" fill="#121117" stroke="#121117" stroke-width="1.5"/>
</svg>
