<svg width="140" height="35" viewBox="0 0 140 35" fill="none" xmlns="http://www.w3.org/2000/svg">
<path d="M6.16667 29C2.76091 29 0 26.1916 0 22.7273C0 19.2845 2.82858 16.4482 6.20197 16.4547C6.20803 16.4547 6.21315 16.45 6.2137 16.444C6.73783 10.5877 11.5783 6 17.4722 6C21.8968 6 25.7276 8.58538 27.5845 12.352C27.5867 12.3565 27.5917 12.3591 27.5967 12.3584C32.4557 11.6475 37 15.6048 37 20.6364C37 25.2555 33.3188 29 28.7778 29L6.16667 29Z" fill="white"/>
<path d="M60.9078 20.716H63.8358C63.0918 24.628 60.3558 26.812 56.3238 26.812C51.2358 26.812 48.2838 23.212 48.2838 17.74C48.2838 12.268 51.4038 8.788 56.4678 8.788C60.3318 8.788 63.0918 10.972 63.7878 14.884H60.8598C60.3078 12.508 58.6518 11.284 56.3718 11.284C53.6118 11.284 51.4278 13.54 51.4278 17.74C51.4278 21.964 53.5638 24.316 56.3478 24.316C58.7238 24.316 60.3558 23.116 60.9078 20.716ZM68.8659 9.1V26.5H66.0099V9.1H68.8659ZM73.9282 20.068C73.9282 23.044 75.5122 24.484 77.3362 24.484C79.1602 24.484 80.7442 23.044 80.7442 20.068C80.7442 17.092 79.1602 15.628 77.3362 15.628C75.5122 15.628 73.9282 17.092 73.9282 20.068ZM77.3362 13.3C80.4802 13.3 83.6962 15.412 83.6962 20.068C83.6962 24.748 80.4802 26.812 77.3362 26.812C74.1922 26.812 70.9762 24.748 70.9762 20.068C70.9762 15.412 74.1922 13.3 77.3362 13.3ZM93.7713 26.5V24.724C93.0273 26.068 91.7073 26.812 89.9553 26.812C86.8833 26.812 85.6353 24.796 85.6353 21.724V13.588H88.4913V21.028C88.4913 22.78 88.7313 24.484 90.8673 24.484C93.0033 24.484 93.7713 22.804 93.7713 20.476V13.588H96.6273V26.5H93.7713ZM108.17 15.316V9.1H111.026V26.5H108.17V24.796C107.402 26.068 106.058 26.812 104.33 26.812C101.258 26.812 98.7144 24.196 98.7144 20.044C98.7144 15.916 101.258 13.3 104.33 13.3C106.058 13.3 107.402 14.044 108.17 15.316ZM108.29 20.044C108.29 17.068 106.802 15.628 104.954 15.628C103.034 15.628 101.69 17.356 101.69 20.044C101.69 22.804 103.034 24.484 104.954 24.484C106.802 24.484 108.29 23.02 108.29 20.044ZM114.155 26.5V9.1H126.467V11.644H117.203V16.3H125.963V18.82H117.203V23.932H126.467V26.5H114.155ZM139.384 13.588L134.968 19.78L139.672 26.5H136.312L133.264 22.156L130.168 26.5H127.024L131.728 19.948L127.288 13.588H130.648L133.408 17.572L136.264 13.588H139.384Z" fill="white"/>
</svg>
