<svg width="107" height="22" viewBox="0 0 107 22" fill="none" xmlns="http://www.w3.org/2000/svg">
<path d="M14.9684 14.2517H18.385C17.5168 18.8165 14.3242 21.365 9.6193 21.365C3.68214 21.365 0.237471 17.1642 0.237471 10.779C0.237471 4.39373 3.87818 0.332937 9.78734 0.332937C14.2962 0.332937 17.5168 2.88144 18.329 7.44633H14.9123C14.2682 4.67379 12.3358 3.24551 9.67532 3.24551C6.45469 3.24551 3.90619 5.87802 3.90619 10.779C3.90619 15.7079 6.39867 18.4525 9.64731 18.4525C12.4199 18.4525 14.3242 17.0522 14.9684 14.2517ZM24.2546 0.697009V21.001H20.9219V0.697009H24.2546ZM30.1618 13.4955C30.1618 16.9682 32.0101 18.6485 34.1385 18.6485C36.2669 18.6485 38.1153 16.9682 38.1153 13.4955C38.1153 10.0228 36.2669 8.3145 34.1385 8.3145C32.0101 8.3145 30.1618 10.0228 30.1618 13.4955ZM34.1385 5.59797C37.8073 5.59797 41.56 8.06245 41.56 13.4955C41.56 18.9566 37.8073 21.365 34.1385 21.365C30.4698 21.365 26.7171 18.9566 26.7171 13.4955C26.7171 8.06245 30.4698 5.59797 34.1385 5.59797ZM53.3166 21.001V18.9286C52.4484 20.4969 50.9081 21.365 48.8637 21.365C45.279 21.365 43.8227 19.0126 43.8227 15.4279V5.93403H47.1554V14.6157C47.1554 16.6601 47.4354 18.6485 49.9279 18.6485C52.4204 18.6485 53.3166 16.6881 53.3166 13.9716V5.93403H56.6492V21.001H53.3166ZM70.1188 7.95043V0.697009H73.4514V21.001H70.1188V19.0126C69.2226 20.4969 67.6543 21.365 65.6379 21.365C62.0532 21.365 59.0846 18.3125 59.0846 13.4675C59.0846 8.65056 62.0532 5.59797 65.6379 5.59797C67.6543 5.59797 69.2226 6.46614 70.1188 7.95043ZM70.2588 13.4675C70.2588 9.99483 68.5225 8.3145 66.366 8.3145C64.1256 8.3145 62.5573 10.3309 62.5573 13.4675C62.5573 16.6881 64.1256 18.6485 66.366 18.6485C68.5225 18.6485 70.2588 16.9402 70.2588 13.4675ZM77.102 21.001V0.697009H91.4688V3.66559H80.6587V9.09865H90.8807V12.0392H80.6587V18.0044H91.4688V21.001H77.102ZM106.542 5.93403L101.389 13.1594L106.878 21.001H102.958L99.4009 15.932L95.7882 21.001H92.1195L97.6086 13.3555L92.4275 5.93403H96.3483L99.5689 10.5829L102.902 5.93403H106.542Z" fill="white"/>
</svg>
