<svg width="36" height="36" viewBox="0 0 36 36" fill="none" xmlns="http://www.w3.org/2000/svg">
<g id="litecoin-ltc-logo" clip-path="url(#clip0_45_747)">
<path id="Vector" d="M18 34.0518C26.8652 34.0518 34.0518 26.8652 34.0518 18C34.0518 9.13482 26.8652 1.94818 18 1.94818C9.13482 1.94818 1.94818 9.13482 1.94818 18C1.94818 26.8652 9.13482 34.0518 18 34.0518Z" fill="white"/>
<path id="Vector_2" d="M18 0C14.4399 0 10.9598 1.05568 7.99974 3.03355C5.03966 5.01141 2.73255 7.82263 1.37018 11.1117C0.00779906 14.4008 -0.348661 18.02 0.345873 21.5116C1.04041 25.0033 2.75474 28.2106 5.27209 30.7279C7.78943 33.2453 10.9967 34.9596 14.4884 35.6541C17.98 36.3487 21.5992 35.9922 24.8883 34.6298C28.1774 33.2675 30.9886 30.9604 32.9665 28.0003C34.9443 25.0402 36 21.5601 36 18C36.0069 15.6431 35.5495 13.3079 34.6539 11.1277C33.7582 8.94757 32.442 6.96518 30.7803 5.29372C29.1185 3.62226 27.1438 2.29448 24.9689 1.38618C22.794 0.477883 20.4615 0.00685817 18.1046 0H18ZM18.3051 18.6102L16.431 24.9298H26.4552C26.5216 24.9275 26.5878 24.9382 26.6501 24.9615C26.7123 24.9848 26.7693 25.0201 26.8179 25.0654C26.8665 25.1108 26.9056 25.1652 26.9331 25.2257C26.9606 25.2862 26.976 25.3515 26.9782 25.4179V25.5835L26.1065 28.5908C26.0681 28.733 25.9825 28.8579 25.8637 28.9451C25.7449 29.0322 25.6 29.0763 25.4528 29.0702H10.1114L12.6828 20.3099L9.8063 21.1816L10.4601 19.1768L13.3366 18.3051L16.954 6.01453C16.9938 5.87311 17.0798 5.74909 17.1983 5.6622C17.3168 5.57532 17.4609 5.53058 17.6078 5.53511H21.4867C21.5531 5.53278 21.6193 5.54356 21.6815 5.56684C21.7438 5.59012 21.8008 5.62543 21.8494 5.67077C21.8979 5.7161 21.9371 5.77057 21.9646 5.83105C21.9921 5.89153 22.0074 5.95684 22.0097 6.02324V6.18886L18.9588 16.5617L21.8354 15.6901L21.2252 17.7821L18.3051 18.6102Z" fill="#345D9D"/>
</g>
<defs>
<clipPath id="clip0_45_747">
<rect width="36" height="36" fill="white"/>
</clipPath>
</defs>
</svg>
