<svg width="81" height="80" viewBox="0 0 81 80" fill="none" xmlns="http://www.w3.org/2000/svg">
<circle cx="40.6309" cy="40" r="40" fill="white" fill-opacity="0.05"/>
<path fill-rule="evenodd" clip-rule="evenodd" d="M20.9219 34.5C20.9219 28.678 25.6415 23.9584 31.4635 23.9584H49.7969C55.6189 23.9584 60.3385 28.678 60.3385 34.5V45.5C60.3385 51.322 55.6189 56.0417 49.7969 56.0417H31.4635C25.6415 56.0417 20.9219 51.322 20.9219 45.5V34.5ZM30.4555 33.4C29.848 32.9444 28.9862 33.0675 28.5305 33.675C28.0749 34.2825 28.198 35.1444 28.8055 35.6L37.6055 42.2C39.3981 43.5445 41.8629 43.5445 43.6555 42.2L52.4555 35.6C53.063 35.1444 53.1862 34.2825 52.7305 33.675C52.2749 33.0675 51.413 32.9444 50.8055 33.4L42.0055 40C41.1907 40.6111 40.0704 40.6111 39.2555 40L30.4555 33.4Z" fill="white"/>
</svg>
