<svg width="37" height="37" viewBox="0 0 37 37" fill="none" xmlns="http://www.w3.org/2000/svg">
<g clip-path="url(#clip0_317_1651)">
<path d="M18.2312 36C27.883 36 35.7073 28.1757 35.7073 18.5239C35.7073 8.87215 27.883 1.04785 18.2312 1.04785C8.57943 1.04785 0.755127 8.87215 0.755127 18.5239C0.755127 28.1757 8.57943 36 18.2312 36Z" fill="white"/>
<path fill-rule="evenodd" clip-rule="evenodd" d="M19.8061 9.25899C20.4014 9.0126 21.2868 8.66974 22.1664 9.01583C22.2876 9.06353 22.4078 9.11337 22.5268 9.1653C23.3925 9.54298 23.776 10.4109 24.0228 11.0059C24.0669 11.1122 24.1072 11.2122 24.1456 11.3077C24.2317 11.5212 24.3087 11.7125 24.3995 11.9029C24.5262 12.1685 24.6462 12.3554 24.7731 12.4823C24.9 12.6092 25.0869 12.7291 25.3525 12.8558C25.5429 12.9466 25.7341 13.0236 25.9477 13.1097C26.0432 13.1481 26.1433 13.1885 26.2495 13.2325C26.8445 13.4793 27.7125 13.8628 28.0903 14.7285C28.1423 14.8477 28.1922 14.968 28.24 15.0894C28.5861 15.969 28.2432 16.8544 27.9968 17.4497C27.9528 17.5562 27.9105 17.6554 27.8702 17.7501C27.78 17.9619 27.6991 18.1519 27.6286 18.3507C27.5303 18.6282 27.4829 18.8452 27.4829 19.0248C27.4829 19.2043 27.5303 19.4213 27.6286 19.6988C27.6991 19.8976 27.7798 20.0872 27.87 20.2991C27.9103 20.3938 27.9528 20.4934 27.9968 20.5998C28.2432 21.1951 28.5861 22.0805 28.24 22.9601C28.1923 23.0812 28.1425 23.2012 28.0907 23.3201C27.713 24.1859 26.8448 24.5695 26.2498 24.8162C26.1435 24.8603 26.0437 24.9005 25.9483 24.9389C25.7347 25.0249 25.543 25.1021 25.3526 25.193C25.0869 25.3197 24.9 25.4396 24.7731 25.5665C24.6462 25.6934 24.5262 25.8803 24.3995 26.146C24.3087 26.3364 24.2317 26.5276 24.1457 26.7411C24.1073 26.8366 24.0669 26.9369 24.0228 27.0432C23.776 27.6383 23.3925 28.5065 22.5267 28.8842C22.4077 28.9362 22.2876 28.986 22.1664 29.0337C21.2868 29.3798 20.4014 29.0369 19.8061 28.7905C19.6996 28.7464 19.6003 28.7042 19.5055 28.6638C19.2938 28.5736 19.1039 28.4928 18.9051 28.4223C18.6276 28.324 18.4106 28.2766 18.2311 28.2766C18.0516 28.2766 17.8345 28.324 17.557 28.4223C17.3583 28.4927 17.1687 28.5734 16.957 28.6636C16.8622 28.704 16.7626 28.7464 16.6561 28.7905C16.0607 29.0369 15.1753 29.3798 14.2957 29.0337C14.1745 28.986 14.0544 28.9361 13.9353 28.8842C13.0695 28.5065 12.686 27.6384 12.4393 27.0434C12.3952 26.937 12.3549 26.837 12.3164 26.7415C12.2304 26.5279 12.1534 26.3367 12.0626 26.1463C11.9359 25.8806 11.8159 25.6937 11.689 25.5668C11.5621 25.4399 11.3752 25.3199 11.1095 25.1932C10.9192 25.1024 10.728 25.0254 10.5144 24.9394C10.4191 24.901 10.3186 24.8605 10.2124 24.8165C9.61736 24.5697 8.74928 24.1862 8.37157 23.3204C8.31965 23.2014 8.26982 23.0813 8.22213 22.9601C7.87604 22.0805 8.2189 21.1951 8.46529 20.5998C8.50938 20.4932 8.55165 20.394 8.59203 20.2992C8.68223 20.0874 8.76304 19.8976 8.83349 19.6988C8.93183 19.4213 8.97924 19.2042 8.97924 19.0247C8.97924 18.8452 8.93183 18.6282 8.83349 18.3507C8.76304 18.1519 8.68229 17.9623 8.59209 17.7505C8.55169 17.6556 8.5094 17.5563 8.46529 17.4497C8.2189 16.8544 7.87604 15.969 8.22213 15.0894C8.26987 14.9681 8.31974 14.8479 8.3717 14.7288C8.74943 13.863 9.61746 13.4795 10.2125 13.2328C10.3188 13.1887 10.4188 13.1484 10.5142 13.11C10.7278 13.0239 10.9192 12.9468 11.1096 12.856C11.3752 12.7293 11.5621 12.6094 11.689 12.4825C11.8159 12.3556 11.9359 12.1687 12.0626 11.903C12.1534 11.7127 12.2304 11.5215 12.3164 11.3079C12.3549 11.2124 12.3952 11.1124 12.4393 11.006C12.6861 10.411 13.0696 9.54299 13.9353 9.16529C14.0543 9.11337 14.1745 9.06354 14.2957 9.01584C15.1753 8.66975 16.0607 9.0126 16.656 9.259C16.7626 9.30311 16.8619 9.3454 16.9567 9.38579C17.1686 9.47599 17.3582 9.55675 17.557 9.6272C17.8345 9.72554 18.0515 9.77294 18.231 9.77294C18.4105 9.77294 18.6276 9.72554 18.9051 9.6272C19.1039 9.55674 19.2935 9.47599 19.5053 9.38579C19.6002 9.3454 19.6995 9.3031 19.8061 9.25899ZM15.4694 17.3822C15.7785 17.6914 16.2798 17.6914 16.589 17.3822C16.8982 17.073 16.8982 16.5718 16.589 16.2626C16.2798 15.9534 15.7785 15.9534 15.4694 16.2626C15.1602 16.5718 15.1602 17.073 15.4694 17.3822ZM19.8732 21.786C20.1824 22.0952 20.6837 22.0952 20.9928 21.786C21.302 21.4768 21.302 20.9755 20.9928 20.6664C20.6837 20.3572 20.1824 20.3572 19.8732 20.6664C19.564 20.9755 19.564 21.4768 19.8732 21.786ZM21.0008 16.2545C21.2937 16.5474 21.2937 17.0224 21.0008 17.3153L16.5223 21.7938C16.2293 22.0868 15.7544 22.0868 15.4614 21.7938C15.1685 21.5009 15.1685 21.0259 15.4614 20.733L19.9399 16.2545C20.2329 15.9615 20.7078 15.9615 21.0008 16.2545Z" fill="#121117"/>
</g>
<defs>
<clipPath id="clip0_317_1651">
<rect width="36.007" height="36.007" fill="white" transform="translate(0.227661 0.520996)"/>
</clipPath>
</defs>
</svg>
