<svg width="37" height="25" viewBox="0 0 37 25" fill="none" xmlns="http://www.w3.org/2000/svg">
<g clip-path="url(#clip0_327_1729)">
<rect x="0.0078125" y="0.0146484" width="36" height="24" rx="4.00078" fill="white"/>
<path d="M9.27474 8.64321C10.8851 8.64321 12.1753 9.45337 12.5254 11.0337H10.845C10.685 10.5336 10.1849 10.0535 9.25474 10.0535C8.20453 10.0535 7.38437 10.8336 7.38437 12.3639C7.38437 13.8942 8.13452 14.7344 9.28474 14.7344C10.0749 14.7344 10.8951 14.4343 10.8951 13.5142V13.3741H9.14471V11.9739H12.6054V16.0146H11.2951L11.2451 15.2145C10.775 15.8546 10.0649 16.1447 9.02469 16.1447C6.89427 16.1447 5.57402 14.6844 5.57402 12.3639C5.57402 10.0735 7.07431 8.64321 9.27474 8.64321ZM18.5386 8.76323H20.2489V16.0146H18.5386V13.0441H15.558V16.0146H13.8477V8.76323H15.558V11.5338H18.5386V8.76323ZM22.5054 16.0146H20.855L23.7856 8.76323H25.4359L22.5054 16.0146ZM30.2813 12.2139H28.741C28.6309 11.8138 28.2109 11.6938 27.6908 11.6938C27.1206 11.6938 26.8306 11.8238 26.8306 12.0939C26.8306 12.3439 27.0206 12.484 27.4907 12.574L28.4909 12.754C29.7812 12.9941 30.4013 13.3741 30.4013 14.3243C30.4013 15.5346 29.2911 16.1447 27.8008 16.1447C26.3805 16.1447 25.3503 15.5246 25.1603 14.2643H26.6906C26.8406 14.7844 27.2507 14.9444 27.8208 14.9444C28.4109 14.9444 28.821 14.7844 28.821 14.4643C28.821 14.2243 28.6109 14.0743 27.9808 13.9642L27.0206 13.8042C25.9804 13.6342 25.2703 13.1141 25.2703 12.1539C25.2703 11.0837 26.4005 10.4936 27.7308 10.4936C28.961 10.4936 30.0712 10.9837 30.2813 12.2139Z" fill="#121117"/>
</g>
<defs>
<clipPath id="clip0_327_1729">
<rect width="36" height="24" fill="white" transform="translate(0.0078125 0.0146484)"/>
</clipPath>
</defs>
</svg>
