<svg width="21" height="16" viewBox="0 0 21 16" fill="none" xmlns="http://www.w3.org/2000/svg">
<path fill-rule="evenodd" clip-rule="evenodd" d="M16.9738 14.4683C17.2941 14.4988 17.6138 14.5393 17.9325 14.5898L18.1563 14.6252C19.1306 14.7795 20.0023 13.9416 20.0023 12.8509V12.0185C20.0023 11.2385 19.5598 10.5426 18.8969 10.2803C17.7563 9.82881 16.5606 9.61194 15.3671 9.62966C16.364 10.2796 17.0023 11.5309 17.0023 12.9123V13.9652C17.0023 14.1362 16.9926 14.3041 16.9738 14.4683ZM13.976 8.31689C14.4144 8.63553 14.9388 8.82084 15.5023 8.82084C17.0416 8.82084 18.2894 7.43801 18.2894 5.7322C18.2894 4.02639 17.0416 2.64355 15.5023 2.64355C15.186 2.64355 14.882 2.70195 14.5986 2.80954C14.844 3.4673 14.9803 4.19521 14.9803 4.96093C14.9803 6.23348 14.6038 7.40162 13.976 8.31689Z" fill="white" fill-opacity="0.6"/>
<path fill-rule="evenodd" clip-rule="evenodd" d="M3.03088 14.4683C2.71058 14.4988 2.39086 14.5393 2.0721 14.5898L1.84833 14.6252C0.874014 14.7795 0.00231218 13.9416 0.00231218 12.8509V12.0185C0.00231218 11.2385 0.444805 10.5426 1.10769 10.2803C2.24837 9.82881 3.44405 9.61194 4.63757 9.62966C3.6406 10.2796 3.00231 11.5309 3.00231 12.9123V13.9652C3.00231 14.1362 3.01205 14.3041 3.03088 14.4683ZM6.02869 8.31689C5.59023 8.63553 5.0658 8.82084 4.50232 8.82084C2.96306 8.82084 1.71524 7.43801 1.71524 5.7322C1.71524 4.02639 2.96306 2.64355 4.50232 2.64355C4.81862 2.64355 5.12262 2.70195 5.40601 2.80954C5.16065 3.4673 5.02435 4.19521 5.02435 4.96093C5.02435 6.23348 5.40081 7.40162 6.02869 8.31689Z" fill="white" fill-opacity="0.6"/>
<path fill-rule="evenodd" clip-rule="evenodd" d="M13.7184 4.50436C13.7184 2.3721 12.0547 0.643555 10.0023 0.643555C7.94997 0.643555 6.28622 2.3721 6.28622 4.50436C6.28622 6.63662 7.94997 8.36517 10.0023 8.36517C12.0547 8.36517 13.7184 6.63662 13.7184 4.50436Z" fill="white" fill-opacity="0.6"/>
<path fill-rule="evenodd" clip-rule="evenodd" d="M5.47616 10.1895C8.40307 9.10343 11.6016 9.10343 14.5285 10.1895C15.4123 10.5174 16.0023 11.3872 16.0023 12.3623V13.4028C16.0023 14.7661 14.8401 15.8134 13.541 15.6206L13.2426 15.5763C11.0933 15.2573 8.91132 15.2573 6.76204 15.5763L6.46367 15.6206C5.16459 15.8134 4.00232 14.7661 4.00232 13.4028V12.3623C4.00232 11.3872 4.59231 10.5174 5.47616 10.1895Z" fill="white" fill-opacity="0.6"/>
</svg>
