<svg width="80" height="80" viewBox="0 0 80 80" fill="none" xmlns="http://www.w3.org/2000/svg">
<circle cx="40" cy="40" r="40" fill="white" fill-opacity="0.05"/>
<path fill-rule="evenodd" clip-rule="evenodd" d="M54.065 21.0008C57.0238 20.6138 59.4621 23.0521 59.0751 26.0109C58.5095 30.3357 56.9565 37.6828 52.5647 42.418C51.1673 43.9246 49.4795 45.3167 47.7437 46.5536L48.2509 50.1037C48.3937 51.1034 48.0575 52.112 47.3434 52.8261L41.5098 58.6597C39.6404 60.5292 36.439 59.462 36.0651 56.8448L35.2873 51.4001L35.2896 51.3997C34.7929 51.1593 34.3323 50.8341 33.931 50.4328L29.6431 46.1449C29.2418 45.7436 28.9166 45.283 28.6761 44.7862L28.6758 44.7887L23.2311 44.0109C20.6138 43.637 19.5467 40.4356 21.4162 38.5661L27.2498 32.7325C27.9639 32.0184 28.9725 31.6822 29.9722 31.825L33.5223 32.3322C34.7592 30.5965 36.1513 28.9086 37.6579 27.5112C42.3931 23.1195 49.7402 21.5664 54.065 21.0008ZM25.9535 46.3443C26.4904 46.8812 26.4904 47.7518 25.9535 48.2888L23.3607 50.8815C22.8238 51.4185 21.9532 51.4185 21.4162 50.8815C20.8792 50.3446 20.8792 49.474 21.4162 48.937L24.0089 46.3443C24.5459 45.8073 25.4165 45.8073 25.9535 46.3443ZM29.8426 50.2334C30.3795 50.7703 30.3795 51.6409 29.8426 52.1779L24.6571 57.3633C24.1201 57.9003 23.2495 57.9003 22.7126 57.3633C22.1756 56.8264 22.1756 55.9558 22.7126 55.4188L27.898 50.2334C28.435 49.6964 29.3056 49.6964 29.8426 50.2334ZM33.7316 54.1224C34.2686 54.6594 34.2686 55.53 33.7316 56.067L31.1389 58.6597C30.6019 59.1967 29.7313 59.1967 29.1944 58.6597C28.6574 58.1227 28.6574 57.2521 29.1944 56.7152L31.7871 54.1224C32.3241 53.5855 33.1947 53.5855 33.7316 54.1224ZM43.1296 36.9455C41.6977 35.5135 41.6977 33.1919 43.1296 31.76C44.5615 30.3281 46.8832 30.3281 48.3151 31.76C49.747 33.1919 49.747 35.5135 48.3151 36.9455C46.8832 38.3774 44.5615 38.3774 43.1296 36.9455Z" fill="white"/>
</svg>
