<svg width="81" height="80" viewBox="0 0 81 80" fill="none" xmlns="http://www.w3.org/2000/svg">
<circle cx="40.9463" cy="40" r="40" fill="white" fill-opacity="0.05"/>
<path d="M57.9453 34.225V30.8333C57.9453 26.7832 54.6621 23.5 50.612 23.5H47.2203M57.9453 45.775V49.1667C57.9453 53.2168 54.6621 56.5 50.612 56.5H47.2203M35.6703 56.5H32.2786C28.2286 56.5 24.9453 53.2168 24.9453 49.1667V45.775M24.9453 34.225V30.8333C24.9453 26.7832 28.2286 23.5 32.2786 23.5H35.6703" stroke="white" stroke-width="2.75" stroke-linecap="round"/>
<path d="M59.779 40L23.1123 40" stroke="white" stroke-width="2.75" stroke-linecap="round" stroke-linejoin="round"/>
<path fill-rule="evenodd" clip-rule="evenodd" d="M30.4453 34.5C30.4453 31.4624 32.9077 29 35.9453 29H46.9453C49.9829 29 52.4453 31.4624 52.4453 34.5V36.7917L30.4453 36.7917V34.5ZM30.4453 39.5417V40.4583L52.4453 40.4583V39.5417L30.4453 39.5417ZM30.4453 43.2083L52.4453 43.2083V45.5C52.4453 48.5376 49.9829 51 46.9453 51H35.9453C32.9077 51 30.4453 48.5376 30.4453 45.5V43.2083Z" fill="white"/>
</svg>
