<svg width="81" height="80" viewBox="0 0 81 80" fill="none" xmlns="http://www.w3.org/2000/svg">
<circle cx="40.6133" cy="40" r="40" fill="white" fill-opacity="0.05"/>
<path fill-rule="evenodd" clip-rule="evenodd" d="M35.5986 20.8929C37.1512 20.5001 38.776 20.2917 40.4474 20.2917C42.1189 20.2917 43.7438 20.5001 45.2965 20.893C46.5637 21.2137 47.218 22.308 47.4285 23.2177C47.6778 24.2953 48.3541 25.2661 49.3851 25.8613C50.333 26.4086 51.4047 26.5372 52.3932 26.3041C53.3016 26.0899 54.5701 26.192 55.4189 27.1826C56.9972 29.0245 58.2421 31.1622 59.059 33.5021C59.5467 34.8991 58.7911 36.157 57.9933 36.8143C57.0724 37.5731 56.489 38.7179 56.489 40C56.489 41.2822 57.0724 42.4269 57.9933 43.1857C58.7911 43.843 59.5467 45.101 59.059 46.4979C58.2422 48.8376 56.9974 50.9751 55.4194 52.8168C54.5705 53.8076 53.3019 53.9096 52.3934 53.6953C51.4049 53.4622 50.333 53.5907 49.385 54.1381C48.3539 54.7334 47.6776 55.7043 47.4283 56.782C47.2179 57.6919 46.5636 58.7864 45.2962 59.1071C43.7436 59.5 42.1189 59.7084 40.4474 59.7084C38.776 59.7084 37.1513 59.5 35.5988 59.1071C34.3314 58.7865 33.6771 57.6919 33.4667 56.7821C33.2174 55.7043 32.5411 54.7334 31.51 54.1381C30.5619 53.5907 29.49 53.4622 28.5015 53.6954C27.593 53.9096 26.3243 53.8077 25.4754 52.8168C23.8974 50.9751 22.6526 48.8376 21.8358 46.4979C21.3481 45.101 22.1037 43.843 22.9015 43.1857C23.8224 42.4269 24.4058 41.2822 24.4058 40C24.4058 38.7178 23.8224 37.5731 22.9015 36.8143C22.1037 36.157 21.3481 34.8991 21.8358 33.5021C22.6527 31.1621 23.8977 29.0245 25.4759 27.1826C26.3248 26.1919 27.5933 26.0899 28.5017 26.3041C29.4902 26.5372 30.562 26.4086 31.51 25.8613C32.541 25.2661 33.2172 24.2953 33.4666 23.2177C33.6771 22.308 34.3314 21.2136 35.5986 20.8929ZM40.4465 45.5C37.4089 45.5 34.9465 43.0376 34.9465 40C34.9465 36.9625 37.4089 34.5 40.4465 34.5C43.484 34.5 45.9465 36.9625 45.9465 40C45.9465 43.0376 43.484 45.5 40.4465 45.5Z" fill="white"/>
</svg>
