<svg width="81" height="80" viewBox="0 0 81 80" fill="none" xmlns="http://www.w3.org/2000/svg">
<circle cx="40.9463" cy="40" r="40" fill="white" fill-opacity="0.05"/>
<path d="M38.561 22.9655C39.416 21.5447 41.4759 21.5447 42.3309 22.9655L46.6034 30.0649C46.9106 30.5753 47.4117 30.9394 47.992 31.0738L56.0642 32.9433C57.6797 33.3175 58.3162 35.2765 57.2292 36.5288L51.7975 42.786C51.407 43.2358 51.2156 43.8249 51.2671 44.4184L51.9836 52.6732C52.1269 54.3252 50.4605 55.536 48.9336 54.8891L41.3042 51.6569C40.7556 51.4245 40.1363 51.4245 39.5878 51.6569L31.9583 54.8891C30.4314 55.536 28.765 54.3252 28.9084 52.6732L29.6248 44.4184C29.6763 43.8249 29.4849 43.2358 29.0944 42.786L23.6627 36.5288C22.5757 35.2765 23.2122 33.3175 24.8277 32.9433L32.8999 31.0738C33.4803 30.9394 33.9813 30.5753 34.2885 30.0649L38.561 22.9655Z" fill="white" stroke="white" stroke-width="2.75"/>
</svg>
