<svg width="37" height="36" viewBox="0 0 37 36" fill="none" xmlns="http://www.w3.org/2000/svg">
<g id="tron-trx-logo" clip-path="url(#clip0_45_753)">
<g id="tron">
<circle id="Ellipse 3" cx="18.6665" cy="18.0001" r="18" fill="#FF060A"/>
<path id="Vector" d="M29.1891 14.9072C28.1829 13.9724 26.7911 12.5448 25.6576 11.5323L25.5905 11.485C25.4789 11.3948 25.353 11.3241 25.2182 11.2758C22.4849 10.7628 9.76411 8.36994 9.51593 8.40031C9.44639 8.41011 9.37992 8.43548 9.32141 8.47456L9.25769 8.52518C9.17923 8.60537 9.11964 8.70225 9.0833 8.80868L9.06653 8.85256V9.09218V9.1293C10.4986 13.1421 16.153 26.2876 17.2665 29.3723C17.3335 29.5815 17.461 29.9798 17.6991 30H17.7528C17.8802 30 18.4235 29.2778 18.4235 29.2778C18.4235 29.2778 28.136 17.4249 29.1186 16.1627C29.2458 16.0072 29.3581 15.84 29.454 15.6632C29.4785 15.5249 29.4669 15.3826 29.4205 15.2501C29.3741 15.1176 29.2943 14.9995 29.1891 14.9072ZM20.9153 16.2876L25.0606 12.8283L27.4921 15.0827L20.9153 16.2876ZM19.3055 16.0615L12.1688 10.1755L23.7157 12.3186L19.3055 16.0615ZM19.9495 17.6038L27.2539 16.4192L18.9031 26.5441L19.9495 17.6038ZM11.1995 10.7628L18.7086 17.1752L17.622 26.5508L11.1995 10.7628Z" fill="white"/>
</g>
</g>
<defs>
<clipPath id="clip0_45_753">
<rect width="36" height="36" fill="white" transform="translate(0.666504)"/>
</clipPath>
</defs>
</svg>
