<svg width="31" height="30" viewBox="0 0 31 30" fill="none" xmlns="http://www.w3.org/2000/svg">
<path fill-rule="evenodd" clip-rule="evenodd" d="M0.750122 23.0049L0.750121 15.5049C0.750121 12.1912 3.43641 9.50488 6.75012 9.50488L14.6251 9.50488L14.6251 20.0049C14.6251 20.6262 15.1288 21.1299 15.7501 21.1299C16.3714 21.1299 16.8751 20.6262 16.8751 20.0049L16.8751 9.50488L24.7501 9.50488C28.0638 9.50488 30.7501 12.1912 30.7501 15.5049L30.7501 23.0049C30.7501 26.3186 28.0638 29.0049 24.7501 29.0049L21.7501 29.0049L9.75012 29.0049L6.75012 29.0049C3.43641 29.0049 0.750122 26.3186 0.750122 23.0049ZM16.8751 9.50488L16.8751 3.22087L19.4546 5.80038C19.8939 6.23972 20.6063 6.23972 21.0456 5.80038C21.4849 5.36104 21.4849 4.64873 21.0456 4.20939L17.6063 0.770047C16.5811 -0.255076 14.9191 -0.255082 13.8939 0.770048L10.4546 4.20939C10.0153 4.64873 10.0153 5.36104 10.4546 5.80038C10.8939 6.23972 11.6063 6.23972 12.0456 5.80038L14.6251 3.22087L14.6251 9.50488L16.8751 9.50488Z" fill="white"/>
</svg>
