<svg width="36" height="37" viewBox="0 0 36 37" fill="none" xmlns="http://www.w3.org/2000/svg">
<path d="M18 35.9727C27.6499 35.9727 35.4727 28.1499 35.4727 18.5C35.4727 8.85012 27.6499 1.02734 18 1.02734C8.35012 1.02734 0.527344 8.85012 0.527344 18.5C0.527344 28.1499 8.35012 35.9727 18 35.9727Z" fill="white"/>
<circle cx="4" cy="4" r="4" transform="matrix(-1 0 0 1 22 10)" fill="#111517" stroke="#111517" stroke-width="1.5"/>
<path d="M11 23.9347C11 23.0743 11.5409 22.3068 12.3511 22.0175C16.004 20.7128 19.996 20.7128 23.6489 22.0175C24.4591 22.3068 25 23.0743 25 23.9347V25.2502C25 26.4376 23.9483 27.3498 22.7728 27.1818L21.8184 27.0455C19.2856 26.6837 16.7144 26.6837 14.1816 27.0455L13.2272 27.1818C12.0517 27.3498 11 26.4376 11 25.2502V23.9347Z" fill="#111517" stroke="#111517" stroke-width="1.5"/>
</svg>
