<svg width="36" height="34" viewBox="0 0 36 34" fill="none" xmlns="http://www.w3.org/2000/svg">
<g id="Add user">
<ellipse id="Ellipse 33" cx="7.11111" cy="7.08571" rx="7.11111" ry="7.08571" transform="matrix(-1 0 0 1 21.5557 1.5)" fill="white" stroke="white" stroke-width="2.65714"/>
<path id="Rectangle 2" d="M2 26.2023C2 24.6678 2.96555 23.2993 4.41122 22.7849C10.9007 20.4755 17.9882 20.4755 24.4777 22.7849C25.9233 23.2993 26.8889 24.6678 26.8889 26.2023V28.5184C26.8889 30.6203 25.0278 32.2352 22.947 31.9389L21.1848 31.6881C16.7137 31.0517 12.1751 31.0517 7.70414 31.6881L5.94192 31.9389C3.86105 32.2352 2 30.6203 2 28.5184V26.2023Z" fill="white" stroke="white" stroke-width="2.65714"/>
<path id="Line" d="M26.8889 15.6715H34" stroke="white" stroke-width="2.65714" stroke-linecap="round" stroke-linejoin="round"/>
<path id="Line_2" d="M30.4453 12.1286L30.4453 19.2144" stroke="white" stroke-width="2.65714" stroke-linecap="round" stroke-linejoin="round"/>
</g>
</svg>
