<?xml version="1.0" standalone="no"?>
<!DOCTYPE svg PUBLIC "-//W3C//DTD SVG 20010904//EN"
 "http://www.w3.org/TR/2001/REC-SVG-20010904/DTD/svg10.dtd">
<svg version="1.0" xmlns="http://www.w3.org/2000/svg"
 width="700.000000pt" height="700.000000pt" viewBox="0 0 700.000000 700.000000"
 preserveAspectRatio="xMidYMid meet">
<metadata>
Created by potrace 1.14, written by Peter Selinger 2001-2017
</metadata>
<g transform="translate(0.000000,700.000000) scale(0.100000,-0.100000)"
fill="#000000" stroke="none">
<path d="M1490 6989 c-570 -66 -1070 -419 -1321 -934 -86 -178 -138 -364 -159
-570 -8 -78 -10 -678 -8 -2060 4 -1790 6 -1957 21 -2035 55 -271 157 -509 310
-716 73 -100 267 -288 377 -366 172 -122 394 -220 605 -267 188 -42 228 -42
2260 -39 1790 4 1957 6 2035 21 271 55 509 158 716 310 101 74 289 268 366
377 122 172 223 402 268 608 40 186 41 235 38 2257 -5 2156 1 1987 -68 2223
-189 648 -754 1118 -1432 1191 -119 13 -3895 13 -4008 0z m2270 -2118 c182
-41 342 -112 486 -214 117 -83 274 -250 348 -369 l58 -96 152 -5 c125 -4 166
-9 239 -31 471 -141 763 -594 682 -1059 -34 -194 -117 -356 -255 -498 -128
-130 -262 -209 -449 -262 l-76 -22 -1400 -3 c-1024 -2 -1420 0 -1475 8 -263
41 -481 227 -567 485 -23 70 -27 96 -27 210 0 114 4 140 27 210 36 110 89 196
172 280 119 121 282 200 441 212 l70 6 13 85 c35 241 163 500 340 685 195 204
465 346 746 392 121 19 359 13 475 -14z"/>
</g>
</svg>
